<svg width="1272" height="443" viewBox="0 0 1272 443" fill="none" xmlns="http://www.w3.org/2000/svg">
<mask id="mask0_26_18" style="mask-type:luminance" maskUnits="userSpaceOnUse" x="0" y="0" width="1272" height="443">
<path d="M1240 0.479004H32C14.3269 0.479004 0 14.8059 0 32.479V410.479C0 428.152 14.3269 442.479 32 442.479H1240C1257.67 442.479 1272 428.152 1272 410.479V32.479C1272 14.8059 1257.67 0.479004 1240 0.479004Z" fill="white"/>
</mask>
<g mask="url(#mask0_26_18)">
<path d="M1272 0.479004H0V517.479H1272V0.479004Z" fill="#EDF4FF"/>
<path opacity="0.6" d="M1156 340.979C1281.64 340.979 1383.5 239.124 1383.5 113.479C1383.5 -12.1658 1281.64 -114.021 1156 -114.021C1030.36 -114.021 928.5 -12.1658 928.5 113.479C928.5 239.124 1030.36 340.979 1156 340.979Z" stroke="#D9E5FC" stroke-width="91"/>
<path opacity="0.6" d="M95 582.979C228.929 582.979 337.5 474.408 337.5 340.479C337.5 206.55 228.929 97.979 95 97.979C-38.929 97.979 -147.5 206.55 -147.5 340.479C-147.5 474.408 -38.929 582.979 95 582.979Z" stroke="#D9E5FC" stroke-width="81"/>
</g>
</svg>
