<svg width="36" height="35" viewBox="0 0 36 35" fill="none" xmlns="http://www.w3.org/2000/svg">
<path d="M34.7378 14.7032H32.4238C31.964 14.7032 31.5667 14.3911 31.4474 13.9471C31.1368 12.7906 30.678 11.6949 30.0929 10.6811C29.8629 10.2825 29.9252 9.78018 30.2506 9.45478L31.8863 7.81901C32.2816 7.42376 32.2816 6.78289 31.8863 6.38757L29.3625 3.86374C28.9672 3.46849 28.3264 3.46849 27.9311 3.86374L26.2954 5.49951C25.97 5.8249 25.4676 5.88718 25.069 5.65715C24.0553 5.07206 22.9596 4.6133 21.803 4.30268C21.359 4.18339 21.0469 3.78608 21.0469 3.3263V1.0122C21.0469 0.860986 21.0128 0.718115 20.9534 0.589258H20.0431L15.9585 2.03048L15.4532 3.16142V3.32623C15.4532 3.78602 15.1411 4.18332 14.6971 4.30261C14.3304 4.40111 13.9706 4.51616 13.6167 4.64372L11.1933 6.18543L7.78233 12.3748L7.26636 19.1758L8.84587 25.2699L11.4339 28.8379L13.7827 30.4157C14.083 30.5197 14.3877 30.6141 14.6971 30.6973C15.1412 30.8165 15.4532 31.2138 15.4532 31.6736V31.7462L15.9409 32.3942L19.955 34.2604L20.987 34.3275C21.025 34.2212 21.0468 34.1071 21.0468 33.9877V31.6736C21.0468 31.2138 21.3589 30.8165 21.803 30.6973C22.9595 30.3866 24.0552 29.9279 25.069 29.3428C25.4675 29.1128 25.9699 29.175 26.2953 29.5004L27.931 31.1362C28.3262 31.5314 28.9671 31.5314 29.3624 31.1362L31.8863 28.6124C32.2815 28.2171 32.2815 27.5762 31.8863 27.1809L30.2505 25.5451C29.9251 25.2198 29.8628 24.7174 30.0929 24.3188C30.6779 23.3051 31.1367 22.2093 31.4473 21.0528C31.5666 20.6088 31.9639 20.2967 32.4237 20.2967H34.7377C35.2967 20.2967 35.7499 19.8436 35.7499 19.2845V15.7153C35.75 15.1564 35.2968 14.7032 34.7378 14.7032ZM18.25 26.8893C13.0645 26.8893 8.86077 22.6856 8.86077 17.5C8.86077 12.3144 13.0645 8.1107 18.25 8.1107C23.4355 8.1107 27.6393 12.3144 27.6393 17.5C27.6393 22.6856 23.4355 26.8893 18.25 26.8893Z" fill="#1687B5"/>
<path d="M20.985 34.3335C20.9821 34.3414 20.976 34.3581 20.9668 34.3829C20.9736 34.3667 20.979 34.35 20.985 34.3335Z" fill="#1687B5"/>
<path d="M23.1875 14.4908C22.6453 13.9487 21.7663 13.9487 21.2241 14.4908L17.4611 18.2539L15.535 16.3278H15.2014V17.5L18.23 20.7746L18.7052 20.9364L23.1875 16.4541C23.7296 15.912 23.7296 15.0329 23.1875 14.4908Z" fill="#EF5B24"/>
<path d="M15.7609 17.9921C15.3098 17.5409 15.2354 16.8572 15.535 16.3278L15.236 16.0288C14.6938 15.4866 13.8148 15.4866 13.2726 16.0288C12.7305 16.5709 12.7305 17.45 13.2726 17.9921L16.4794 21.1989C17.0215 21.741 17.9005 21.741 18.4427 21.1989L18.7052 20.9364L15.7609 17.9921Z" fill="#EF5B24"/>
<path d="M7.98522 17.4539C7.98522 12.4042 10.1593 7.83836 13.6167 4.64372C12.8547 4.91852 12.1234 5.25752 11.4311 5.65708C11.0325 5.88711 10.5302 5.82483 10.2048 5.49944L8.56908 3.86374C8.17383 3.46849 7.53296 3.46849 7.13764 3.86374L4.61381 6.38757C4.21855 6.78282 4.21855 7.42369 4.61381 7.81901L6.24958 9.45479C6.57497 9.78018 6.63725 10.2825 6.40722 10.6811C5.82213 11.6948 5.36337 12.7906 5.05274 13.9471C4.93346 14.3912 4.53615 14.7032 4.07637 14.7032H1.7622C1.20315 14.7032 0.75 15.1564 0.75 15.7153V19.2846C0.75 19.8436 1.20315 20.2968 1.7622 20.2968H4.07623C4.53602 20.2968 4.93332 20.6089 5.05261 21.0529C5.3633 22.2094 5.82199 23.3051 6.40708 24.3189C6.63711 24.7175 6.57483 25.2198 6.24944 25.5452L4.61367 27.181C4.21842 27.5762 4.21842 28.2171 4.61367 28.6124L7.1375 31.1363C7.53275 31.5315 8.17362 31.5315 8.56894 31.1363L10.2046 29.5006C10.53 29.1752 11.0324 29.1129 11.4309 29.3429C12.1735 29.7715 12.9606 30.1313 13.7827 30.4157C10.229 27.2149 7.98522 22.584 7.98522 17.4539Z" fill="#1687B5"/>
<path d="M20.9534 0.589258C20.7931 0.241719 20.4425 0 20.0347 0H16.4654C15.9064 0 15.4532 0.453154 15.4532 1.0122V3.16142C17.1026 2.00348 18.959 1.12314 20.9534 0.589258Z" fill="#1687B5"/>
<path d="M15.4532 31.7462V33.9878C15.4532 34.5468 15.9064 35 16.4654 35H20.0347C20.4742 35 20.8472 34.7191 20.987 34.3275C18.9798 33.7946 17.1119 32.9107 15.4532 31.7462Z" fill="#1687B5"/>
</svg>
