<svg width="35" height="34" viewBox="0 0 35 34" fill="none" xmlns="http://www.w3.org/2000/svg">
<path d="M20.7941 33.6574C21.5462 33.8647 22.3218 33.9803 23.1046 33.9976C23.1774 33.9992 23.2519 34 23.3256 34C24.2082 34 25.0736 33.8846 25.912 33.6574H20.7941Z" fill="url(#paint0_linear_289_1445)"/>
<path d="M33.5039 3.76165C33.3696 3.76165 33.2415 3.78879 33.1246 3.83732C32.728 1.65762 30.8285 0 28.5503 0H23.5169C21.1962 0 19.2672 1.71972 18.9209 3.95965C20.3423 4.57177 21.341 5.99342 21.341 7.64562V10.8451C22.3098 10.846 23.1985 11.197 23.8891 11.7791C24.3318 11.6076 24.8122 11.5137 25.3142 11.5137C26.5418 11.5137 27.6416 12.0761 28.3724 12.9584C28.6673 12.888 28.975 12.8507 29.291 12.8507C30.4543 12.8507 31.5025 13.3557 32.231 14.1592C32.8386 13.3682 33.202 12.3778 33.202 11.3026V8.20868C33.2972 8.23916 33.3986 8.25587 33.5039 8.25587C34.054 8.25587 34.5 7.80692 34.5 7.25316V4.76436C34.5 4.21059 34.054 3.76165 33.5039 3.76165ZM26.0337 11.149C25.4836 11.149 25.0376 10.7 25.0376 10.1463C25.0376 9.59249 25.4836 9.14354 26.0337 9.14354C26.6641 9.14354 27.177 8.62721 27.177 7.99263C27.177 7.35798 26.6641 6.84171 26.0337 6.84171C25.4032 6.84171 24.8903 7.35804 24.8903 7.99263C24.8903 8.54639 24.4443 8.99534 23.8942 8.99534C23.3441 8.99534 22.8981 8.54639 22.8981 7.99263C22.8981 6.25218 24.3047 4.83629 26.0337 4.83629C27.7626 4.83629 29.1692 6.25225 29.1692 7.99263C29.1692 9.733 27.7626 11.149 26.0337 11.149Z" fill="url(#paint1_linear_289_1445)"/>
<path d="M11.1722 0H6.13889C3.88559 0 2.00191 1.62132 1.57731 3.76579C1.55048 3.76358 1.52352 3.76165 1.49609 3.76165C0.945984 3.76165 0.5 4.21059 0.5 4.76436V7.25316C0.5 7.80392 0.941203 8.25059 1.4872 8.2554V11.3026C1.4872 13.8846 3.57395 15.9852 6.13889 15.9852H11.1722C11.971 15.9852 12.7225 15.78 13.3797 15.4212V7.64562C13.3797 6.00491 14.3648 4.59209 15.7704 3.97308C15.4298 1.72661 13.4975 0 11.1722 0ZM8.65555 11.149C8.10544 11.149 7.65946 10.7 7.65946 10.1463C7.65946 9.59249 8.10544 9.14354 8.65555 9.14354C9.28601 9.14354 9.79893 8.62721 9.79893 7.99263C9.79893 7.35798 9.28601 6.84171 8.65555 6.84171C8.02516 6.84171 7.51223 7.35804 7.51223 7.99263C7.51223 8.54639 7.06625 8.99534 6.51614 8.99534C5.96603 8.99534 5.52005 8.54639 5.52005 7.99263C5.52005 6.25218 6.92666 4.83629 8.65555 4.83629C10.3845 4.83629 11.7911 6.25225 11.7911 7.99263C11.7911 9.733 10.3845 11.149 8.65555 11.149Z" fill="url(#paint2_linear_289_1445)"/>
<path d="M29.291 14.856C28.1929 14.856 27.3026 15.7522 27.3026 16.8577V15.5207C27.3026 14.4152 26.4124 13.519 25.3142 13.519C24.2159 13.519 23.3257 14.4151 23.3257 15.5207V14.8522C23.3257 13.7467 22.4354 12.8505 21.3373 12.8505C20.2392 12.8505 19.349 13.7465 19.3488 14.8519V7.64562C19.3488 6.54016 18.4586 5.64394 17.3604 5.64394C16.2622 5.64394 15.3719 6.5401 15.3719 7.64562V22.2512C14.3056 21.2936 13.2343 20.3315 12.4128 19.5938C11.6029 18.8664 10.3607 18.938 9.63816 19.7533C8.91341 20.5711 8.98718 21.8262 9.80272 22.5523L18.0279 29.8755H17.7373C17.188 29.8755 16.7412 30.3253 16.7412 30.8782V32.6547C16.7412 33.2076 17.188 33.6574 17.7373 33.6574H20.7941H25.912H28.9984C29.5477 33.6574 29.9945 33.2076 29.9945 32.6547V30.8782C29.9945 30.3253 29.5477 29.8755 28.9984 29.8755H28.7153C30.2916 28.4125 31.2794 26.3165 31.2794 23.9879C31.2794 23.9879 31.2794 19.008 31.2794 19.0079V16.8577C31.2794 15.7522 30.3892 14.856 29.291 14.856Z" fill="url(#paint3_linear_289_1445)"/>
<defs>
<linearGradient id="paint0_linear_289_1445" x1="20.2094" y1="5.64406" x2="20.2094" y2="33.6575" gradientUnits="userSpaceOnUse">
<stop stop-color="#1687B5"/>
<stop offset="1" stop-color="#6BD4FF"/>
</linearGradient>
<linearGradient id="paint1_linear_289_1445" x1="20.2094" y1="5.64406" x2="20.2094" y2="33.6575" gradientUnits="userSpaceOnUse">
<stop stop-color="#1687B5"/>
<stop offset="1" stop-color="#6BD4FF"/>
</linearGradient>
<linearGradient id="paint2_linear_289_1445" x1="20.2094" y1="5.64406" x2="20.2094" y2="33.6575" gradientUnits="userSpaceOnUse">
<stop stop-color="#1687B5"/>
<stop offset="1" stop-color="#6BD4FF"/>
</linearGradient>
<linearGradient id="paint3_linear_289_1445" x1="20.2094" y1="5.64406" x2="20.2094" y2="33.6575" gradientUnits="userSpaceOnUse">
<stop stop-color="#1687B5"/>
<stop offset="1" stop-color="#6BD4FF"/>
</linearGradient>
</defs>
</svg>
