<svg width="35" height="34" viewBox="0 0 35 34" fill="none" xmlns="http://www.w3.org/2000/svg">
<path d="M15.1655 18.9933C15.8132 18.9933 16.2989 18.5077 16.2989 17.8602V1.13312C16.2989 0.539582 15.7592 0 15.1655 0H1.7814C1.13379 0 0.648071 0.539582 0.648071 1.13312V17.8602C0.648071 18.5077 1.13379 18.9933 1.7814 18.9933H15.1655ZM4.69569 16.8889H3.29252V15.7558H4.69569V16.8889ZM4.69569 14.1371H3.29252V13.0039H4.69569V14.1371ZM4.69569 11.3312H3.29252V10.1981H4.69569V11.3312ZM9.17505 16.8889H7.77188V15.7558H9.17505V16.8889ZM9.17505 14.1371H7.77188V13.0039H9.17505V14.1371ZM9.17505 11.3312H7.77188V10.1981H9.17505V11.3312ZM13.6005 16.8889H12.1973V15.7558H13.6005V16.8889ZM13.6005 14.1371H12.1973V13.0039H13.6005V14.1371ZM13.6005 11.3312H12.1973V10.1981H13.6005V11.3312ZM2.96871 2.59H13.9243V7.17645H2.96871V2.59Z" fill="url(#paint0_linear_412_197)"/>
<path d="M22.3433 30.1087H1.72744V31.5116C1.72744 32.8606 2.8068 33.9937 4.20998 33.9937H23.3687C22.0195 32.5908 22.4512 30.8102 22.3433 30.1087Z" fill="url(#paint1_linear_412_197)"/>
<path d="M17.4322 18.9933C17.4322 19.6408 16.9465 20.1264 16.2989 20.1264H6.74648V28.9756H23.4766V31.5116C23.4766 32.8066 24.502 33.8858 25.7973 33.9937C27.3084 34.1016 28.4957 32.8066 28.4957 31.4037V9.49665C28.4957 8.5254 28.9814 7.5002 29.5211 7.01457H17.4322V18.9933ZM26.283 26.4395H8.4195V25.3064H26.283V26.4395ZM26.283 23.256H8.4195V22.1229H26.283V23.256ZM25.6893 9.49665H26.8227V10.6298H25.6893V9.49665ZM25.6893 12.6802H26.8227V13.8133H25.6893V12.6802ZM25.6893 15.8098H26.8227V16.9429H25.6893V15.8098ZM25.6893 18.9933H26.8227V20.1264H25.6893V18.9933ZM18.9973 9.49665H24.556V10.6298H18.9973V9.49665ZM18.9973 12.6802H24.556V13.8133H18.9973V12.6802ZM18.9973 15.8098H24.556V16.9429H18.9973V15.8098ZM18.9973 18.9933H24.556V20.1264H18.9973V18.9933Z" fill="url(#paint2_linear_412_197)"/>
<path d="M32.1116 6.96061C30.7084 6.96061 29.629 8.09374 29.629 9.44269V11.3852H34.6481V9.44269C34.6481 8.1477 33.6227 6.96061 32.1116 6.96061Z" fill="url(#paint3_linear_412_197)"/>
<defs>
<linearGradient id="paint0_linear_412_197" x1="20.3575" y1="5.64406" x2="20.3575" y2="33.6575" gradientUnits="userSpaceOnUse">
<stop stop-color="#1687B5"/>
<stop offset="1" stop-color="#6BD4FF"/>
</linearGradient>
<linearGradient id="paint1_linear_412_197" x1="20.3575" y1="5.64406" x2="20.3575" y2="33.6575" gradientUnits="userSpaceOnUse">
<stop stop-color="#1687B5"/>
<stop offset="1" stop-color="#6BD4FF"/>
</linearGradient>
<linearGradient id="paint2_linear_412_197" x1="20.3575" y1="5.64406" x2="20.3575" y2="33.6575" gradientUnits="userSpaceOnUse">
<stop stop-color="#1687B5"/>
<stop offset="1" stop-color="#6BD4FF"/>
</linearGradient>
<linearGradient id="paint3_linear_412_197" x1="20.3575" y1="5.64406" x2="20.3575" y2="33.6575" gradientUnits="userSpaceOnUse">
<stop stop-color="#1687B5"/>
<stop offset="1" stop-color="#6BD4FF"/>
</linearGradient>
</defs>
</svg>
