<svg width="60" height="61" viewBox="0 0 60 61" fill="none" xmlns="http://www.w3.org/2000/svg">
<path d="M23.6341 1.51618L1.45143 9.83377C0.874101 10.0502 0.491344 10.6056 0.491344 11.2264V36.516C0.491344 46.5464 8.37791 55.5839 20.4576 59.3959L23.8911 60.4792L27.3246 59.3959C39.4043 55.5839 47.2909 46.5464 47.2909 36.516V11.2262C47.2909 10.6054 46.9079 10.0502 46.3308 9.83352L24.1481 1.51618C23.9823 1.45402 23.8 1.45402 23.6341 1.51618Z" fill="#4671C6"/>
<path d="M25.8501 54.3398C35.7893 51.2033 42.2119 44.2068 42.2119 36.5157V14.4216C42.2119 14.1113 42.0205 13.8335 41.7318 13.7252L23.8911 7.03582V54.9581L25.8501 54.3398Z" fill="#6BDDDD"/>
<path d="M23.8911 7.03582L6.05041 13.7252C5.76175 13.8335 5.57037 14.1111 5.57037 14.4216V36.5157C5.57037 44.2071 11.9927 51.2033 21.9321 54.3398L23.8909 54.9579L23.8911 7.03582Z" fill="#A4C9FF"/>
<path d="M23.8911 60.9742C23.8415 60.9742 23.7921 60.9668 23.7442 60.9517L20.3107 59.8683C7.9723 55.9749 0 46.8084 0 36.5157V11.2262C0 10.4028 0.514437 9.65647 1.2802 9.36947L23.4627 1.05187C23.7388 0.948366 24.0429 0.948366 24.3191 1.05187L46.5015 9.36947C47.2673 9.65647 47.7817 10.4028 47.7817 11.2262V36.5155C47.7817 46.8082 39.8092 55.9746 27.4711 59.8681L24.0375 60.9515C23.9901 60.9668 23.9405 60.9742 23.8911 60.9742ZM23.8054 1.98023L1.62291 10.2978C1.23991 10.4415 0.982934 10.8144 0.982934 11.2262V36.5155C0.982934 46.3659 8.685 55.1612 20.6048 58.9226L23.8914 59.9597L27.178 58.9226C39.0977 55.1612 46.7998 46.3659 46.7998 36.5155V11.2262C46.7998 10.8144 46.5426 10.4415 46.1598 10.2978L23.9773 1.98023C23.9216 1.95943 23.8607 1.95943 23.8054 1.98023Z" fill="#3762CC"/>
<path d="M23.8911 55.4534C23.7877 55.4534 23.6855 55.4204 23.6002 55.3573C23.4742 55.2639 23.3998 55.1156 23.3998 54.9581V7.03582C23.3998 6.87362 23.4786 6.72158 23.6106 6.62896C23.7427 6.53635 23.9115 6.51505 24.0624 6.57151L41.9031 13.2609C42.3816 13.4405 42.7032 13.9068 42.7032 14.4213V36.5155C42.7032 44.4277 36.1457 51.6097 25.997 54.8123L24.038 55.4306C23.9899 55.4459 23.9403 55.4534 23.8911 55.4534ZM24.3825 7.74849V54.2841L25.7032 53.8671C35.4333 50.7967 41.7203 43.9857 41.7203 36.5155V14.4216C41.7203 14.3186 41.6559 14.2255 41.5603 14.1896L24.3825 7.74849Z" fill="#3762CC"/>
<path d="M23.8911 55.4534C23.842 55.4534 23.7924 55.4459 23.7442 55.4308L21.7855 54.8125C11.6367 51.6099 5.07902 44.428 5.07902 36.5157V14.4216C5.07902 13.907 5.40061 13.4407 5.87918 13.2612L23.7199 6.57176C23.8707 6.5153 24.0393 6.5366 24.1717 6.62921C24.3038 6.72182 24.3825 6.87362 24.3825 7.03606V54.9584C24.3825 55.1158 24.308 55.2642 24.182 55.3575C24.0967 55.4204 23.9945 55.4534 23.8911 55.4534ZM23.3998 7.74849L6.22165 14.1896C6.12583 14.2255 6.06171 14.3186 6.06171 14.4216V36.5157C6.06171 43.9859 12.349 50.7967 22.079 53.8673L23.3995 54.2841L23.3998 7.74849Z" fill="#3762CC"/>
<path d="M23.8911 39.2193C28.7048 39.2193 32.6071 35.286 32.6071 30.434C32.6071 25.582 28.7048 21.6486 23.8911 21.6486C19.0774 21.6486 15.1752 25.582 15.1752 30.434C15.1752 35.286 19.0774 39.2193 23.8911 39.2193Z" fill="#E0EBFC"/>
<path d="M21.7501 35.4279C21.7078 35.4279 21.6651 35.4259 21.6226 35.422C21.2216 35.3836 20.8585 35.1671 20.632 34.8311L18.1854 31.1994C17.7663 30.5771 17.9269 29.7302 18.5441 29.3075C19.1619 28.8848 20.0019 29.047 20.421 29.6691L21.9498 31.9383L27.5236 26.3201C28.0513 25.7882 28.9068 25.7882 29.4345 26.3201C29.9622 26.852 29.9622 27.7143 29.4345 28.2462L22.7053 35.029C22.4507 35.2855 22.1066 35.4279 21.7501 35.4279Z" fill="#F9A7A7"/>
<path d="M23.8911 39.7146C18.8143 39.7146 14.6838 35.5512 14.6838 30.434C14.6838 25.3167 18.8143 21.1534 23.8911 21.1534C28.9679 21.1534 33.0984 25.3167 33.0984 30.434C33.0984 35.5512 28.9679 39.7146 23.8911 39.7146ZM23.8911 22.1441C19.3563 22.1441 15.6665 25.863 15.6665 30.4342C15.6665 35.0054 19.356 38.7243 23.8911 38.7243C28.4262 38.7243 32.1157 35.0054 32.1157 30.4342C32.1157 25.863 28.426 22.1441 23.8911 22.1441Z" fill="#3762CC"/>
<path d="M59.5087 44.0788V41.5607C59.5087 41.0998 59.1379 40.7262 58.6807 40.7262H55.0716C54.4581 40.7262 53.9609 40.225 53.9609 39.6066V33.8688C53.9609 31.7972 52.297 30.1173 50.2426 30.1131C49.6921 30.1118 49.241 30.5595 49.241 31.1147V34.1962C49.241 36.6552 48.2556 39.0101 46.5084 40.7262L42.136 43.6046C41.6933 43.8961 41.1759 44.0513 40.6472 44.0513H36.158V53.4827H40.6472C41.1759 53.4827 41.6933 53.638 42.136 53.9295L44.12 55.2355C45.6785 56.2614 47.5 56.8079 49.3614 56.8079H58.6807C59.1379 56.8079 59.5087 56.4342 59.5087 55.9734V53.4552C59.5087 53.0865 59.2121 52.7876 58.8463 52.7876C59.2121 52.7876 59.5087 52.4888 59.5087 52.12V49.435C59.5087 49.0663 59.2121 48.7674 58.8463 48.7674C59.2121 48.7674 59.5087 48.4685 59.5087 48.0998V45.4148C59.5087 45.046 59.2121 44.7472 58.8463 44.7472C59.2121 44.7467 59.5087 44.4475 59.5087 44.0788Z" fill="#F9CFCF"/>
<path d="M58.6805 57.3029H49.3614C47.3995 57.3029 45.494 56.7314 43.8512 55.65L41.8672 54.3437C41.5036 54.1043 41.0815 53.9777 40.6472 53.9777H36.158C35.8868 53.9777 35.6667 53.7559 35.6667 53.4825V44.0513C35.6667 43.7779 35.8868 43.5561 36.158 43.5561H40.6472C41.0815 43.5561 41.5033 43.4295 41.8674 43.1898L46.1994 40.3381C47.8208 38.7273 48.7497 36.4915 48.7497 34.1959V31.1145C48.7497 30.7153 48.9045 30.3401 49.1853 30.0573C49.4673 29.7738 49.8417 29.6178 50.2402 29.6178H50.2436C52.5642 29.6227 54.4522 31.5295 54.4522 33.8688V39.6066C54.4522 39.9508 54.7301 40.2309 55.0716 40.2309H58.6805C59.4079 40.2309 60 40.8274 60 41.5609V44.079C60 44.3272 59.9224 44.5577 59.7904 44.7467C59.9224 44.9358 60 45.1661 60 45.4143V48.0993C60 48.3474 59.9224 48.578 59.7904 48.7669C59.9224 48.9561 60 49.1864 60 49.4345V52.1195C60 52.3677 59.9224 52.5982 59.7904 52.7871C59.9224 52.9763 60 53.2066 60 53.4548V55.9729C60 56.7064 59.4082 57.3029 58.6805 57.3029ZM36.6494 52.9875H40.6472C41.2729 52.9875 41.8807 53.1697 42.4047 53.5147L44.3888 54.8207C45.8714 55.7966 47.5909 56.3124 49.3614 56.3124H58.6807C58.8665 56.3124 59.0176 56.1601 59.0176 55.9731V53.455C59.0176 53.3599 58.9407 53.2826 58.8466 53.2826C58.5753 53.2826 58.3552 53.0608 58.3552 52.7874C58.3552 52.514 58.5753 52.2921 58.8466 52.2921C58.9409 52.2921 59.0176 52.2146 59.0176 52.1198V49.4348C59.0176 49.3397 58.9407 49.2624 58.8466 49.2624C58.5753 49.2624 58.3552 49.0405 58.3552 48.7671C58.3552 48.4938 58.5753 48.2719 58.8466 48.2719C58.9409 48.2719 59.0176 48.1944 59.0176 48.0995V45.4145C59.0176 45.3194 58.9407 45.2422 58.8466 45.2422C58.5753 45.2422 58.3552 45.0203 58.3552 44.7469C58.3552 44.4735 58.5753 44.2516 58.8466 44.2516C58.9409 44.2516 59.0176 44.1741 59.0176 44.0793V41.5612C59.0176 41.374 58.8665 41.2217 58.6807 41.2217H55.0718C54.1884 41.2217 53.4698 40.4973 53.4698 39.6069V33.8691C53.4698 32.0748 52.0218 30.6123 50.2419 30.6086C50.2414 30.6086 50.2412 30.6086 50.2407 30.6086C50.1043 30.6086 49.9761 30.6618 49.8798 30.7589C49.785 30.8542 49.7326 30.9807 49.7326 31.115V34.1964C49.7326 36.7733 48.6826 39.2827 46.8516 41.081C46.8288 41.1033 46.804 41.1234 46.7774 41.1409L42.405 44.0196C41.8809 44.3646 41.2732 44.5468 40.6474 44.5468H36.6496V52.9875H36.6494Z" fill="#3762CC"/>
<path d="M58.8461 45.2419H55.6995C55.4283 45.2419 55.2082 45.02 55.2082 44.7467C55.2082 44.4733 55.4283 44.2514 55.6995 44.2514H58.8461C59.1173 44.2514 59.3374 44.4733 59.3374 44.7467C59.3374 45.02 59.1175 45.2419 58.8461 45.2419Z" fill="#3762CC"/>
<path d="M58.8461 49.2622H55.6995C55.4283 49.2622 55.2082 49.0403 55.2082 48.7669C55.2082 48.4935 55.4283 48.2716 55.6995 48.2716H58.8461C59.1173 48.2716 59.3374 48.4935 59.3374 48.7669C59.3374 49.0403 59.1175 49.2622 58.8461 49.2622Z" fill="#3762CC"/>
<path d="M58.8461 53.2826H55.6995C55.4283 53.2826 55.2082 53.0608 55.2082 52.7874C55.2082 52.514 55.4283 52.2921 55.6995 52.2921H58.8461C59.1173 52.2921 59.3374 52.514 59.3374 52.7874C59.3374 53.0608 59.1175 53.2826 58.8461 53.2826Z" fill="#3762CC"/>
<path d="M41.2751 56.514H36.1782C35.8089 56.514 35.5097 56.2123 35.5097 55.8402V41.8608C35.5097 41.4886 35.8089 41.187 36.1782 41.187H41.2751C41.6444 41.187 41.9436 41.4886 41.9436 41.8608V55.8402C41.9436 56.2123 41.6444 56.514 41.2751 56.514Z" fill="#E0EBFC"/>
<path d="M41.2751 57.0092H36.1782C35.5384 57.0092 35.0183 56.4847 35.0183 55.8402V41.8608C35.0183 41.216 35.5387 40.6917 36.1782 40.6917H41.2751C41.9149 40.6917 42.4349 41.2162 42.4349 41.8608V55.8402C42.4349 56.4847 41.9149 57.0092 41.2751 57.0092ZM36.1782 41.6823C36.0806 41.6823 36.001 41.7625 36.001 41.8608V55.8402C36.001 55.9385 36.0806 56.0187 36.1782 56.0187H41.2751C41.3727 56.0187 41.4522 55.9387 41.4522 55.8402V41.8608C41.4522 41.7625 41.3727 41.6823 41.2751 41.6823H36.1782Z" fill="#3762CC"/>
<path d="M38.4017 57.7553H33.6318C33.2284 57.7553 32.9011 57.4257 32.9011 57.0189V40.6821C32.9011 40.2755 33.2281 39.9456 33.6318 39.9456H38.4017C38.8051 39.9456 39.1324 40.2752 39.1324 40.6821V57.0189C39.1324 57.4255 38.8054 57.7553 38.4017 57.7553Z" fill="#A4C9FF"/>
<path d="M38.4017 58.2503H33.6318C32.9579 58.2503 32.4098 57.6979 32.4098 57.0186V40.6818C32.4098 40.0026 32.9579 39.4501 33.6318 39.4501H38.4017C39.0756 39.4501 39.6237 40.0026 39.6237 40.6818V57.0186C39.6237 57.6979 39.0756 58.2503 38.4017 58.2503ZM33.632 40.4409C33.5001 40.4409 33.3927 40.5491 33.3927 40.6821V57.0189C33.3927 57.1518 33.5001 57.2601 33.632 57.2601H38.402C38.5339 57.2601 38.6413 57.1518 38.6413 57.0189V40.6821C38.6413 40.5491 38.5339 40.4409 38.402 40.4409H33.632Z" fill="#3762CC"/>
</svg>
