<svg width="66" height="61" viewBox="0 0 66 61" fill="none" xmlns="http://www.w3.org/2000/svg">
<g clip-path="url(#clip0_289_1471)">
<path fill-rule="evenodd" clip-rule="evenodd" d="M51.971 15.3116L55.9034 11.3614L60.3671 15.8454L56.4348 19.7956C53.6715 19.3685 52.1836 17.7671 51.971 15.3116Z" fill="#F0F0F0"/>
<path fill-rule="evenodd" clip-rule="evenodd" d="M58.9855 14.3507L54.3092 19.0482C54.9469 19.3685 55.6908 19.582 56.5411 19.7956L60.4734 15.8454L58.9855 14.3507Z" fill="#DBDBDB"/>
<path fill-rule="evenodd" clip-rule="evenodd" d="M60.0483 16.2724L54.4155 10.6141C53.5652 9.75998 53.5652 8.37208 54.4155 7.51799C55.2657 6.66389 56.6473 6.66389 57.4976 7.51799L64.1932 14.244C65.0435 15.0981 65.0435 16.486 64.1932 17.3401C63.343 18.1941 61.9614 18.1941 61.1111 17.3401L60.0483 16.2724Z" fill="#A0E897"/>
<path fill-rule="evenodd" clip-rule="evenodd" d="M60.0483 16.2724L61.2174 17.4468C62.0676 18.3009 63.4493 18.3009 64.2995 17.4468C65.1498 16.5927 65.1498 15.2048 64.2995 14.3507L62.7053 12.8561C63.5556 13.7102 63.5556 15.0981 62.7053 15.9522C61.8551 16.8062 60.4734 16.8062 59.6232 15.9522L60.0483 16.2724Z" fill="#86DB7B"/>
<path fill-rule="evenodd" clip-rule="evenodd" d="M38.0483 10.5073C39.1111 10.5073 40.1739 10.6141 41.2367 10.7208V4.52866H34.8599V10.7208C35.9227 10.5073 36.9855 10.5073 38.0483 10.5073Z" fill="#F0F0F0"/>
<path fill-rule="evenodd" clip-rule="evenodd" d="M38.686 4.52866V10.5073C39.5362 10.5073 40.3865 10.6141 41.2367 10.7208V4.52866C40.3865 4.52866 39.5362 4.52866 38.686 4.52866Z" fill="#DBDBDB"/>
<path fill-rule="evenodd" clip-rule="evenodd" d="M41.7681 6.02333H43.5749C44.9565 6.02333 46.0193 4.95571 46.0193 3.56781C46.0193 2.17991 44.9565 1.11229 43.5749 1.11229H32.7343C31.3527 1.11229 30.2899 2.17991 30.2899 3.56781C30.2899 4.95571 31.3527 6.02333 32.7343 6.02333H41.7681Z" fill="#827A7A"/>
<path fill-rule="evenodd" clip-rule="evenodd" d="M41.7681 6.02333H43.5749C44.9565 6.02333 46.0193 4.95571 46.0193 3.56781C46.0193 2.17991 44.9565 1.11229 43.5749 1.11229H40.599C41.9807 1.11229 43.0435 2.17991 43.0435 3.56781C43.0435 4.95571 41.9807 6.02333 40.599 6.02333H41.7681Z" fill="#6E6565"/>
<path fill-rule="evenodd" clip-rule="evenodd" d="M62.2802 34.7422C62.2802 21.397 51.4396 10.5073 38.0483 10.5073C24.657 10.5073 13.8164 21.2902 13.8164 34.7422C13.8164 48.0874 24.657 58.9771 38.0483 58.9771C51.4396 58.9771 62.2802 48.0874 62.2802 34.7422Z" fill="#76A8FA"/>
<path fill-rule="evenodd" clip-rule="evenodd" d="M56.4348 34.7422C56.4348 24.5998 48.2512 16.2724 38.0483 16.2724C27.8454 16.2724 19.6618 24.4931 19.6618 34.7422C19.6618 44.9913 27.8454 53.2119 38.0483 53.2119C48.2512 53.2119 56.4348 44.8845 56.4348 34.7422Z" fill="#BDE0FE"/>
<path fill-rule="evenodd" clip-rule="evenodd" d="M19.7681 34.7422C19.7681 41.5749 23.3816 47.4468 28.9082 50.6497L32.4155 44.4575C29.0145 42.5358 26.6763 38.7991 26.6763 34.6354C26.6763 31.7529 27.7391 29.0838 29.5459 27.0554L24.2319 22.3578C21.4686 25.6675 19.7681 29.9379 19.7681 34.7422Z" fill="#F55C7A"/>
<path fill-rule="evenodd" clip-rule="evenodd" d="M29.6522 27.1621C31.7778 24.9201 34.8599 23.4255 38.1546 23.4255C41.5556 23.4255 44.6377 24.8134 46.657 27.1621L51.8647 22.4646C48.4638 18.6212 43.5749 16.2724 38.0483 16.2724C34.3285 16.2724 30.9275 17.3401 28.058 19.2618C26.6763 20.1159 25.5072 21.1835 24.4444 22.4646L29.6522 27.1621Z" fill="#FFD670"/>
<path fill-rule="evenodd" clip-rule="evenodd" d="M46.657 27.1621C48.4638 29.1906 49.5266 31.7529 49.5266 34.7422C49.5266 38.9059 47.1884 42.6425 43.7874 44.5643L47.2947 50.6497C52.715 47.4468 56.3285 41.5749 56.3285 34.7422C56.3285 30.0447 54.628 25.7742 51.7585 22.5714L46.657 27.1621Z" fill="#A0E897"/>
<path fill-rule="evenodd" clip-rule="evenodd" d="M36.3478 10.5073C48.8889 11.4682 58.7729 21.9308 58.7729 34.7422C58.7729 47.5536 48.8889 58.0162 36.3478 58.9771C36.9855 58.9771 37.5169 59.0838 38.1546 59.0838C51.5459 59.0838 62.3865 48.1941 62.3865 34.8489C62.3865 21.5038 51.5459 10.6141 38.1546 10.6141C37.5169 10.5073 36.8792 10.5073 36.3478 10.5073Z" fill="#5694F7"/>
<path fill-rule="evenodd" clip-rule="evenodd" d="M40.9179 34.7422C40.9179 33.1408 39.6425 31.8596 38.0483 31.8596C36.4541 31.8596 35.1787 33.1408 35.1787 34.7422C35.1787 36.3436 36.4541 37.6247 38.0483 37.6247C39.6425 37.6247 40.9179 36.3436 40.9179 34.7422Z" fill="#F55C7A"/>
<path fill-rule="evenodd" clip-rule="evenodd" d="M35.1787 17.4468C41.0242 17.4468 46.1256 20.3294 49.314 24.8134L51.8647 22.5714C48.4638 18.728 43.5749 16.3792 38.0483 16.3792C34.8599 16.3792 31.9903 17.1265 29.3333 18.5144C31.2464 17.7671 33.1594 17.4468 35.1787 17.4468Z" fill="#FFC942"/>
<path fill-rule="evenodd" clip-rule="evenodd" d="M46.0193 48.1941C43.0435 50.5429 39.3237 52.0376 35.285 52.0376C33.2657 52.0376 31.2464 51.7173 29.4396 51.0767C31.9903 52.4646 34.9662 53.2119 38.1546 53.2119C41.5556 53.2119 44.744 52.2511 47.5072 50.6497L48.57 48.9415L46.0193 48.1941Z" fill="#A2D2FF"/>
<path fill-rule="evenodd" clip-rule="evenodd" d="M49.314 24.8134C51.3333 27.5892 52.3961 31.0055 52.3961 34.7422C52.3961 40.187 49.8454 45.0981 45.913 48.1941L47.2947 50.6497C52.715 47.4468 56.3285 41.5749 56.3285 34.7422C56.3285 30.0447 54.628 25.7742 51.7585 22.5714L49.314 24.8134Z" fill="#86DB7B"/>
<path d="M45.2754 35.8098C45.913 35.8098 46.3382 35.3828 46.3382 34.7422C46.3382 34.1016 45.913 33.6746 45.2754 33.6746H41.8744C41.4493 32.0732 39.9614 30.792 38.1546 30.792C36.029 30.792 34.2222 32.607 34.2222 34.7422C34.2222 36.8774 36.029 38.6924 38.1546 38.6924C39.9614 38.6924 41.4493 37.518 41.8744 35.8098H45.2754ZM38.0483 36.5571C37.0918 36.5571 36.2415 35.703 36.2415 34.7422C36.2415 33.7813 37.0918 32.9272 38.0483 32.9272C39.0048 32.9272 39.8551 33.7813 39.8551 34.7422C39.8551 35.703 39.1111 36.5571 38.0483 36.5571Z" fill="black"/>
<path d="M38.0483 15.2048C27.314 15.2048 18.599 23.9593 18.599 34.7422C18.599 45.5251 27.314 54.2796 38.0483 54.2796C48.7826 54.2796 57.4976 45.5251 57.4976 34.7422C57.4976 23.9593 48.7826 15.2048 38.0483 15.2048ZM38.0483 17.3401C42.8309 17.3401 47.1884 19.2618 50.2705 22.4646L46.657 25.6675C44.4251 23.5322 41.4493 22.3578 38.0483 22.3578C34.9662 22.3578 31.8841 23.5322 29.5459 25.7742L25.8261 22.4646C29.0145 19.2618 33.372 17.3401 38.0483 17.3401ZM20.7246 34.7422C20.7246 30.6852 22.1063 26.9486 24.4444 23.9593L28.1643 27.2689C26.57 29.4041 25.6135 31.9664 25.6135 34.7422C25.6135 38.7991 27.6329 42.6425 30.9275 44.8845L28.4831 49.155C23.8068 46.0589 20.7246 40.8276 20.7246 34.7422ZM38.0483 52.1443C35.285 52.1443 32.7343 51.5038 30.3961 50.3294L33.372 45.0981C33.4783 44.8845 33.5845 44.5643 33.4783 44.244C33.372 43.9237 33.2657 43.7102 32.9469 43.6034C29.7585 41.7885 27.7391 38.3721 27.7391 34.7422C27.7391 32.1799 28.6957 29.8312 30.3961 27.9094C32.5217 25.6675 35.285 24.4931 38.1546 24.4931C41.2367 24.4931 44 25.6675 45.8068 27.9094C47.5072 29.8312 48.4638 32.1799 48.4638 34.7422C48.4638 38.3721 46.4444 41.7885 43.256 43.6034C43.0435 43.7102 42.8309 44.0304 42.7246 44.244C42.6184 44.5643 42.7246 44.7778 42.8309 45.0981L45.8068 50.2226C43.5749 51.397 40.9179 52.1443 38.0483 52.1443ZM47.7198 49.155L45.2754 44.8845C48.57 42.5358 50.5894 38.7991 50.5894 34.7422C50.5894 31.9664 49.7391 29.5109 48.0387 27.2689L51.6522 24.066C53.9903 27.0554 55.372 30.6852 55.372 34.7422C55.372 40.7208 52.3961 45.9522 47.7198 49.155Z" fill="black"/>
<path d="M60.3671 18.1941C61.0048 18.8347 61.8551 19.155 62.7053 19.155C63.5556 19.155 64.4058 18.8347 65.0435 18.1941C65.6812 17.5536 66 16.8062 66 15.9522C66 15.0981 65.6812 14.244 65.0435 13.7102L58.3478 6.98418C57.0725 5.70304 55.0531 5.70304 53.7778 6.98418C53.1401 7.62475 52.8213 8.37208 52.8213 9.22617C52.8213 10.0803 53.1401 10.9344 53.7778 11.4682L54.0966 11.7885L52.0773 13.7102C49.2077 11.7885 45.913 10.4006 42.2995 9.75998V7.09094H43.5749C45.4879 7.09094 47.0821 5.48952 47.0821 3.56781C47.0821 1.6461 45.4879 0.0446777 43.5749 0.0446777H32.7343C30.8213 0.0446777 29.2271 1.6461 29.2271 3.56781C29.2271 5.48952 30.8213 7.09094 32.7343 7.09094H33.9034V9.75998C31.9903 10.0803 30.1836 10.6141 28.3768 11.3614H11.0531C10.4155 11.3614 9.99034 11.7885 9.99034 12.429C9.99034 13.0696 10.4155 13.4966 11.0531 13.4966H24.3382C20.8309 15.7386 17.9614 18.8347 15.942 22.4646H5.52657C4.88889 22.4646 4.46377 22.8917 4.46377 23.5322C4.46377 24.1728 4.88889 24.5998 5.52657 24.5998H14.9855C13.7101 27.3756 13.0725 30.4717 12.8599 33.6746H1.0628C0.425121 33.6746 0 34.1016 0 34.7422C0 35.3828 0.425121 35.8098 1.0628 35.8098H12.8599C12.9662 39.0127 13.7101 42.002 14.8792 44.7778H5.52657C4.88889 44.7778 4.46377 45.2048 4.46377 45.8454C4.46377 46.486 4.88889 46.913 5.52657 46.913H15.942C17.9614 50.5429 20.8309 53.7457 24.3382 55.9877H11.0531C10.4155 55.9877 9.99034 56.4148 9.99034 57.0554C9.99034 57.6959 10.4155 58.123 11.0531 58.123H28.3768C31.3527 59.4041 34.6473 60.0447 38.0483 60.0447C51.971 60.0447 63.343 48.728 63.343 34.7422C63.343 29.0838 61.43 23.7457 58.2415 19.582L59.942 17.8739L60.3671 18.1941ZM55.1594 8.37208C55.372 8.15856 55.6908 8.0518 55.9034 8.0518C56.2222 8.0518 56.4348 8.15856 56.6473 8.37208L63.343 15.0981C63.5556 15.3116 63.6618 15.6319 63.6618 15.8454C63.6618 16.1657 63.5556 16.3792 63.343 16.5927C62.9179 17.0198 62.1739 17.0198 61.7488 16.5927L55.0531 9.86674C54.8406 9.65322 54.7343 9.33293 54.7343 9.11941C54.7343 8.90589 54.9469 8.5856 55.1594 8.37208ZM32.7343 4.95571C31.9903 4.95571 31.3527 4.31514 31.3527 3.56781C31.3527 2.82048 31.9903 2.17991 32.7343 2.17991H43.5749C44.3188 2.17991 44.9565 2.82048 44.9565 3.56781C44.9565 4.31514 44.3188 4.95571 43.5749 4.95571H32.7343ZM40.2802 7.09094V9.4397C39.5362 9.33293 38.8986 9.33294 38.1546 9.33294C37.4106 9.33294 36.7729 9.33293 36.1353 9.4397V7.09094H40.2802ZM61.2174 34.7422C61.2174 47.5536 50.8019 57.9094 38.0483 57.9094C25.2947 57.9094 14.8792 47.5536 14.8792 34.7422C14.8792 21.9308 25.2947 11.5749 38.0483 11.5749C50.8019 11.5749 61.2174 21.9308 61.2174 34.7422ZM56.9662 17.8739C56.0097 16.8062 55.0531 15.8454 53.8841 14.9913L55.5845 13.2831L58.5604 16.2724L56.9662 17.8739Z" fill="black"/>
</g>
<defs>
<clipPath id="clip0_289_1471">
<rect width="66" height="60" fill="white" transform="translate(0 0.0446777)"/>
</clipPath>
</defs>
</svg>
