<svg width="51" height="61" viewBox="0 0 51 61" fill="none" xmlns="http://www.w3.org/2000/svg">
<path d="M13.5935 38.7512C9.78137 35.2105 7.40223 30.1828 7.40928 24.6057C7.42253 13.992 16.1901 5.29972 26.9392 5.24548C30.9691 5.2252 34.7187 6.40396 37.8439 8.44132L35.5432 10.713H42.7046V3.64192L40.5169 5.80204C36.7617 3.17656 32.1879 1.61717 27.2464 1.57517C14.3403 1.46561 3.85577 11.5902 3.69328 24.333C3.61926 30.1357 5.71778 35.4522 9.23483 39.5425C10.2707 39.0035 11.4498 38.697 12.7021 38.697C13.0039 38.697 13.301 38.7168 13.5935 38.7512Z" fill="#83E1E5"/>
<path d="M22.7371 26.0158C23.5122 26.0158 24.1405 25.3953 24.1405 24.63V18.031C24.1405 17.2656 23.5121 16.6452 22.7371 16.6452H16.0537C15.2786 16.6452 14.6502 17.2657 14.6502 18.031C14.6502 18.7962 15.2787 19.4167 16.0537 19.4167H21.3336V23.2441H16.0537C15.2786 23.2441 14.6502 23.8647 14.6502 24.6299V31.2289C14.6502 31.9943 15.2787 32.6147 16.0537 32.6147H22.7371C23.5122 32.6147 24.1405 31.9942 24.1405 31.2289C24.1405 30.4636 23.5121 29.8432 22.7371 29.8432H17.4572V26.0158H22.7371Z" fill="#EC6C3C"/>
<path d="M38.0297 23.2443H36.9503V18.0769C36.9503 17.314 36.3458 16.6594 35.5731 16.6455C34.7859 16.6312 34.1432 17.257 34.1432 18.031V23.2443H30.2669V18.0769C30.2669 17.314 29.6624 16.6594 28.8897 16.6455C28.1025 16.6312 27.4599 17.257 27.4599 18.031V24.63C27.4599 25.3954 28.0882 26.0158 28.8633 26.0158H34.1432V31.1831C34.1432 31.946 34.7477 32.6006 35.5204 32.6146C36.3076 32.6288 36.9503 32.003 36.9503 31.229V26.0158H38.0297C38.8049 26.0158 39.4332 25.3954 39.4332 24.63C39.4332 23.8647 38.8049 23.2443 38.0297 23.2443Z" fill="#EC6C3C"/>
<path d="M17.5189 51.8942H17.2252C19.0032 50.5501 20.151 48.4338 20.151 46.0519C20.151 41.9899 16.816 38.697 12.7021 38.697C8.58816 38.697 5.25316 41.9899 5.25316 46.0519C5.25316 48.4338 6.40092 50.55 8.17895 51.8942H7.88521C4.27834 51.8942 1.35437 54.7813 1.35437 58.3426V60.3742H24.05V58.3426C24.0497 54.7813 21.1258 51.8942 17.5189 51.8942Z" fill="#EC6C3C"/>
<path d="M12.3415 49.9141H14.7964C14.9908 49.9141 15.1484 49.7586 15.1484 49.5666V48.3349C15.1484 48.143 14.9909 47.9874 14.7964 47.9874H12.3415C12.1471 47.9874 11.9895 48.1429 11.9895 48.3349V49.5666C11.9895 49.7585 12.147 49.9141 12.3415 49.9141Z" fill="#AAB1BA"/>
<path d="M6.28012 42.3263H3.14455C2.5567 42.3263 2.08017 42.7968 2.08017 43.3772V47.8998C2.08017 48.4802 2.5567 48.9507 3.14455 48.9507H5.85487C5.46803 48.0611 5.25304 47.0814 5.25304 46.0518C5.25304 44.6919 5.62833 43.4191 6.28012 42.3263Z" fill="#AAB1BA"/>
<path d="M22.2593 42.3263H19.1238C19.7755 43.4191 20.1508 44.6919 20.1508 46.0519C20.1508 47.0814 19.9358 48.0612 19.549 48.9509H22.2593C22.8472 48.9509 23.3237 48.4803 23.3237 47.8999V43.3773C23.3237 42.7968 22.8472 42.3263 22.2593 42.3263Z" fill="#AAB1BA"/>
<path d="M48.2664 15.0131C47.9676 14.3716 47.3124 13.9653 46.5973 13.9653H46.5617C45.2113 13.9653 44.3316 15.3469 44.8949 16.5589C46.0503 19.0451 46.6891 21.8139 46.6739 24.7319C46.6186 35.3489 37.8094 44.0071 27.0566 44.015C25.78 44.016 24.5324 43.8951 23.3237 43.666V47.3935C24.6214 47.5989 25.9545 47.6996 27.3146 47.6843C40.2755 47.5381 50.541 37.1549 50.3904 24.3576C50.3513 21.0245 49.5936 17.8627 48.2664 15.0131Z" fill="#83E1E5"/>
<path d="M0.355728 36.2052C0.355728 35.8738 0.627842 35.6052 0.963395 35.6052H1.47238V35.1026C1.47238 34.7712 1.74449 34.5026 2.08004 34.5026C2.4156 34.5026 2.68771 34.7712 2.68771 35.1026V35.6052H3.19681C3.53237 35.6052 3.80448 35.8738 3.80448 36.2052C3.80448 36.5366 3.53237 36.8052 3.19681 36.8052H2.68771V37.3078C2.68771 37.6392 2.4156 37.9078 2.08004 37.9078C1.74449 37.9078 1.47238 37.6392 1.47238 37.3078V36.8052H0.963395C0.627842 36.8052 0.355728 36.5366 0.355728 36.2052ZM29.5033 52.8068H28.9942V52.3041C28.9942 51.9727 28.7221 51.7041 28.3865 51.7041C28.051 51.7041 27.7789 51.9727 27.7789 52.3041V52.8068H27.2699C26.9343 52.8068 26.6622 53.0754 26.6622 53.4068C26.6622 53.7383 26.9343 54.0068 27.2699 54.0068H27.7789V54.5094C27.7789 54.8408 28.051 55.1094 28.3865 55.1094C28.7221 55.1094 28.9942 54.8408 28.9942 54.5094V54.0068H29.5033C29.8389 54.0068 30.111 53.7383 30.111 53.4068C30.111 53.0754 29.8389 52.8068 29.5033 52.8068ZM45.1123 9.51579H45.6213V10.0184C45.6213 10.3498 45.8934 10.6184 46.229 10.6184C46.5645 10.6184 46.8366 10.3498 46.8366 10.0184V9.51579H47.3456C47.6812 9.51579 47.9533 9.24724 47.9533 8.9158C47.9533 8.58436 47.6812 8.3158 47.3456 8.3158H46.8366V7.81312C46.8366 7.48168 46.5645 7.21312 46.229 7.21312C45.8934 7.21312 45.6213 7.48168 45.6213 7.81312V8.31568H45.1123C44.7768 8.31568 44.5047 8.58424 44.5047 8.91568C44.5047 9.24712 44.7768 9.51579 45.1123 9.51579ZM18.0648 26.6159V29.2433H22.7371C23.8461 29.2433 24.7482 30.1342 24.7482 31.2292C24.7482 32.3242 23.8461 33.2149 22.7371 33.2149H16.0537C14.9447 33.2149 14.0426 32.3242 14.0426 31.2292V24.6301C14.0426 23.5351 14.9447 22.6444 16.0537 22.6444H20.7259V20.0169H16.0537C14.9447 20.0169 14.0426 19.126 14.0426 18.031C14.0426 16.936 14.9447 16.0452 16.0537 16.0452H22.7371C23.8461 16.0452 24.7482 16.936 24.7482 18.031V24.63C24.7482 25.725 23.8461 26.6159 22.7371 26.6159H18.0648ZM16.8495 29.8432V26.0159C16.8495 25.6845 17.1216 25.4159 17.4572 25.4159H22.7371C23.1759 25.4159 23.5329 25.0633 23.5329 24.63V18.031C23.5329 17.5978 23.1758 17.2452 22.7371 17.2452H16.0537C15.615 17.2452 15.2579 17.5978 15.2579 18.031C15.2579 18.4643 15.615 18.8169 16.0537 18.8169H21.3336C21.6692 18.8169 21.9413 19.0854 21.9413 19.4169V23.2444C21.9413 23.5758 21.6692 23.8444 21.3336 23.8444H16.0537C15.615 23.8444 15.2579 24.1969 15.2579 24.6301V31.2292C15.2579 31.6624 15.615 32.0149 16.0537 32.0149H22.7371C23.1759 32.0149 23.5329 31.6624 23.5329 31.2292C23.5329 30.7958 23.1758 30.4433 22.7371 30.4433H17.4572C17.1216 30.4432 16.8495 30.1746 16.8495 29.8432ZM33.5357 31.1831V26.6159H28.8634C27.7544 26.6159 26.8523 25.725 26.8523 24.63V18.031C26.8523 17.4936 27.0662 16.9905 27.4546 16.6139C27.8429 16.2373 28.3593 16.0374 28.901 16.0456C29.9893 16.0651 30.8747 16.9765 30.8747 18.0771V22.6444H33.5358V18.0311C33.5358 17.4937 33.7497 16.9906 34.1381 16.614C34.5264 16.2375 35.042 16.0375 35.5845 16.0457C36.6728 16.0653 37.5582 16.9767 37.5582 18.0772V22.6445H38.0299C39.1388 22.6445 40.041 23.5353 40.041 24.6303C40.041 25.7253 39.1388 26.6161 38.0299 26.6161H37.5582V31.2293C37.5582 31.7666 37.3443 32.2699 36.9559 32.6464C36.5767 33.0139 36.0779 33.215 35.5477 33.215C35.535 33.215 35.5223 33.2149 35.5095 33.2147C34.421 33.1949 33.5357 32.2835 33.5357 31.1831ZM34.1433 25.4159C34.4789 25.4159 34.751 25.6845 34.751 26.0159V31.1832C34.751 31.6339 35.1011 32.007 35.5316 32.0148C35.7479 32.0192 35.9508 31.9388 36.1044 31.7899C36.2581 31.641 36.3427 31.4418 36.3427 31.2292V26.0159C36.3427 25.6845 36.6148 25.4159 36.9504 25.4159H38.0297C38.4686 25.4159 38.8255 25.0633 38.8255 24.63C38.8255 24.1968 38.4685 23.8443 38.0297 23.8443H36.9504C36.6148 23.8443 36.3427 23.5757 36.3427 23.2443V18.0769C36.3427 17.6261 35.9926 17.253 35.5621 17.2452C35.3454 17.242 35.1429 17.3213 34.9895 17.4701C34.8357 17.6191 34.7511 17.8182 34.7511 18.0309V23.2441C34.7511 23.5756 34.479 23.8441 34.1435 23.8441H30.267C29.9315 23.8441 29.6594 23.5756 29.6594 23.2441V18.0768C29.6594 17.626 29.3092 17.2529 28.8788 17.2451C28.8737 17.245 28.8687 17.245 28.8636 17.245C28.6534 17.245 28.4559 17.3245 28.306 17.47C28.1522 17.619 28.0676 17.8181 28.0676 18.0307V24.6298C28.0676 25.0631 28.4247 25.4157 28.8634 25.4157H34.1433V25.4159ZM6.73064 55.8843C6.39509 55.8843 6.12297 56.1529 6.12297 56.4843V60.3742C6.12297 60.7057 6.39509 60.9742 6.73064 60.9742C7.06619 60.9742 7.33831 60.7057 7.33831 60.3742V56.4843C7.33831 56.1529 7.06619 55.8843 6.73064 55.8843ZM18.6734 55.8843C18.3378 55.8843 18.0657 56.1529 18.0657 56.4843V60.3742C18.0657 60.7057 18.3378 60.9742 18.6734 60.9742C19.0089 60.9742 19.281 60.7057 19.281 60.3742V56.4843C19.281 56.1529 19.0089 55.8843 18.6734 55.8843ZM25.4039 45.6385C25.4039 45.9699 25.1318 46.2385 24.7962 46.2385H23.9314V47.8999C23.9314 48.8102 23.1813 49.5509 22.2593 49.5509H19.9351C19.6011 50.2213 19.175 50.8393 18.672 51.3876C22.0616 51.9337 24.6573 54.8438 24.6573 58.3426V60.3742C24.6573 60.7057 24.3852 60.9742 24.0496 60.9742C23.7141 60.9742 23.442 60.7057 23.442 60.3742V58.3425C23.442 55.1178 20.7849 52.4942 17.5188 52.4942H17.4199C16.0926 53.4445 14.463 54.0068 12.7018 54.0068C10.9407 54.0068 9.31104 53.4444 7.98377 52.4942H7.88484C4.61875 52.4942 1.96167 55.1178 1.96167 58.3425V60.3742C1.96167 60.7057 1.68956 60.9742 1.354 60.9742C1.01845 60.9742 0.746337 60.7057 0.746337 60.3742V58.3425C0.746337 54.8438 3.34205 51.9336 6.73161 51.3875C6.22858 50.8392 5.80261 50.2212 5.46852 49.5507H3.14455C2.2226 49.5507 1.4725 48.8101 1.4725 47.8998V46.2384H0.607667C0.272113 46.2384 0 45.9698 0 45.6384C0 45.3069 0.272113 45.0384 0.607667 45.0384H1.4725V43.3771C1.4725 42.4926 2.18104 41.7706 3.06677 41.73C4.78295 37.9958 8.52131 35.6051 12.7019 35.6051C16.8827 35.6051 20.6211 37.9958 22.3372 41.73C23.223 41.7706 23.9315 42.4926 23.9315 43.3771V45.0384H24.7963C25.1318 45.0385 25.4039 45.3071 25.4039 45.6385ZM4.42333 41.7263H5.9459C7.384 39.5441 9.87422 38.097 12.7019 38.097C15.5297 38.097 18.02 39.5441 19.4581 41.7263H20.9808C19.3685 38.71 16.2121 36.8052 12.7021 36.8052C9.19205 36.8052 6.03559 38.7097 4.42333 41.7263ZM4.98967 48.3509C4.76654 47.6226 4.64537 46.8511 4.64537 46.0519C4.64537 44.9427 4.87713 43.8864 5.29424 42.9263H3.14455C2.89274 42.9263 2.68783 43.1287 2.68783 43.3773V45.0386H3.01549C3.35104 45.0386 3.62315 45.3072 3.62315 45.6386C3.62315 45.9701 3.35104 46.2386 3.01549 46.2386H2.68783V47.9C2.68783 48.1487 2.89274 48.351 3.14455 48.351H4.98967V48.3509ZM12.7019 52.8068C15.1779 52.8068 17.351 51.5012 18.5521 49.5507H15.7561V49.5666C15.7561 50.0891 15.3256 50.5141 14.7964 50.5141H12.3415C11.8123 50.5141 11.3818 50.0891 11.3818 49.5666V48.3349C11.3818 47.8124 11.8123 47.3874 12.3415 47.3874H14.7964C15.3256 47.3874 15.7561 47.8124 15.7561 48.3349V48.3507H19.1348C19.3988 47.6328 19.5433 46.8587 19.5433 46.0518C19.5433 42.3271 16.4743 39.2969 12.7019 39.2969C8.92954 39.2969 5.8607 42.3271 5.8607 46.0518C5.8607 49.7765 8.92966 52.8068 12.7019 52.8068ZM14.5406 48.5874H12.5972V49.3141H14.5406V48.5874ZM22.716 46.2385H22.3884C22.0528 46.2385 21.7807 45.9699 21.7807 45.6385C21.7807 45.3071 22.0528 45.0385 22.3884 45.0385H22.716V43.3772C22.716 43.1286 22.5111 42.9261 22.2593 42.9261H21.9374C21.937 42.9261 21.9365 42.9263 21.9362 42.9263C21.9357 42.9263 21.9351 42.9261 21.9346 42.9261H20.1096C20.5267 43.8861 20.7585 44.9426 20.7585 46.0518C20.7585 46.851 20.6372 47.6225 20.4141 48.3507H22.2593C22.5111 48.3507 22.716 48.1484 22.716 47.8998V46.2385ZM6.60582 36.3894C6.70548 36.3894 6.8066 36.3652 6.89994 36.314C7.19344 36.1534 7.29954 35.7882 7.1368 35.4984C5.23177 32.1053 4.25124 28.2469 4.30107 24.3405C4.45724 12.0771 14.6399 2.17432 27.0432 2.17432C27.1087 2.17432 27.1756 2.17456 27.2412 2.17516C31.9013 2.21476 36.3706 3.6382 40.1657 6.29176C40.4072 6.46048 40.7371 6.43312 40.9465 6.22624L42.0968 5.09044V10.1129H37.0102L38.2737 8.8654C38.4027 8.73796 38.4669 8.56 38.4485 8.38072C38.4302 8.20144 38.3311 8.0398 38.1787 7.94044C34.8699 5.78344 31.0213 4.64512 27.0412 4.64512C27.0063 4.64512 26.9709 4.64524 26.9362 4.64536C25.4815 4.6528 24.0291 4.81528 22.6191 5.12848C22.2917 5.2012 22.0859 5.5222 22.1597 5.8456C22.2333 6.16876 22.5582 6.37216 22.8859 6.2992C24.2105 6.00496 25.5755 5.8522 26.9425 5.84536C26.9754 5.84524 27.0084 5.84512 27.0413 5.84512C30.5316 5.84512 33.9146 6.77644 36.8773 8.54728L35.1134 10.2887C34.9396 10.4603 34.8876 10.7183 34.9817 10.9425C35.0757 11.1668 35.2973 11.3129 35.5432 11.3129H42.7046C43.0402 11.3129 43.3123 11.0444 43.3123 10.7129V3.6418C43.3123 3.39916 43.1643 3.18028 42.9372 3.08752C42.7101 2.99452 42.4488 3.04588 42.275 3.2176L40.4459 5.0236C36.5399 2.41348 31.9894 1.01549 27.2519 0.975166C20.8514 0.920326 14.815 3.31108 10.266 7.7056C5.71632 12.1008 3.16631 18.0031 3.08573 24.3255C3.03323 28.4401 4.06651 32.5049 6.07375 36.0802C6.18471 36.2778 6.39205 36.3894 6.60582 36.3894ZM20.14 7.08808C20.2114 7.08808 20.284 7.0756 20.3548 7.0492C20.493 6.9976 20.6317 6.94756 20.7715 6.89908C21.0881 6.78916 21.2545 6.44656 21.1432 6.13396C21.0318 5.82148 20.6851 5.65684 20.3683 5.767C20.2197 5.8186 20.072 5.87188 19.9251 5.92672C19.6112 6.04396 19.453 6.39004 19.5716 6.7C19.6635 6.94024 19.8945 7.08808 20.14 7.08808ZM17.8529 8.1964C18.1463 8.03536 18.2518 7.67008 18.0887 7.3804C17.9256 7.09084 17.5556 6.98656 17.2622 7.1476C10.8188 10.6847 6.81037 17.374 6.80149 24.6051C6.79712 28.061 7.70096 31.4683 9.41519 34.4585C9.527 34.6535 9.73276 34.763 9.94447 34.763C10.0458 34.763 10.1488 34.738 10.2432 34.6852C10.5352 34.522 10.6381 34.1558 10.4727 33.8675C8.86185 31.0577 8.01257 27.8552 8.0167 24.6065C8.02533 17.8102 11.7943 11.5222 17.8529 8.1964ZM48.8185 14.7622C48.4231 13.9135 47.5513 13.3651 46.5975 13.3651H46.562C45.7253 13.3651 44.9566 13.7795 44.5058 14.4737C44.0501 15.1751 43.9892 16.0481 44.3429 16.8089C45.501 19.3008 46.081 21.9654 46.0666 24.7285C46.0133 34.9762 37.5252 43.3583 27.1453 43.4135C26.8098 43.4153 26.5391 43.6854 26.5409 44.0167C26.5428 44.3469 26.8144 44.6135 27.1486 44.6135H27.1519C38.1949 44.5548 47.2252 35.6371 47.2819 24.7347C47.2973 21.7954 46.68 18.9604 45.4475 16.3085C45.2674 15.921 45.2978 15.4771 45.5288 15.1215C45.7585 14.7679 46.1352 14.565 46.5621 14.565H46.5976C47.0785 14.565 47.5169 14.8392 47.7145 15.2634C49.0496 18.1303 49.7457 21.1923 49.783 24.3641C49.8538 30.3941 47.5639 36.0697 43.3348 40.3457C39.1051 44.6221 33.4133 47.0151 27.3078 47.0839C26.9723 47.0877 26.7033 47.3594 26.7072 47.6907C26.711 48.0198 26.9824 48.2839 27.3147 48.2839H27.3218C33.752 48.2114 39.7477 45.69 44.2044 41.184C48.6603 36.6788 51.0731 30.7006 50.9983 24.3502C50.9587 21.0091 50.2254 17.7832 48.8185 14.7622ZM27.0418 41.4313C27.3773 41.4313 27.6494 41.1628 27.6494 40.8313V39.8573C27.6494 39.5258 27.3773 39.2573 27.0418 39.2573C26.7062 39.2573 26.4341 39.5258 26.4341 39.8573V40.8313C26.4341 41.1626 26.7061 41.4313 27.0418 41.4313ZM27.6494 9.40275V8.42872C27.6494 8.09728 27.3773 7.82872 27.0418 7.82872C26.7062 7.82872 26.4341 8.09728 26.4341 8.42872V9.40275C26.4341 9.73419 26.7062 10.0028 27.0418 10.0028C27.3773 10.0028 27.6494 9.73419 27.6494 9.40275ZM10.6334 24.03C10.2979 24.03 10.0258 24.2986 10.0258 24.63C10.0258 24.9615 10.2979 25.23 10.6334 25.23H11.6199C11.9555 25.23 12.2276 24.9615 12.2276 24.63C12.2276 24.2986 11.9555 24.03 11.6199 24.03H10.6334ZM41.8558 24.63C41.8558 24.9615 42.128 25.23 42.4635 25.23H43.4501C43.7857 25.23 44.0578 24.9615 44.0578 24.63C44.0578 24.2986 43.7857 24.03 43.4501 24.03H42.4635C42.1278 24.03 41.8558 24.2986 41.8558 24.63Z" fill="#1C1D21"/>
</svg>
