<svg width="63" height="61" viewBox="0 0 63 61" fill="none" xmlns="http://www.w3.org/2000/svg">
<path fill-rule="evenodd" clip-rule="evenodd" d="M46.2823 34.7903H55.7911C56.0873 34.7903 56.354 34.9174 56.5405 35.1201L61.2762 39.6146L59.8814 41.1054L55.3892 36.8422H46.2822L46.2823 34.7903ZM16.7177 25.1798H7.20878C6.91253 25.1798 6.64586 25.0527 6.45941 24.8499L1.7237 20.3553L3.1185 18.8645L7.61063 23.1279H16.7177V25.1798ZM16.7177 31.0109H2.42116V28.959H16.7177V31.0109ZM16.7177 36.8422H7.61063L3.1185 41.1054L1.7237 39.6146L6.45941 35.1201C6.64586 34.9174 6.91253 34.7903 7.20878 34.7903H16.7176L16.7177 36.8422ZM46.2823 23.1279H55.3894L59.8815 18.8645L61.2763 20.3553L56.5406 24.8499C56.3543 25.0527 56.0875 25.1798 55.7912 25.1798H46.2824V23.1279H46.2823ZM46.2823 28.959H60.5788V31.0109H46.2823V28.959Z" fill="#B4D2D7"/>
<path fill-rule="evenodd" clip-rule="evenodd" d="M63 19.61C63 20.9546 61.916 22.0447 60.5788 22.0447C59.2417 22.0447 58.1577 20.9546 58.1577 19.61C58.1577 18.2653 59.2417 17.1753 60.5788 17.1753C61.916 17.1753 63 18.2653 63 19.61ZM0 19.61C0 20.9546 1.08401 22.0447 2.42116 22.0447C3.75832 22.0447 4.84233 20.9546 4.84233 19.61C4.84233 18.2653 3.75832 17.1753 2.42116 17.1753C1.08401 17.1753 0 18.2653 0 19.61ZM0 29.985C0 31.3296 1.08401 32.4197 2.42116 32.4197C3.75832 32.4197 4.84233 31.3296 4.84233 29.985C4.84233 28.6403 3.75832 27.5502 2.42116 27.5502C1.08401 27.5502 0 28.6403 0 29.985ZM0 40.3601C0 39.0154 1.08401 37.9254 2.42116 37.9254C3.75832 37.9254 4.84233 39.0154 4.84233 40.3601C4.84233 41.7047 3.75832 42.7948 2.42116 42.7948C1.08401 42.7948 0 41.7047 0 40.3601ZM63 40.3601C63 39.0154 61.916 37.9254 60.5788 37.9254C59.2417 37.9254 58.1577 39.0154 58.1577 40.3601C58.1577 41.7047 59.2417 42.7948 60.5788 42.7948C61.916 42.7948 63 41.7047 63 40.3601ZM63 29.985C63 31.3296 61.916 32.4197 60.5788 32.4197C59.2417 32.4197 58.1577 31.3296 58.1577 29.985C58.1577 28.6403 59.2417 27.5502 60.5788 27.5502C61.916 27.5502 63 28.6403 63 29.985Z" fill="#64B5F6"/>
<path fill-rule="evenodd" clip-rule="evenodd" d="M50.9516 42.4405C50.4652 42.1572 50.2993 41.5309 50.581 41.0418C50.8627 40.5527 51.4854 40.3859 51.9718 40.6691L56.0938 43.0624C56.5802 43.3457 56.7462 43.972 56.4645 44.4611C56.1827 44.9502 55.56 45.1171 55.0736 44.8338L50.9516 42.4405ZM43.9056 10.4048C43.6239 10.894 43.0012 11.0608 42.5148 10.7775C42.0284 10.4942 41.8625 9.868 42.1442 9.37888L44.524 5.23389C44.8058 4.74476 45.4285 4.57792 45.9149 4.86121C46.4013 5.1445 46.5672 5.77072 46.2855 6.25984L43.9056 10.4048ZM12.0446 17.4902C12.531 17.7713 12.6987 18.3958 12.4193 18.8849C12.1397 19.374 11.5188 19.5426 11.0324 19.2617L6.91036 16.8685C6.42396 16.5874 6.25626 15.963 6.53568 15.4738C6.81522 14.9847 7.43617 14.8161 7.92257 15.097L12.0446 17.4902ZM20.8561 9.37888C21.1378 9.868 20.9719 10.4942 20.4855 10.7775C19.9991 11.0608 19.3763 10.894 19.0946 10.4048L16.7146 6.25984C16.4329 5.77072 16.5988 5.1445 17.0852 4.86121C17.5716 4.57792 18.1944 4.74476 18.4761 5.23389L20.8561 9.37888ZM32.5202 6.78654C32.5202 7.35313 32.0634 7.8125 31.5 7.8125C30.9366 7.8125 30.4798 7.35313 30.4798 6.78654V2.0002C30.4798 1.43362 30.9366 0.974243 31.5 0.974243C32.0634 0.974243 32.5202 1.43362 32.5202 2.0002V6.78654ZM51.9718 19.2617C51.4854 19.545 50.8627 19.3781 50.581 18.889C50.2993 18.3999 50.4652 17.7736 50.9516 17.4903L55.0736 15.0972C55.56 14.8139 56.1827 14.9807 56.4645 15.4699C56.7462 15.959 56.5802 16.5852 56.0938 16.8685L51.9718 19.2617ZM11.0283 40.669C11.5147 40.3857 12.1374 40.5526 12.4192 41.0417C12.7009 41.5308 12.535 42.157 12.0486 42.4403L7.92652 44.8336C7.44012 45.1169 6.81739 44.9501 6.53568 44.461C6.25396 43.9718 6.41988 43.3456 6.90628 43.0623L11.0283 40.669Z" fill="#FFDA2D"/>
<path fill-rule="evenodd" clip-rule="evenodd" d="M36.5418 52.9334V57.2313C36.5418 59.2917 34.8687 60.9742 32.8198 60.9742H30.1802C28.1313 60.9742 26.4582 59.2927 26.4582 57.2313V53.7148L36.5418 52.9334Z" fill="#9BB9C3"/>
<path fill-rule="evenodd" clip-rule="evenodd" d="M31.5 11.6553C41.6365 11.6553 49.8535 19.9187 49.8535 30.1115C49.8535 36.8578 46.2545 42.7589 40.8818 45.978C39.7235 46.672 39.0648 47.8371 39.0648 49.193V53.6932C39.0648 55.0906 37.9315 56.2302 36.5419 56.2302H26.4583C25.0686 56.2302 23.9354 55.0905 23.9354 53.6932V49.193C23.9354 47.8367 23.2767 46.672 22.1184 45.978C16.7458 42.7589 13.1466 36.8578 13.1466 30.1115C13.1465 19.9187 21.3635 11.6553 31.5 11.6553Z" fill="#E6F8FF"/>
<path fill-rule="evenodd" clip-rule="evenodd" d="M39.0647 53.6933V51.8396C34.0215 51.8396 28.9783 51.8396 23.9352 51.8396V53.6933C23.9352 55.0908 25.0685 56.2305 26.4581 56.2305H36.5417C37.9315 56.2303 39.0647 55.0906 39.0647 53.6933Z" fill="#B4D2D7"/>
<path fill-rule="evenodd" clip-rule="evenodd" d="M41.2001 29.2055L39.4198 36.2796H44.1988L36.6195 45.7197L38.3996 38.6456H33.6206L41.2001 29.2055ZM21.7999 29.2055L23.5802 36.2796H18.8012L26.3805 45.7197L24.6004 38.6456H29.3794L21.7999 29.2055Z" fill="#FFDA2D"/>
<path fill-rule="evenodd" clip-rule="evenodd" d="M21.5862 22.2144C21.1878 22.615 20.5418 22.615 20.1435 22.2144C19.7451 21.8137 19.7451 21.1642 20.1435 20.7637C23.2796 17.6101 27.39 16.0332 31.5 16.0332C35.6102 16.0332 39.7204 17.6101 42.8565 20.7637C43.2549 21.1643 43.2549 21.8139 42.8565 22.2145C42.458 22.6151 41.8121 22.6151 41.4138 22.2145C38.6763 19.4616 35.0882 18.0851 31.5 18.0851C27.9119 18.085 24.3237 19.4616 21.5862 22.2144ZM28.3726 31.2778C28.3726 30.4095 28.7226 29.6232 29.2886 29.054C29.8546 28.4849 30.6364 28.1329 31.5 28.1329C32.3635 28.1329 33.1454 28.4849 33.7114 29.054C34.2774 29.6232 34.6274 30.4095 34.6274 31.2778C34.6274 32.1461 34.2774 32.9324 33.7114 33.5016C33.1454 34.0707 32.3635 34.4227 31.5 34.4227C30.6365 34.4227 29.8546 34.0707 29.2886 33.5016C28.7226 32.9324 28.3726 32.1461 28.3726 31.2778ZM30.7314 30.5049C30.5347 30.7026 30.4131 30.9759 30.4131 31.2778C30.4131 31.5797 30.5347 31.8531 30.7314 32.0507C30.928 32.2485 31.1998 32.3708 31.5 32.3708C31.8002 32.3708 32.072 32.2485 32.2686 32.0507C32.4653 31.853 32.5869 31.5797 32.5869 31.2778C32.5869 30.9759 32.4653 30.7026 32.2686 30.5049C32.072 30.3071 31.8002 30.1848 31.5 30.1848C31.1998 30.1848 30.928 30.3071 30.7314 30.5049ZM27.2582 27.9183C28.4295 26.7405 29.9648 26.1516 31.5 26.1516C33.0352 26.1516 34.5705 26.7405 35.7418 27.9183C36.1402 28.3189 36.7861 28.3189 37.1844 27.9183C37.5828 27.5177 37.5828 26.8681 37.1844 26.4676C35.6146 24.889 33.5573 24.0998 31.5 24.0998C29.4427 24.0998 27.3854 24.8892 25.8156 26.4676C25.4172 26.8682 25.4172 27.5178 25.8156 27.9183C26.214 28.3188 26.8599 28.3188 27.2582 27.9183ZM24.4223 25.0663C26.3767 23.1009 28.9384 22.1183 31.5001 22.1183C34.0618 22.1183 36.6235 23.1011 38.5778 25.0663C38.9762 25.4669 39.6222 25.4669 40.0204 25.0663C40.4188 24.6656 40.4188 24.0161 40.0204 23.6156C37.6675 21.2495 34.5837 20.0664 31.5 20.0664C28.4163 20.0664 25.3324 21.2495 22.9796 23.6156C22.5812 24.0162 22.5812 24.6658 22.9796 25.0663C23.378 25.4669 24.0239 25.4669 24.4223 25.0663Z" fill="#FFDA2D"/>
</svg>
