<svg width="41" height="41" viewBox="0 0 41 41" fill="none" xmlns="http://www.w3.org/2000/svg">
<path d="M5.44802 4.01877L5.44802 4.01877L5.44965 4.01774C6.91859 3.09441 8.89636 3.06863 11.0837 4.15454L11.0837 4.15454L11.0866 4.156L18.484 7.78803C18.4844 7.78823 18.4848 7.78843 18.4852 7.78863C19.3464 8.216 20.1492 8.98802 20.738 9.92702C21.3273 10.8668 21.6672 11.9181 21.6672 12.8661V37.1828C21.6672 37.4519 21.4363 37.6828 21.1672 37.6828H7.13385C4.91932 37.6828 3.11719 35.9066 3.11719 33.7328V8.99943C3.11719 6.63557 3.98909 4.9306 5.44802 4.01877ZM19.9172 36.6828H20.6672V35.9328V12.8661C20.6672 12.0421 20.3436 11.1709 19.8869 10.4471C19.4304 9.72373 18.7813 9.05322 18.028 8.69135L10.6311 5.05954L10.6306 5.05933C9.71188 4.60896 8.79761 4.34943 7.93385 4.34943C7.23684 4.34943 6.55971 4.50921 5.96961 4.88014C4.69412 5.67312 4.11719 7.23471 4.11719 8.99943V33.7328C4.11719 35.3853 5.49168 36.6828 7.13385 36.6828H19.9172Z" fill="#67BD23" stroke="#67BD23" stroke-width="1.5"/>
<path d="M21.2714 17.3986L21.2746 17.3993L22.0543 17.5652L32.9507 19.9977L32.9521 19.9981C34.5015 20.3406 35.5819 20.9481 36.2903 21.7824C36.9965 22.6142 37.4014 23.752 37.4477 25.2883L37.4641 25.8298V31.9143C37.456 33.9216 36.9244 35.3319 36.0113 36.2432C35.0982 37.1546 33.6881 37.6824 31.6807 37.6824H21.1641C20.8949 37.6824 20.6641 37.4515 20.6641 37.1824V17.8824C20.6641 17.7232 20.7296 17.5946 20.8412 17.5078C20.9823 17.398 21.1251 17.3668 21.2714 17.3986ZM21.6641 35.9324V36.6824H22.4141H31.6807C33.207 36.6824 34.4665 36.4073 35.3194 35.5544C36.1723 34.7015 36.4474 33.442 36.4474 31.9157V25.4824V25.4687L36.4469 25.4551C36.4023 24.2345 36.1455 23.2169 35.4944 22.4356C34.8432 21.6542 33.8948 21.2256 32.7269 20.967C32.7267 20.9669 32.7264 20.9669 32.7262 20.9668L22.5775 18.7004L21.6641 18.4965V19.4324V35.9324Z" fill="#67BD23" stroke="#67BD23" stroke-width="1.5"/>
<path d="M15.2833 16.0156H9.5C9.23088 16.0156 9 15.7847 9 15.5156C9 15.2465 9.23088 15.0156 9.5 15.0156H15.2833C15.5525 15.0156 15.7833 15.2465 15.7833 15.5156C15.7833 15.7913 15.5626 16.0156 15.2833 16.0156Z" fill="#67BD23" stroke="#67BD23" stroke-width="1.5"/>
<path d="M15.2833 22.6826H9.5C9.23088 22.6826 9 22.4517 9 22.1826C9 21.9135 9.23088 21.6826 9.5 21.6826H15.2833C15.5525 21.6826 15.7833 21.9135 15.7833 22.1826C15.7833 22.4583 15.5626 22.6826 15.2833 22.6826Z" fill="#67BD23" stroke="#67BD23" stroke-width="1.5"/>
<path d="M25.6992 30.0988C22.9492 30.0988 20.6992 27.8488 20.6992 25.0988V18.0488C20.6992 17.6654 20.8659 17.3154 21.1659 17.0654C21.4659 16.8154 21.8492 16.7321 22.2159 16.8154L29.7159 18.4988C30.2825 18.6321 30.6992 19.1321 30.6992 19.7154V25.0821C30.6992 27.8488 28.4659 30.0988 25.6992 30.0988ZM23.1992 19.6154V25.0988C23.1992 26.4821 24.3159 27.5988 25.6992 27.5988C27.0826 27.5988 28.1992 26.4821 28.1992 25.0988V20.7321L23.1992 19.6154Z" fill="#67BD23"/>
<path d="M33.1992 30.0987C30.4492 30.0987 28.1992 27.8487 28.1992 25.0987V19.732C28.1992 19.3487 28.3659 18.9987 28.6659 18.7654C28.9659 18.532 29.3492 18.432 29.7159 18.5154L33.0992 19.2654C36.4159 19.9987 38.0826 21.9487 38.1826 25.2654C38.1826 25.2987 38.1826 25.332 38.1826 25.3654C38.0492 28.0154 35.8659 30.0987 33.1992 30.0987ZM30.6992 21.282V25.0987C30.6992 26.482 31.8159 27.5987 33.1992 27.5987C34.5159 27.5987 35.5992 26.582 35.6826 25.282C35.5992 23.182 34.7326 22.182 32.5659 21.6987L30.6992 21.282Z" fill="#67BD23"/>
</svg>
