<svg width="40" height="40" viewBox="0 0 40 40" fill="none" xmlns="http://www.w3.org/2000/svg">
<path d="M11.1654 30.5002H6.91541C5.52469 30.5002 4.52806 30.1022 3.87905 29.4531C3.23004 28.8041 2.83203 27.8075 2.83203 26.4168V6.91687C2.83203 5.52615 3.23004 4.52952 3.87905 3.88051C4.52806 3.23151 5.52469 2.8335 6.91541 2.8335H14.0821C15.4728 2.8335 16.4694 3.2315 17.1183 3.8805C17.7673 4.52951 18.1653 5.52614 18.1653 6.91687V10.0002C18.1653 10.2693 17.9344 10.5002 17.6653 10.5002C17.3962 10.5002 17.1653 10.2693 17.1653 10.0002V6.91687C17.1653 6.00577 17.0021 5.16801 16.4165 4.58237C15.8309 3.99671 14.9932 3.8335 14.0821 3.8335H6.91541C6.00427 3.8335 5.16652 3.99672 4.58089 4.58235C3.99525 5.16799 3.83203 6.00574 3.83203 6.91687V26.4168C3.83203 27.3279 3.99525 28.1657 4.58089 28.7513C5.16652 29.3369 6.00427 29.5002 6.91541 29.5002H11.1654C11.4345 29.5002 11.6654 29.731 11.6654 30.0002C11.6654 30.2693 11.4345 30.5002 11.1654 30.5002Z" fill="#2C5E79" stroke="#2C5E79" stroke-width="1.5"/>
<path d="M24.9347 37.1667H15.2013C13.6692 37.1667 12.56 36.7272 11.8337 36.0009C11.1074 35.2747 10.668 34.1654 10.668 32.6334V14.0333C10.668 12.5013 11.1074 11.392 11.8337 10.6657C12.56 9.93947 13.6692 9.5 15.2013 9.5H24.9347C26.4666 9.5 27.5709 9.93937 28.2927 10.6645C29.0149 11.3902 29.4513 12.4995 29.4513 14.0333V32.6334C29.4513 34.1672 29.0149 35.2765 28.2927 36.0022C27.5709 36.7273 26.4666 37.1667 24.9347 37.1667ZM15.2013 10.5C14.1311 10.5 13.1862 10.7044 12.5293 11.3613C11.8724 12.0182 11.668 12.9632 11.668 14.0333V32.6334C11.668 33.7035 11.8724 34.6484 12.5293 35.3053C13.1862 35.9623 14.1311 36.1667 15.2013 36.1667H24.9347C25.9979 36.1667 26.9388 35.9616 27.5933 35.3041C28.2468 34.6475 28.4513 33.7036 28.4513 32.6334V14.0333C28.4513 12.9631 28.2468 12.0192 27.5933 11.3626C26.9388 10.705 25.9979 10.5 24.9347 10.5H15.2013Z" fill="#2C5E79" stroke="#2C5E79" stroke-width="1.5"/>
<path d="M33.0819 30.5002H28.9486C28.6795 30.5002 28.4486 30.2693 28.4486 30.0002C28.4486 29.731 28.6795 29.5002 28.9486 29.5002H33.0819C33.9931 29.5002 34.8308 29.3369 35.4165 28.7513C36.0021 28.1657 36.1653 27.3279 36.1653 26.4168V6.91687C36.1653 6.00574 36.0021 5.16799 35.4165 4.58235C34.8308 3.99672 33.9931 3.8335 33.0819 3.8335H25.9153C25.0042 3.8335 24.1664 3.99671 23.5808 4.58237C22.9952 5.16801 22.832 6.00577 22.832 6.91687V10.0002C22.832 10.2693 22.6012 10.5002 22.332 10.5002C22.0629 10.5002 21.832 10.2693 21.832 10.0002V6.91687C21.832 5.52614 22.23 4.52951 22.879 3.8805C23.528 3.2315 24.5246 2.8335 25.9153 2.8335H33.0819C34.4727 2.8335 35.4693 3.23151 36.1183 3.88051C36.7673 4.52952 37.1653 5.52615 37.1653 6.91687V26.4168C37.1653 27.8075 36.7673 28.8041 36.1183 29.4531C35.4693 30.1022 34.4727 30.5002 33.0819 30.5002Z" fill="#2C5E79" stroke="#2C5E79" stroke-width="1.5"/>
<path d="M23.3346 18.8335H16.668C16.3988 18.8335 16.168 18.6026 16.168 18.3335C16.168 18.0644 16.3988 17.8335 16.668 17.8335H23.3346C23.6038 17.8335 23.8346 18.0644 23.8346 18.3335C23.8346 18.6026 23.6038 18.8335 23.3346 18.8335Z" fill="#2C5E79" stroke="#2C5E79" stroke-width="1.5"/>
<path d="M23.3346 24.5835H16.668C15.9846 24.5835 15.418 24.0168 15.418 23.3335C15.418 22.6502 15.9846 22.0835 16.668 22.0835H23.3346C24.018 22.0835 24.5846 22.6502 24.5846 23.3335C24.5846 24.0168 24.018 24.5835 23.3346 24.5835Z" fill="#2C5E79"/>
<path d="M20 37.9165C19.3167 37.9165 18.75 37.3498 18.75 36.6665V31.6665C18.75 30.9832 19.3167 30.4165 20 30.4165C20.6833 30.4165 21.25 30.9832 21.25 31.6665V36.6665C21.25 37.3498 20.6833 37.9165 20 37.9165Z" fill="#2C5E79"/>
</svg>
