<svg width="34" height="47" viewBox="0 0 34 47" fill="none" xmlns="http://www.w3.org/2000/svg">
<path fill-rule="evenodd" clip-rule="evenodd" d="M17 8.30047L19.3907 9.87132C19.5955 10.0064 19.8652 10.0005 20.062 9.85664C20.2628 9.71277 20.3514 9.46124 20.2835 9.22536L19.5197 6.47809L21.7618 4.70268C21.9547 4.55 22.0315 4.29456 21.9547 4.06162C21.878 3.82868 21.6654 3.66719 21.4203 3.65643L18.5591 3.52919L17.5512 0.861194C17.4665 0.632173 17.2461 0.479492 17.001 0.479492C16.752 0.479492 16.5344 0.632173 16.4469 0.861194L15.4419 3.52919L12.5768 3.65643C12.3317 3.66719 12.1191 3.82868 12.0423 4.06162C11.9656 4.29456 12.0423 4.55 12.2352 4.70268L14.4774 6.47809L13.7136 9.22536C13.6496 9.46124 13.7372 9.71277 13.935 9.85664C14.0394 9.93102 14.1604 9.96919 14.2844 9.96919C14.3967 9.96919 14.5098 9.9369 14.6102 9.87132L17 8.30047Z" fill="#FF9500"/>
<path fill-rule="evenodd" clip-rule="evenodd" d="M8.28346 12.7742C8.48425 12.6303 8.57283 12.3788 8.50492 12.1429L8.00689 10.3382L9.47736 9.17153C9.67028 9.01885 9.74705 8.76341 9.67027 8.53047C9.5935 8.29754 9.38091 8.13605 9.13583 8.12528L7.25492 8.04209L6.59547 6.28919C6.50689 6.06017 6.28642 5.90749 6.04134 5.90749C5.79626 5.90749 5.5748 6.06017 5.4872 6.28919L4.82776 8.04209L2.94685 8.12528C2.70177 8.13605 2.48917 8.29754 2.4124 8.53047C2.33563 8.76341 2.4124 9.01885 2.60531 9.17153L4.07579 10.3382L3.57382 12.1429C3.50984 12.3788 3.59744 12.6303 3.79921 12.7742C3.99606 12.9181 4.26575 12.924 4.47047 12.7889L6.04232 11.7573L7.61319 12.7889C7.71358 12.8545 7.82579 12.8868 7.93898 12.8868C8.05807 12.8868 8.18307 12.8496 8.28346 12.7742Z" fill="#FF9500"/>
<path fill-rule="evenodd" clip-rule="evenodd" d="M24.3268 8.53047C24.25 8.76341 24.3268 9.01885 24.5197 9.17153L25.9941 10.3382L25.4921 12.1429C25.4281 12.3788 25.5157 12.6303 25.7136 12.7742C25.9144 12.9181 26.1801 12.924 26.3888 12.7889L27.9606 11.7573L29.5276 12.7889C29.628 12.8545 29.7402 12.8868 29.8533 12.8868C29.9783 12.8868 30.0984 12.8496 30.2028 12.7742C30.3996 12.6303 30.4882 12.3788 30.4242 12.1429L29.9222 10.3382L31.3927 9.17153C31.5896 9.01885 31.6663 8.76341 31.5896 8.53047C31.5128 8.29754 31.3002 8.13605 31.0551 8.12528L29.1703 8.04209L28.5108 6.28919C28.4262 6.06017 28.2057 5.90749 27.9606 5.90749C27.7116 5.90749 27.4902 6.06017 27.4065 6.28919L26.7431 8.04209L24.8622 8.12528C24.6161 8.13605 24.4026 8.29754 24.3268 8.53047Z" fill="#FF9500"/>
<path fill-rule="evenodd" clip-rule="evenodd" d="M19.685 17.9057C19.5846 17.5122 19.2392 17.248 18.8287 17.248H15.1673C14.7618 17.248 14.4154 17.5122 14.311 17.9057L13.873 19.5734H20.126L19.685 17.9057Z" fill="white"/>
<path fill-rule="evenodd" clip-rule="evenodd" d="M24.0817 20.7479H9.91929C8.02264 20.7479 6.43898 21.7794 5.68307 23.5069L4.11122 27.09H29.8878L28.3159 23.5069C27.562 21.7794 25.9783 20.7479 24.0817 20.7479Z" fill="#FF9500"/>
<path fill-rule="evenodd" clip-rule="evenodd" d="M30.4754 28.2645H3.52067L0.879921 32.1539H2.09744C4.74213 32.1539 6.89173 34.2924 6.89173 36.9203V37.5614C6.89173 37.8853 6.62697 38.1486 6.30118 38.1486H0.161417V41.4175C0.161417 41.7229 0.410433 41.9705 0.715551 41.9705H33.2805C33.5896 41.9705 33.8396 41.7229 33.8396 41.4175V38.1486H27.6949C27.3691 38.1486 27.1043 37.8853 27.1043 37.5614V36.9203C27.1043 34.2924 29.2589 32.1539 31.8986 32.1539H33.1201L30.4754 28.2645ZM24.4026 33.2912C24.752 33.8765 24.7638 34.5557 24.435 35.1537L22.876 38.0057C22.7717 38.1946 22.5748 38.312 22.3573 38.312H11.6388C11.4262 38.312 11.2244 38.1946 11.1201 38.0057L9.56102 35.1527C9.2313 34.5557 9.24803 33.8765 9.59744 33.2912C9.94685 32.7059 10.5374 32.3702 11.2254 32.3702H22.7756C23.4587 32.3702 24.0531 32.7059 24.4026 33.2912Z" fill="white"/>
<path fill-rule="evenodd" clip-rule="evenodd" d="M34 25.5789H31.0541V27.09H32.5246C33.3366 27.09 34 26.4323 34 25.6249V25.5789Z" fill="white"/>
<path fill-rule="evenodd" clip-rule="evenodd" d="M2.9498 27.09V25.5789H0V25.6249C0 26.4323 0.663386 27.09 1.47539 27.09H2.9498Z" fill="white"/>
<path fill-rule="evenodd" clip-rule="evenodd" d="M5.71161 36.9203C5.71161 34.9403 4.09154 33.3284 2.09842 33.3284H0.161417V36.9741H5.71161V36.9203Z" fill="#FF9500"/>
<path fill-rule="evenodd" clip-rule="evenodd" d="M10.5984 34.5919L11.9931 37.1376H22.0079L23.4026 34.5919C23.5276 34.36 23.5236 34.1182 23.3868 33.8912C23.25 33.6641 23.0413 33.5447 22.7756 33.5447H11.2254C10.9606 33.5447 10.747 33.6641 10.6102 33.8912C10.4734 34.1182 10.4734 34.36 10.5984 34.5919Z" fill="white"/>
<path fill-rule="evenodd" clip-rule="evenodd" d="M31.8976 33.3284C29.9085 33.3284 28.2844 34.9403 28.2844 36.9203V36.9741H33.8386V33.3284H31.8976Z" fill="#FF9500"/>
<path fill-rule="evenodd" clip-rule="evenodd" d="M32.3799 43.145H26.2146V45.0926C26.2146 45.858 26.8376 46.4795 27.6093 46.4795H30.9852C31.753 46.4795 32.3799 45.858 32.3799 45.0926V43.145Z" fill="white"/>
<path fill-rule="evenodd" clip-rule="evenodd" d="M7.78445 45.0926V43.145H1.62008V45.0926C1.62008 45.858 2.24705 46.4795 3.01476 46.4795H6.39075C7.15748 46.4795 7.78445 45.858 7.78445 45.0926Z" fill="white"/>
</svg>
