<svg width="40" height="40" viewBox="0 0 40 40" fill="none" xmlns="http://www.w3.org/2000/svg">
<path d="M6.7 12.8335H7.30889L7.434 12.2376L8.06733 9.2209L8.06734 9.2209L8.06795 9.21792C8.36039 7.79636 8.78753 6.57319 9.64148 5.6963C10.4706 4.84489 11.8072 4.2168 14.15 4.2168H25.85C28.1928 4.2168 29.5294 4.84489 30.3585 5.6963C31.2125 6.57319 31.6396 7.79636 31.932 9.21792L31.9327 9.2209L32.566 12.2376L32.6911 12.8335H33.3H35C35.2691 12.8335 35.5 13.0643 35.5 13.3335C35.5 13.6026 35.2691 13.8335 35 13.8335H5C4.73088 13.8335 4.5 13.6026 4.5 13.3335C4.5 13.0643 4.73088 12.8335 5 12.8335H6.7Z" fill="#2C5E79" stroke="#2C5E79" stroke-width="1.5"/>
<path d="M36.221 22.8347L36.2211 22.8355L37.1544 32.9855L37.1544 32.9856C37.252 34.0444 36.9037 35.1018 36.181 35.8942C35.4423 36.7026 34.3779 37.1668 33.2679 37.1668H30.1346C28.9402 37.1668 28.3444 36.8305 28.0057 36.4877C27.6369 36.1144 27.4679 35.6368 27.2973 35.1165L27.2961 35.113L26.9628 34.113L26.9628 34.113L26.9609 34.1074L26.9468 34.0661C26.8487 33.7791 26.7547 33.5042 26.651 33.2786C26.5379 33.0326 26.3825 32.7729 26.1234 32.5691C25.861 32.3626 25.5639 32.2692 25.2677 32.222C24.9817 32.1765 24.6456 32.1668 24.268 32.1668H15.7346C15.0031 32.1668 14.339 32.2182 13.8473 32.6234C13.5973 32.8294 13.4431 33.0833 13.3307 33.3273C13.2254 33.556 13.1354 33.8261 13.0457 34.0953L13.0398 34.113L12.7064 35.113L12.7053 35.1165C12.5347 35.6368 12.3656 36.1144 11.9969 36.4877C11.6582 36.8305 11.0624 37.1668 9.86795 37.1668H6.73462C5.60968 37.1668 4.5616 36.7038 3.82202 35.8947C3.09904 35.1022 2.75059 34.0446 2.84812 32.9856L2.84813 32.9855L3.78111 22.8392C3.78117 22.8386 3.78123 22.838 3.78129 22.8374C3.91397 21.4702 4.14963 20.256 4.8755 19.3688C5.56647 18.5243 6.82953 17.8335 9.36795 17.8335H30.6346C33.1733 17.8335 34.4408 18.5245 35.1339 19.3695C35.8611 20.2562 36.097 21.4707 36.221 22.8347ZM10.0013 27.0002H15.0013C16.0988 27.0002 17.0013 26.0977 17.0013 25.0002C17.0013 23.9026 16.0988 23.0002 15.0013 23.0002H10.0013C8.90374 23.0002 8.00128 23.9026 8.00128 25.0002C8.00128 26.0977 8.90374 27.0002 10.0013 27.0002ZM25.0013 27.0002H30.0013C31.0988 27.0002 32.0013 26.0977 32.0013 25.0002C32.0013 23.9026 31.0988 23.0002 30.0013 23.0002H25.0013C23.9037 23.0002 23.0013 23.9026 23.0013 25.0002C23.0013 26.0977 23.9037 27.0002 25.0013 27.0002Z" fill="#2C5E79" stroke="#2C5E79" stroke-width="1.5"/>
</svg>
