<svg width="132" height="107" viewBox="0 0 132 107" fill="none" xmlns="http://www.w3.org/2000/svg">
<path d="M109.956 46.2264V35.0162H123.416L108.635 0.65332H14.7812L0 35.0162H13.4604V88.2729H73.8028C78.6381 98.7419 89.236 106.025 101.504 106.025C118.32 106.025 132 92.3448 132 75.5294C132 61.6454 122.673 49.8997 109.956 46.2264ZM103.542 8.38771L111.67 27.2818H75.7088L67.5816 8.38771H103.542ZM19.874 8.38771H55.8348L47.7075 27.2818H11.7467L19.874 8.38771ZM21.1948 35.0162H52.8004L57.8411 23.2978V80.5385H21.1948V35.0162ZM65.5755 80.5385V23.2976L70.6163 35.0159H102.222V45.043C101.983 45.0376 101.745 45.034 101.505 45.034C84.6895 45.034 71.0094 58.7144 71.0094 75.5294C71.0094 77.2354 71.1525 78.9081 71.423 80.5385H65.5755ZM101.505 98.2907C88.954 98.2907 78.7436 88.0803 78.7436 75.5294C78.7436 62.9788 88.954 52.7684 101.505 52.7684C114.055 52.7684 124.266 62.9788 124.266 75.5294C124.266 88.0803 114.055 98.2907 101.505 98.2907Z" fill="#ff5800"/>
<path d="M98.9407 77.3758L92.1721 70.6071L86.7031 76.0761L98.9407 88.3137L116.306 70.9485L110.837 65.4795L98.9407 77.3758Z" fill="#ff5800"/>
<path d="M31.6372 62.7861H39.3716V70.5205H31.6372V62.7861Z" fill="#ff5800"/>
</svg>
