<svg width="41" height="41" viewBox="0 0 41 41" fill="none" xmlns="http://www.w3.org/2000/svg">
<path d="M25.6667 37.682H15.6667C11.2278 37.682 8.23864 36.7308 6.34491 34.8371C4.45119 32.9433 3.5 29.9542 3.5 25.5153V15.5153C3.5 11.0764 4.45119 8.08727 6.34491 6.19355C8.23864 4.29982 11.2278 3.34863 15.6667 3.34863H25.6667C30.1056 3.34863 33.0947 4.29982 34.9884 6.19355C36.8821 8.08727 37.8333 11.0764 37.8333 15.5153V25.5153C37.8333 29.9542 36.8821 32.9433 34.9884 34.8371C33.0947 36.7308 30.1056 37.682 25.6667 37.682ZM15.6667 4.34863C11.7721 4.34863 8.90857 5.03357 7.04675 6.89539C5.18494 8.7572 4.5 11.6207 4.5 15.5153V25.5153C4.5 29.4099 5.18494 32.2734 7.04675 34.1352C8.90857 35.997 11.7721 36.682 15.6667 36.682H25.6667C29.5613 36.682 32.4248 35.997 34.2866 34.1352C36.1484 32.2734 36.8333 29.4099 36.8333 25.5153V15.5153C36.8333 11.6207 36.1484 8.7572 34.2866 6.89539C32.4248 5.03357 29.5613 4.34863 25.6667 4.34863H15.6667Z" fill="#E5B32C" stroke="#E5B32C" stroke-width="1.5"/>
<path d="M26.918 16.0156H14.418C14.1488 16.0156 13.918 15.7847 13.918 15.5156C13.918 15.2465 14.1488 15.0156 14.418 15.0156H26.918C27.1871 15.0156 27.418 15.2465 27.418 15.5156C27.418 15.7847 27.1871 16.0156 26.918 16.0156Z" fill="#E5B32C" stroke="#E5B32C" stroke-width="1.5"/>
<path d="M26.918 26.0156H14.418C14.1488 26.0156 13.918 25.7847 13.918 25.5156C13.918 25.2465 14.1488 25.0156 14.418 25.0156H26.918C27.1871 25.0156 27.418 25.2465 27.418 25.5156C27.418 25.7847 27.1871 26.0156 26.918 26.0156Z" fill="#E5B32C" stroke="#E5B32C" stroke-width="1.5"/>
</svg>
