<svg width="30" height="30" viewBox="0 0 30 30" fill="none" xmlns="http://www.w3.org/2000/svg">
<path fill-rule="evenodd" clip-rule="evenodd" d="M15.5246 2.43863L25.3214 9.95242C25.4492 10.0509 25.5409 10.1828 25.5842 10.3303C25.6274 10.4779 25.62 10.634 25.5631 10.7777C25.5062 10.9213 25.4024 11.0455 25.2658 11.1336C25.1292 11.2216 24.9664 11.2693 24.7992 11.2701H20.8774L23.97 26.8557C23.9913 26.9632 23.9865 27.0737 23.9559 27.1794C23.9253 27.2851 23.8697 27.3833 23.793 27.4672C23.7163 27.5511 23.6205 27.6185 23.5121 27.6648C23.4038 27.7111 23.2856 27.7351 23.166 27.7351H6.83447C6.71486 27.7351 6.59672 27.7111 6.48838 27.6648C6.38004 27.6185 6.28415 27.5511 6.20747 27.4672C6.13079 27.3833 6.07519 27.2851 6.0446 27.1794C6.01402 27.0737 6.00918 26.9632 6.03045 26.8557L9.12307 11.2701H5.20131C5.03405 11.2695 4.87102 11.222 4.73424 11.134C4.59746 11.046 4.49352 10.9218 4.43646 10.7781C4.3794 10.6344 4.37198 10.4782 4.41518 10.3306C4.45838 10.1829 4.55013 10.0509 4.67805 9.95242L14.4781 2.43863C14.625 2.32691 14.8102 2.26575 15.0013 2.26575C15.1925 2.26575 15.3776 2.32691 15.5246 2.43863ZM14.546 17.116C14.6802 17.198 14.838 17.2417 14.9994 17.2417C15.5765 17.2408 16.1353 17.4265 16.5769 17.766C17.0185 18.1055 17.3144 18.5768 17.4122 19.0966C17.5099 19.6163 17.4032 20.1509 17.1109 20.6056C16.8187 21.0604 16.3597 21.4059 15.8154 21.5811V22.4645C15.8154 22.6624 15.7294 22.8522 15.5762 22.9921C15.4231 23.1321 15.2154 23.2107 14.9988 23.2107C14.7823 23.2107 14.5746 23.1321 14.4214 22.9921C14.2683 22.8522 14.1823 22.6624 14.1823 22.4645V21.5811C13.7068 21.428 13.2948 21.1445 13.0024 20.7692C12.7101 20.394 12.5517 19.9454 12.5491 19.4847C12.5491 19.2868 12.6351 19.097 12.7883 18.9571C12.9414 18.8172 13.1491 18.7386 13.3657 18.7386C13.5822 18.7386 13.7899 18.8172 13.9431 18.9571C14.0962 19.097 14.1823 19.2868 14.1823 19.4847C14.1823 19.6322 14.2301 19.7764 14.3198 19.899C14.4094 20.0217 14.5369 20.1172 14.686 20.1737C14.8351 20.2301 14.9992 20.2449 15.1575 20.2161C15.3158 20.1873 15.4612 20.1163 15.5753 20.012C15.6894 19.9077 15.7671 19.7749 15.7986 19.6302C15.8301 19.4856 15.814 19.3356 15.7522 19.1994C15.6904 19.0631 15.5858 18.9467 15.4516 18.8647C15.3174 18.7828 15.1597 18.7391 14.9983 18.7391C14.4212 18.74 13.8623 18.5543 13.4207 18.2148C12.9791 17.8753 12.6832 17.4039 12.5855 16.8842C12.4878 16.3644 12.5945 15.8299 12.8867 15.3751C13.179 14.9204 13.6379 14.5749 14.1823 14.3997V13.5163C14.1823 13.3184 14.2683 13.1286 14.4214 12.9886C14.5746 12.8487 14.7823 12.7701 14.9988 12.7701C15.2154 12.7701 15.4231 12.8487 15.5762 12.9886C15.7294 13.1286 15.8154 13.3184 15.8154 13.5163V14.3997C16.2908 14.5528 16.7029 14.8363 16.9952 15.2115C17.2876 15.5868 17.4459 16.0354 17.4486 16.496C17.4486 16.6939 17.3625 16.8837 17.2094 17.0236C17.0562 17.1636 16.8485 17.2422 16.632 17.2422C16.4154 17.2422 16.2077 17.1636 16.0546 17.0236C15.9014 16.8837 15.8154 16.6939 15.8154 16.496C15.8154 16.3485 15.7676 16.2043 15.6779 16.0817C15.5882 15.9591 15.4608 15.8635 15.3117 15.8071C15.1625 15.7506 14.9985 15.7359 14.8402 15.7647C14.6819 15.7934 14.5365 15.8644 14.4224 15.9687C14.3082 16.073 14.2305 16.2059 14.199 16.3505C14.1675 16.4952 14.1837 16.6451 14.2455 16.7814C14.3072 16.9176 14.4118 17.0341 14.546 17.116Z" fill="url(#paint0_linear_1360_29924)"/>
<defs>
<linearGradient id="paint0_linear_1360_29924" x1="14.9997" y1="27.7351" x2="14.9997" y2="2.26575" gradientUnits="userSpaceOnUse">
<stop stop-color="#2FA7BC"/>
<stop offset="1" stop-color="#3CD2ED"/>
</linearGradient>
</defs>
</svg>
