<svg width="25" height="24" viewBox="0 0 25 24" fill="none" xmlns="http://www.w3.org/2000/svg">
<g clip-path="url(#clip0_2806_18498)">
<path d="M21.0882 4.61012C20.5774 4.09912 19.971 3.69376 19.3035 3.4172C18.6361 3.14064 17.9207 2.99829 17.1982 2.99829C16.4757 2.99829 15.7603 3.14064 15.0928 3.4172C14.4254 3.69376 13.8189 4.09912 13.3082 4.61012L12.2482 5.67012L11.1882 4.61012C10.1565 3.57842 8.7572 2.99883 7.29817 2.99883C5.83913 2.99883 4.43986 3.57842 3.40817 4.61012C2.37647 5.64181 1.79688 7.04108 1.79688 8.50012C1.79687 9.95915 2.37647 11.3584 3.40817 12.3901L12.2482 21.2301L21.0882 12.3901C21.5992 11.8794 22.0045 11.2729 22.2811 10.6055C22.5576 9.93801 22.7 9.2226 22.7 8.50012C22.7 7.77763 22.5576 7.06222 22.2811 6.39476C22.0045 5.7273 21.5992 5.12087 21.0882 4.61012Z" stroke="#0c78a7" stroke-width="2" stroke-linecap="round" stroke-linejoin="round"/>
</g>
<defs>
<clipPath id="clip0_2806_18498">
<rect width="24" height="24" fill="#0c78a7" transform="translate(0.25)"/>
</clipPath>
</defs>
</svg>
