<svg width="40" height="40" viewBox="0 0 40 40" fill="none" xmlns="http://www.w3.org/2000/svg">
<path d="M36.6654 37.1665H3.33203C3.06291 37.1665 2.83203 36.9356 2.83203 36.6665C2.83203 36.3974 3.06291 36.1665 3.33203 36.1665H36.6654C36.9345 36.1665 37.1654 36.3974 37.1654 36.6665C37.1654 36.9356 36.9345 37.1665 36.6654 37.1665Z" fill="#2C5E79" stroke="#2C5E79" stroke-width="1.5"/>
<path d="M4.42109 35.9166L4.5013 16.6196V16.6165C4.5013 15.4332 5.04291 14.3346 5.97781 13.609L5.97872 13.6083L17.6451 4.52522C19.0225 3.45387 20.961 3.45074 22.3593 4.52658C22.3596 4.52687 22.36 4.52716 22.3604 4.52745L34.0205 13.589C34.0211 13.5895 34.0217 13.59 34.0223 13.5904C34.9441 14.3176 35.5013 15.4513 35.5013 16.6165V35.9166H34.5013V16.6332C34.5013 15.7678 34.0944 14.9373 33.4198 14.3976L33.4199 14.3975L33.4115 14.391L21.7451 5.32453C20.7213 4.52827 19.2958 4.53444 18.2638 5.31967L18.2638 5.31963L18.2572 5.32475L6.59255 14.4066C5.90615 14.934 5.50183 15.7706 5.5013 16.6315C5.5013 16.6321 5.5013 16.6326 5.5013 16.6332L5.42108 35.9166H4.42109Z" fill="#2C5E79" stroke="#2C5E79" stroke-width="1.5"/>
<path d="M16.332 35.4168V36.1668H17.082H22.9154H23.6654V35.4168V30.8335C23.6654 29.7359 22.7629 28.8335 21.6654 28.8335H18.332C17.2345 28.8335 16.332 29.7359 16.332 30.8335V35.4168ZM24.1654 37.1668H15.832C15.5629 37.1668 15.332 36.936 15.332 36.6668V30.8335C15.332 29.181 16.6796 27.8335 18.332 27.8335H21.6654C23.3178 27.8335 24.6654 29.181 24.6654 30.8335V36.6668C24.6654 36.936 24.4345 37.1668 24.1654 37.1668Z" fill="#2C5E79" stroke="#2C5E79" stroke-width="1.5"/>
<path d="M15.832 23.4168H12.4987C11.3129 23.4168 10.332 22.4359 10.332 21.2502V18.7502C10.332 17.5644 11.3129 16.5835 12.4987 16.5835H15.832C17.0178 16.5835 17.9987 17.5644 17.9987 18.7502V21.2502C17.9987 22.4359 17.0178 23.4168 15.832 23.4168ZM12.4987 17.5835C11.8512 17.5835 11.332 18.1026 11.332 18.7502V21.2502C11.332 21.8977 11.8512 22.4168 12.4987 22.4168H15.832C16.4796 22.4168 16.9987 21.8977 16.9987 21.2502V18.7502C16.9987 18.1026 16.4796 17.5835 15.832 17.5835H12.4987Z" fill="#2C5E79" stroke="#2C5E79" stroke-width="1.5"/>
<path d="M27.5 24.1668H24.1667C22.5667 24.1668 21.25 22.8502 21.25 21.2502V18.7502C21.25 17.1502 22.5667 15.8335 24.1667 15.8335H27.5C29.1 15.8335 30.4167 17.1502 30.4167 18.7502V21.2502C30.4167 22.8502 29.1 24.1668 27.5 24.1668ZM24.1667 18.3335C23.9333 18.3335 23.75 18.5168 23.75 18.7502V21.2502C23.75 21.4835 23.9333 21.6668 24.1667 21.6668H27.5C27.7333 21.6668 27.9167 21.4835 27.9167 21.2502V18.7502C27.9167 18.5168 27.7333 18.3335 27.5 18.3335H24.1667Z" fill="#2C5E79"/>
<path d="M31.6674 12.9165C30.9841 12.9165 30.4174 12.3665 30.4174 11.6832L30.3841 7.9165H24.3008C23.6174 7.9165 23.0508 7.34984 23.0508 6.6665C23.0508 5.98317 23.6174 5.4165 24.3008 5.4165H31.6341C32.3174 5.4165 32.8841 5.96649 32.8841 6.64982L32.9341 11.6498C32.9174 12.3498 32.3674 12.9165 31.6674 12.9165C31.6841 12.9165 31.6674 12.9165 31.6674 12.9165Z" fill="#2C5E79"/>
</svg>
