<svg width="18" height="18" viewBox="0 0 18 18" fill="none" xmlns="http://www.w3.org/2000/svg">
<path fill-rule="evenodd" clip-rule="evenodd" d="M8.99898 0.46666C6.68144 0.46666 6.39059 0.476793 5.48036 0.518216C4.57191 0.559816 3.95181 0.70364 3.40923 0.914664C2.84798 1.13262 2.37189 1.42418 1.89757 1.89867C1.4229 2.37299 1.13134 2.84908 0.912671 3.41016C0.701113 3.95292 0.557111 4.57319 0.516222 5.48129C0.475511 6.39152 0.464844 6.68255 0.464844 9.00008C0.464844 11.3176 0.475155 11.6076 0.5164 12.5178C0.558178 13.4263 0.702002 14.0464 0.912848 14.5889C1.13098 15.1502 1.42254 15.6263 1.89704 16.1006C2.37117 16.5753 2.84727 16.8675 3.40816 17.0855C3.9511 17.2965 4.57138 17.4403 5.47965 17.4819C6.38988 17.5234 6.68055 17.5335 8.99791 17.5335C11.3156 17.5335 11.6056 17.5234 12.5158 17.4819C13.4243 17.4403 14.0451 17.2965 14.588 17.0855C15.1491 16.8675 15.6245 16.5753 16.0986 16.1006C16.5733 15.6263 16.8648 15.1502 17.0835 14.5891C17.2933 14.0464 17.4373 13.4261 17.48 12.518C17.5208 11.6078 17.5315 11.3176 17.5315 9.00008C17.5315 6.68255 17.5208 6.3917 17.48 5.48147C17.4373 4.57301 17.2933 3.95292 17.0835 3.41033C16.8648 2.84908 16.5733 2.37299 16.0986 1.89867C15.6239 1.424 15.1493 1.13244 14.5875 0.914664C14.0435 0.70364 13.423 0.559816 12.5146 0.518216C11.6043 0.476793 11.3146 0.46666 8.99631 0.46666H8.99898ZM8.23342 2.00443C8.46062 2.00407 8.71414 2.00443 8.99894 2.00443C11.2774 2.00443 11.5474 2.01261 12.4472 2.0535C13.2792 2.09154 13.7307 2.23056 14.0315 2.34737C14.4298 2.50203 14.7137 2.68693 15.0122 2.9856C15.3108 3.28427 15.4957 3.56871 15.6507 3.96694C15.7675 4.26739 15.9067 4.71895 15.9446 5.55096C15.9855 6.45052 15.9944 6.72075 15.9944 8.9981C15.9944 11.2755 15.9855 11.5457 15.9446 12.4452C15.9066 13.2773 15.7675 13.7288 15.6507 14.0293C15.4961 14.4275 15.3108 14.7111 15.0122 15.0095C14.7135 15.3082 14.4299 15.4931 14.0315 15.6478C13.7311 15.7651 13.2792 15.9038 12.4472 15.9418C11.5476 15.9827 11.2774 15.9916 8.99894 15.9916C6.72034 15.9916 6.45029 15.9827 5.55073 15.9418C4.71872 15.9034 4.26716 15.7644 3.96618 15.6476C3.56795 15.4929 3.2835 15.308 2.98483 15.0094C2.68616 14.7107 2.50127 14.427 2.34625 14.0286C2.22945 13.7281 2.09025 13.2765 2.05238 12.4445C2.01149 11.545 2.00331 11.2747 2.00331 8.99597C2.00331 6.71719 2.01149 6.44839 2.05238 5.54882C2.09042 4.71681 2.22945 4.26525 2.34625 3.96445C2.50092 3.56622 2.68616 3.28178 2.98483 2.98311C3.2835 2.68444 3.56795 2.49955 3.96618 2.34452C4.26698 2.22719 4.71872 2.08852 5.55073 2.0503C6.33793 2.01474 6.643 2.00407 8.23342 2.0023V2.00443ZM13.554 3.42134C12.9887 3.42134 12.53 3.87947 12.53 4.44499C12.53 5.01033 12.9887 5.469 13.554 5.469C14.1194 5.469 14.578 5.01033 14.578 4.44499C14.578 3.87965 14.1194 3.42134 13.554 3.42134ZM8.99899 4.61779C6.57888 4.61779 4.61672 6.57994 4.61672 9.00006C4.61672 11.4202 6.57888 13.3814 8.99899 13.3814C11.4191 13.3814 13.3805 11.4202 13.3805 9.00006C13.3805 6.57994 11.4191 4.61779 8.99899 4.61779ZM8.99896 6.15558C10.5698 6.15558 11.8434 7.42902 11.8434 9.00006C11.8434 10.5709 10.5698 11.8445 8.99896 11.8445C7.42792 11.8445 6.15448 10.5709 6.15448 9.00006C6.15448 7.42902 7.42792 6.15558 8.99896 6.15558Z" fill="white"/>
</svg>
