<svg width="33" height="31" viewBox="0 0 33 31" fill="none" xmlns="http://www.w3.org/2000/svg">
<path d="M16.4551 30.2561C14.1904 30.2561 12.0573 29.859 10.0559 29.0649C8.05445 28.2697 6.31144 27.1905 4.82682 25.8271C3.34221 24.4637 2.16598 22.8644 1.29813 21.029C0.430279 19.1937 -0.00242754 17.2364 1.02428e-05 15.1573C1.02428e-05 13.0725 0.432717 11.1136 1.29813 9.28048C2.16476 7.44626 3.34099 5.84858 4.82682 4.48745C6.31265 3.12632 8.05567 2.04704 10.0559 1.2496C12.0573 0.455514 14.1904 0.0584717 16.4551 0.0584717C18.7271 0.0584717 20.862 0.455514 22.8597 1.2496C24.8587 2.0448 26.6005 3.12409 28.0851 4.48745C29.5697 5.85082 30.7454 7.44849 31.612 9.28048C32.4774 11.1147 32.9101 13.0736 32.9101 15.1573C32.9101 17.2353 32.4774 19.1926 31.612 21.029C30.7454 22.8655 29.5691 24.4648 28.0833 25.8271C26.5975 27.1893 24.8563 28.2686 22.8597 29.0649C20.8632 29.8613 18.7283 30.2583 16.4551 30.2561ZM16.4551 28.5918C17.5277 27.3269 18.4126 26.0849 19.1098 24.8658C19.8058 23.6467 20.372 22.2822 20.8083 20.7723H12.1018C12.5857 22.3672 13.1634 23.7742 13.8351 24.9933C14.5079 26.2124 15.3812 27.4119 16.4551 28.5918ZM14.1276 28.3402C13.2744 27.4175 12.4955 26.2767 11.791 24.9178C11.0864 23.56 10.5623 22.1777 10.2186 20.7707H3.20692C4.25516 22.8565 5.74039 24.5677 7.66258 25.9043C9.58599 27.2397 11.741 28.0516 14.1276 28.3402ZM18.7825 28.3402C21.1691 28.0516 23.3241 27.2397 25.2475 25.9043C27.1697 24.5677 28.655 22.8565 29.7032 20.7707H22.6934C22.2302 22.1989 21.6469 23.5919 20.9436 24.9497C20.2391 26.3086 19.5187 27.4399 18.7825 28.3402ZM2.46095 19.0947H9.8383C9.69935 18.4058 9.60184 17.7347 9.54577 17.0815C9.48726 16.4295 9.45801 15.7881 9.45801 15.1573C9.45801 14.5265 9.48665 13.8851 9.54394 13.233C9.60123 12.581 9.69874 11.9099 9.83647 11.2198H2.46278C2.2641 11.8014 2.10869 12.435 1.99656 13.1206C1.88442 13.8051 1.82835 14.484 1.82835 15.1573C1.82835 15.8306 1.88381 16.51 1.99473 17.1956C2.10565 17.8812 2.26106 18.5137 2.46095 19.093M11.6666 19.093H21.2435C21.3824 18.4052 21.4799 17.7453 21.536 17.1134C21.5945 16.4826 21.6238 15.8306 21.6238 15.1573C21.6238 14.484 21.5951 13.8319 21.5378 13.2011C21.4806 12.5703 21.383 11.9105 21.2453 11.2215H11.6648C11.5271 11.9094 11.4296 12.5692 11.3723 13.2011C11.315 13.8319 11.2863 14.484 11.2863 15.1573C11.2863 15.8306 11.315 16.4826 11.3723 17.1134C11.4296 17.7442 11.5289 18.4041 11.6666 19.093ZM23.0736 19.093H30.4492C30.6478 18.5126 30.8033 17.8801 30.9154 17.1956C31.0263 16.51 31.0818 15.8306 31.0818 15.1573C31.0818 14.484 31.0263 13.8045 30.9154 13.1189C30.8045 12.4333 30.6491 11.8009 30.4492 11.2215H23.0718C23.2108 11.9094 23.3083 12.5798 23.3644 13.233C23.4229 13.8862 23.4521 14.5276 23.4521 15.1573C23.4521 15.7869 23.4235 16.4284 23.3662 17.0815C23.3089 17.7347 23.2114 18.4058 23.0736 19.0947M22.6934 9.54387H29.7032C28.6318 7.41438 27.1642 5.70319 25.3006 4.41028C23.4369 3.11738 21.2642 2.29477 18.7825 1.94247C19.6358 2.97254 20.4031 4.15081 21.0844 5.47726C21.7658 6.8026 22.3021 8.15814 22.6934 9.54387ZM12.1018 9.54387H20.8083C20.3257 7.96912 19.7302 6.54536 19.022 5.27259C18.3139 3.99982 17.4582 2.81652 16.4551 1.7227C15.4519 2.8154 14.5962 3.9987 13.8881 5.27259C13.1799 6.54648 12.5832 7.97024 12.1018 9.54387ZM3.20875 9.54387H10.2186C10.6099 8.15926 11.1462 6.80372 11.8275 5.47726C12.5089 4.15081 13.2762 2.97254 14.1294 1.94247C11.6258 2.29589 9.44765 3.12353 7.59493 4.42538C5.74221 5.72947 4.27954 7.43507 3.20692 9.5422" fill="white"/>
</svg>
