<svg width="30" height="30" viewBox="0 0 30 30" fill="none" xmlns="http://www.w3.org/2000/svg">
<path d="M26.1618 11.5471C26.1453 11.5238 26.1278 11.5015 26.1094 11.4802L25.216 10.4938C25.9569 10.3014 26.7538 9.5905 26.7538 8.85645C26.7538 8.00778 25.7246 7.70624 24.8479 7.70624C23.9296 7.70624 23.8235 8.42665 23.8116 8.93422L21.5079 6.39639C20.9489 5.82181 20.2333 5.48674 19.483 5.44812H10.5147C9.76645 5.4884 9.05326 5.82336 8.4957 6.39639L6.19438 8.93967C6.18247 8.43075 6.07526 7.71169 5.15807 7.71169C4.27899 7.71169 3.25221 8.01323 3.25221 8.8619C3.25221 9.5905 4.05029 10.3014 4.79 10.4992L3.89663 11.4857C3.87638 11.5075 3.86209 11.5293 3.84422 11.5525C2.89072 12.5738 2.32347 13.9815 2.26355 15.4753V19.2151C2.26394 20.0879 2.55638 20.9273 3.08069 21.5606V23.011C3.08633 23.4247 3.23493 23.819 3.49393 24.1075C3.75293 24.396 4.1012 24.5551 4.46243 24.55H6.13006C6.49138 24.5555 6.83983 24.3965 7.0989 24.1079C7.35796 23.8194 7.50647 23.4248 7.5118 23.011V22.6398H22.4847V23.011C22.49 23.4248 22.6385 23.8194 22.8976 24.1079C23.1567 24.3965 23.5051 24.5555 23.8664 24.55H25.534C25.8953 24.5551 26.2436 24.396 26.5026 24.1075C26.7615 23.819 26.9101 23.4247 26.9158 23.011V21.5606C27.4401 20.9273 27.7325 20.0879 27.7329 19.2151V15.4753C27.6775 13.981 27.1135 12.571 26.1618 11.5471ZM9.34142 7.52613C9.68 7.22247 10.086 7.03342 10.5135 6.98037H19.4889C19.9164 7.03342 20.3224 7.22247 20.661 7.52613L23.6818 10.8799H6.32183L9.34142 7.52613ZM3.29986 14.9131C3.29623 14.6977 3.32973 14.4837 3.39845 14.2832C3.46717 14.0827 3.56976 13.8997 3.70033 13.7447C3.8309 13.5896 3.98689 13.4657 4.15937 13.3798C4.33184 13.294 4.5174 13.248 4.70543 13.2444C5.48206 13.2444 8.01923 14.95 8.01923 15.8709C8.01923 16.7919 5.48206 16.5791 4.70543 16.5791C4.51761 16.5755 4.33224 16.5296 4.15993 16.4439C3.98761 16.3583 3.83173 16.2345 3.70119 16.0798C3.57065 15.9251 3.46801 15.7424 3.39915 15.5422C3.33029 15.342 3.29655 15.1282 3.29986 14.9131ZM7.51656 21.0039H6.98054H5.39154C5.04199 20.893 4.71274 20.7109 4.41955 20.4663C4.32006 20.3786 4.23149 20.2758 4.1563 20.1607C4.09399 20.0664 4.04421 19.962 4.0086 19.851C3.95863 19.6415 3.95165 19.4217 3.98823 19.2086C4.02481 18.9956 4.10394 18.7951 4.21943 18.623H6.93171L8.7387 20.9984L7.51656 21.0039ZM18.9005 21.0039H11.1043C10.714 21.0035 10.3397 20.8257 10.0636 20.5095C9.7876 20.1934 9.63238 19.7646 9.63207 19.3175H20.3692C20.3686 19.7636 20.2136 20.1912 19.9384 20.5067C19.6631 20.8223 19.2899 21.0001 18.9005 21.0012V21.0039ZM19.2423 18.1673H10.7625C9.87864 18.1673 9.16037 16.9188 9.16037 15.3797H20.8456C20.8456 16.9161 20.1309 18.1645 19.2423 18.1645V18.1673ZM25.995 19.8537C25.9592 19.9642 25.9095 20.0681 25.8473 20.162C25.7724 20.2774 25.6838 20.3803 25.5841 20.4677C25.2912 20.7128 24.9618 20.895 24.6121 21.0053H23.0231H21.2649L23.0731 18.6243H25.7842C25.8999 18.7961 25.9792 18.9963 26.016 19.2091C26.0528 19.4219 26.046 19.6416 25.9962 19.851L25.995 19.8537ZM25.2982 16.5791C24.5228 16.5791 21.9856 16.7906 21.9856 15.8709C21.9856 14.9513 24.5228 13.2444 25.2982 13.2444C25.6741 13.2618 26.0295 13.4451 26.29 13.7559C26.5506 14.0667 26.6961 14.4809 26.6961 14.9117C26.6961 15.3426 26.5506 15.7568 26.29 16.0676C26.0295 16.3784 25.6741 16.5616 25.2982 16.5791Z" fill="url(#paint0_linear_1360_29901)"/>
<defs>
<linearGradient id="paint0_linear_1360_29901" x1="14.9982" y1="24.5502" x2="14.9982" y2="5.44812" gradientUnits="userSpaceOnUse">
<stop stop-color="#FD5900"/>
<stop offset="1" stop-color="#FFC700"/>
</linearGradient>
</defs>
</svg>
