<svg width="30" height="30" viewBox="0 0 30 30" fill="none" xmlns="http://www.w3.org/2000/svg">
<path d="M4.62707 17.1614H7.43742V26.886H4.62707C3.79512 26.886 3.11536 26.1195 3.11536 25.1813V18.8775C3.11536 17.9393 3.79512 17.1728 4.62707 17.1728V17.1614Z" fill="url(#paint0_linear_1360_29938)"/>
<path fill-rule="evenodd" clip-rule="evenodd" d="M25.834 3.11401H8.49168C7.9109 3.11401 7.43817 3.60314 7.43817 4.20406V26.8854H23.1867C25.2262 26.8854 26.8875 25.1665 26.8875 23.0562V4.20406C26.8875 3.60314 26.4147 3.11401 25.834 3.11401ZM11.8489 8.70444H19.2265C19.8796 8.70444 20.3991 9.17334 20.3991 9.75256C20.3991 10.3318 19.8796 10.8007 19.2265 10.8007H11.8489C11.1958 10.8007 10.6762 10.3318 10.6762 9.75256C10.6762 9.17334 11.1958 8.70444 11.8489 8.70444ZM22.0084 14.2948H11.845C11.194 14.2948 10.6762 14.7637 10.6762 15.3429C10.6762 15.9222 11.194 16.3911 11.845 16.3911H22.0084C22.6593 16.3911 23.1771 15.9222 23.1771 15.3429C23.1771 14.7637 22.6593 14.2948 22.0084 14.2948ZM11.8489 19.8836H19.2265C19.8796 19.8836 20.3991 20.3525 20.3991 20.9317C20.3991 21.511 19.8796 21.9799 19.2265 21.9799H11.8489C11.1958 21.9799 10.6762 21.511 10.6762 20.9317C10.6762 20.3525 11.1958 19.8836 11.8489 19.8836Z" fill="url(#paint1_linear_1360_29938)"/>
<defs>
<linearGradient id="paint0_linear_1360_29938" x1="5.27639" y1="26.886" x2="5.27639" y2="17.1614" gradientUnits="userSpaceOnUse">
<stop stop-color="#FFA9B2"/>
<stop offset="0.503" stop-color="#FDD9DD"/>
<stop offset="1" stop-color="#FFDFE2"/>
</linearGradient>
<linearGradient id="paint1_linear_1360_29938" x1="17.1628" y1="26.8854" x2="17.1628" y2="3.11401" gradientUnits="userSpaceOnUse">
<stop stop-color="#D33D54"/>
<stop offset="1" stop-color="#FF717F"/>
</linearGradient>
</defs>
</svg>
