<svg width="30" height="30" viewBox="0 0 30 30" fill="none" xmlns="http://www.w3.org/2000/svg">
<path fill-rule="evenodd" clip-rule="evenodd" d="M26.344 11.9549C26.4932 12.3335 26.7563 12.6564 27.0971 12.879L27.1005 12.8743C27.4624 13.1038 27.7658 13.4146 27.9863 13.782C28.2069 14.1494 28.3387 14.5632 28.3712 14.9905C28.3387 15.4178 28.2069 15.8316 27.9863 16.199C27.7658 16.5663 27.4624 16.8771 27.1005 17.1066C26.7598 17.3292 26.4966 17.6521 26.3474 18.0307C26.2859 18.4356 26.3526 18.8496 26.538 19.2147C26.7268 19.5937 26.8243 20.0116 26.8227 20.435C26.8211 20.8584 26.7205 21.2756 26.5288 21.6531C26.2976 22.0076 25.9866 22.3031 25.6208 22.5159C25.2549 22.7287 24.8443 22.8529 24.4219 22.8787C24.0154 22.901 23.6258 23.0491 23.3072 23.3026C23.0531 23.6214 22.9046 24.0114 22.8821 24.4184C22.8567 24.842 22.7323 25.2537 22.5188 25.6204C22.3054 25.9871 22.0089 26.2986 21.6531 26.5299C21.2752 26.7204 20.8581 26.8203 20.4348 26.8217C20.0116 26.8231 19.5939 26.726 19.2147 26.538C18.8508 26.3552 18.4395 26.2886 18.0365 26.3474C17.6579 26.4966 17.3349 26.7598 17.1124 27.1005C16.8825 27.4623 16.5714 27.7654 16.2039 27.986C15.8363 28.2066 15.4225 28.3384 14.9951 28.3712C14.5677 28.3384 14.1539 28.2066 13.7863 27.986C13.4188 27.7654 13.1077 27.4623 12.8778 27.1005C12.6553 26.7598 12.3324 26.4966 11.9537 26.3474C11.5507 26.2885 11.1394 26.3551 10.7755 26.538C10.3964 26.7263 9.97865 26.8236 9.55536 26.8222C9.13208 26.8208 8.71495 26.7207 8.33711 26.5299C7.98245 26.2986 7.68688 25.9875 7.47407 25.6214C7.26125 25.2553 7.1371 24.8445 7.11155 24.4219C7.08912 24.0148 6.94056 23.6248 6.68648 23.306C6.36785 23.0526 5.97832 22.9045 5.5718 22.8821C5.14949 22.8541 4.73958 22.7277 4.37477 22.5131C4.00996 22.2986 3.70036 22.0017 3.47068 21.6462C3.27953 21.2686 3.17926 20.8517 3.17785 20.4285C3.17645 20.0053 3.27396 19.5877 3.46259 19.2089C3.64643 18.8453 3.71264 18.4336 3.65203 18.0307C3.50281 17.6521 3.23964 17.3292 2.89891 17.1066C2.53761 16.8776 2.23466 16.5675 2.0141 16.201C1.79355 15.8345 1.66145 15.4216 1.6283 14.9951C1.66011 14.5683 1.791 14.1549 2.01056 13.7875C2.23012 13.4202 2.53231 13.1091 2.89313 12.879C3.23386 12.6564 3.49704 12.3335 3.64625 11.9549C3.70686 11.552 3.64066 11.1403 3.45682 10.7767C3.26799 10.3977 3.17048 9.97979 3.17209 9.55638C3.17369 9.13297 3.27437 8.71581 3.46606 8.33827C3.69714 7.98355 4.00805 7.68784 4.3739 7.47483C4.73976 7.26181 5.1504 7.1374 5.57296 7.11155C5.97948 7.08922 6.369 6.94107 6.68763 6.68763C6.94171 6.36883 7.09028 5.97885 7.11271 5.5718C7.139 5.15025 7.26339 4.74066 7.47597 4.37568C7.68854 4.01069 7.98342 3.7004 8.33711 3.46952C8.71469 3.27784 9.13192 3.17726 9.55536 3.17586C9.9788 3.17445 10.3967 3.27226 10.7755 3.46144C11.139 3.64567 11.5507 3.71228 11.9537 3.65203C12.3324 3.50281 12.6553 3.23964 12.8778 2.89891C13.1077 2.53717 13.4188 2.234 13.7863 2.01345C14.1539 1.79289 14.5677 1.66102 14.9951 1.6283C15.422 1.66038 15.8355 1.79137 16.203 2.0109C16.5705 2.23043 16.8818 2.53247 17.1124 2.89313C17.3349 3.23386 17.6579 3.49704 18.0365 3.64625C18.4395 3.70651 18.8512 3.6399 19.2147 3.45566C19.5937 3.26701 20.0115 3.1695 20.4348 3.17091C20.8582 3.17231 21.2754 3.27259 21.6531 3.46375C22.0078 3.69507 22.3033 4.00622 22.5161 4.37228C22.729 4.73834 22.8531 5.14915 22.8787 5.5718C22.9011 5.97885 23.0497 6.36883 23.3037 6.68763C23.6224 6.94107 24.0119 7.08922 24.4184 7.11155C24.841 7.1378 25.2516 7.2625 25.6174 7.4757C25.9833 7.68889 26.2942 7.98467 26.5253 8.33942C26.7165 8.71695 26.8167 9.13393 26.8181 9.55709C26.8195 9.98026 26.722 10.3979 26.5334 10.7767C26.3496 11.1403 26.2833 11.552 26.344 11.9549ZM13.1381 11.5336C13.383 11.9001 13.5137 12.331 13.5137 12.7717C13.5131 13.3626 13.2781 13.929 12.8603 14.3468C12.4425 14.7646 11.876 14.9996 11.2851 15.0002C10.8444 15.0002 10.4135 14.8695 10.047 14.6246C9.68052 14.3797 9.39488 14.0317 9.2262 13.6245C9.05753 13.2173 9.01339 12.7692 9.09938 12.337C9.18537 11.9047 9.39763 11.5076 9.7093 11.1959C10.021 10.8843 10.4181 10.672 10.8504 10.586C11.2827 10.5001 11.7307 10.5442 12.138 10.7129C12.5452 10.8815 12.8932 11.1672 13.1381 11.5336ZM17.4756 15.3758C17.8421 15.1309 18.2729 15.0002 18.7137 15.0002H18.7148C19.3055 15.001 19.8717 15.2362 20.2893 15.6539C20.7069 16.0717 20.9417 16.638 20.9423 17.2287C20.9423 17.6694 20.8116 18.1003 20.5667 18.4667C20.3218 18.8332 19.9737 19.1188 19.5665 19.2875C19.1593 19.4562 18.7112 19.5003 18.2789 19.4143C17.8466 19.3283 17.4495 19.1161 17.1379 18.8044C16.8262 18.4928 16.6139 18.0957 16.5279 17.6634C16.442 17.2311 16.4861 16.7831 16.6548 16.3759C16.8234 15.9687 17.1091 15.6206 17.4756 15.3758ZM17.8894 10.5485C18.085 10.5268 18.2812 10.5832 18.4354 10.7054C18.5893 10.8286 18.688 11.008 18.7098 11.2039C18.7316 11.3999 18.6747 11.5966 18.5515 11.7506L12.6087 19.1789C12.5477 19.255 12.4723 19.3184 12.3868 19.3655C12.3012 19.4125 12.2073 19.4423 12.1103 19.453C12.0133 19.4637 11.9151 19.4553 11.8214 19.428C11.7276 19.4008 11.6402 19.3554 11.564 19.2944C11.4878 19.2334 11.4244 19.158 11.3773 19.0725C11.3303 18.987 11.3005 18.893 11.2898 18.796C11.2791 18.699 11.2876 18.6009 11.3148 18.5071C11.342 18.4134 11.3874 18.3259 11.4484 18.2498L17.3912 10.8215C17.5148 10.6684 17.6938 10.5703 17.8894 10.5485Z" fill="url(#paint0_linear_1360_29911)"/>
<defs>
<linearGradient id="paint0_linear_1360_29911" x1="14.9997" y1="28.3712" x2="14.9997" y2="1.6283" gradientUnits="userSpaceOnUse">
<stop stop-color="#831843"/>
<stop offset="1" stop-color="#EC4899"/>
</linearGradient>
</defs>
</svg>
