<svg width="34" height="35" viewBox="0 0 34 35" fill="none" xmlns="http://www.w3.org/2000/svg">
<path d="M30.6531 10.0953C29.665 5.21839 24.2887 2.36558 19.6934 4.28339C16.7397 5.5212 14.7634 8.48558 14.7634 11.6943V19.7162H22.7853C27.7897 19.7162 31.6466 14.9934 30.6531 10.0953Z" fill="white"/>
<path d="M23.5079 26.0487C24.3526 26.4949 24.6129 27.6265 24.0497 28.3968C23.5344 29.1033 22.9607 29.7674 22.3391 30.3783C21.5635 31.1433 20.4479 31.4568 19.3907 31.2124C11.3741 29.3637 5.11599 23.1055 3.26724 15.089C3.02286 14.0318 3.3363 12.9162 4.1013 12.1405C4.71224 11.519 5.3763 10.9452 6.08286 10.4299C6.85849 9.86678 7.98474 10.1218 8.43099 10.9718L10.0619 14.0637C10.5985 15.0783 10.5454 16.3055 9.9238 17.2777L8.45224 19.5674C10.0247 22.2343 12.2454 24.4549 14.9122 26.0274L17.2019 24.5558C18.1741 23.9343 19.4013 23.8812 20.416 24.4177L23.5079 26.0487Z" fill="#EF5B24"/>
<path opacity="0.2" d="M17.6853 12.2415C17.6853 10.5308 20.3416 10.5308 20.3416 12.2415C20.3416 13.9521 17.6853 13.9521 17.6853 12.2415Z" fill="black"/>
<path opacity="0.2" d="M21.9885 12.2254C21.9885 10.5095 24.6448 10.5095 24.6448 12.2254C24.6448 13.9361 21.9885 13.9361 21.9885 12.2254Z" fill="black"/>
<path opacity="0.2" d="M26.2969 12.2415C26.2969 10.5308 28.9531 10.5308 28.9531 12.2415C28.9531 13.9521 26.2969 13.9521 26.2969 12.2415Z" fill="black"/>
<path d="M17.1541 11.7102C17.1541 9.99959 19.8103 9.99959 19.8103 11.7102C19.8103 13.4208 17.1541 13.4208 17.1541 11.7102Z" fill="#FF9500"/>
<path d="M21.4573 11.6942C21.4573 9.97824 24.1135 9.97824 24.1135 11.6942C24.1135 13.4048 21.4573 13.4048 21.4573 11.6942Z" fill="#FF9500"/>
<path d="M25.7656 11.7102C25.7656 9.99959 28.4219 9.99959 28.4219 11.7102C28.4219 13.4208 25.7656 13.4208 25.7656 11.7102Z" fill="#FF9500"/>
</svg>
