<svg width="20" height="21" viewBox="0 0 20 21" fill="none" xmlns="http://www.w3.org/2000/svg">
<path d="M9 15.4795H11V11.4795H15V9.47949H11V5.47949H9V9.47949H5V11.4795H9V15.4795ZM10 20.4795C8.61667 20.4795 7.31667 20.2212 6.1 19.7045C4.88333 19.1712 3.825 18.4545 2.925 17.5545C2.025 16.6545 1.30833 15.5962 0.775 14.3795C0.258333 13.1628 0 11.8628 0 10.4795C0 9.09616 0.258333 7.79616 0.775 6.57949C1.30833 5.36282 2.025 4.30449 2.925 3.40449C3.825 2.50449 4.88333 1.79616 6.1 1.27949C7.31667 0.746159 8.61667 0.479492 10 0.479492C11.3833 0.479492 12.6833 0.746159 13.9 1.27949C15.1167 1.79616 16.175 2.50449 17.075 3.40449C17.975 4.30449 18.6833 5.36282 19.2 6.57949C19.7333 7.79616 20 9.09616 20 10.4795C20 11.8628 19.7333 13.1628 19.2 14.3795C18.6833 15.5962 17.975 16.6545 17.075 17.5545C16.175 18.4545 15.1167 19.1712 13.9 19.7045C12.6833 20.2212 11.3833 20.4795 10 20.4795ZM10 18.4795C12.2333 18.4795 14.125 17.7045 15.675 16.1545C17.225 14.6045 18 12.7128 18 10.4795C18 8.24616 17.225 6.35449 15.675 4.80449C14.125 3.25449 12.2333 2.47949 10 2.47949C7.76667 2.47949 5.875 3.25449 4.325 4.80449C2.775 6.35449 2 8.24616 2 10.4795C2 12.7128 2.775 14.6045 4.325 16.1545C5.875 17.7045 7.76667 18.4795 10 18.4795Z" fill="white"/>
</svg>
