<svg width="30" height="30" viewBox="0 0 30 30" fill="none" xmlns="http://www.w3.org/2000/svg">
<path fill-rule="evenodd" clip-rule="evenodd" d="M23.8564 2.31079C24.2706 2.31079 24.6064 2.64658 24.6064 3.06079V5.39551H26.9407C27.3549 5.39551 27.6907 5.7313 27.6907 6.14551C27.6907 6.55973 27.3549 6.89551 26.9407 6.89551H24.6064V9.22937C24.6064 9.64358 24.2706 9.97937 23.8564 9.97937C23.4421 9.97937 23.1064 9.64358 23.1064 9.22937V6.89551H20.7721C20.3579 6.89551 20.0221 6.55973 20.0221 6.14551C20.0221 5.7313 20.3579 5.39551 20.7721 5.39551H23.1064V3.06079C23.1064 2.64658 23.4421 2.31079 23.8564 2.31079ZM26.5785 15.6382C26.6625 15.6781 26.7366 15.7359 26.7955 15.8073C26.8547 15.8786 26.8973 15.9619 26.9204 16.0512C26.9435 16.1406 26.9465 16.2339 26.9292 16.3245L26.5731 18.0288C26.5445 18.171 26.4668 18.2989 26.3532 18.3905C26.2396 18.482 26.0973 18.5315 25.9508 18.5304H25.1924C25.9285 19.3636 26.3107 20.446 26.259 21.5515C26.2074 22.6571 25.7259 23.7 24.9153 24.4624V26.797C24.915 27.0457 24.815 27.2842 24.6373 27.46C24.4596 27.6359 24.2187 27.7348 23.9673 27.7352H21.7529C21.5015 27.7352 21.2604 27.6363 21.0826 27.4604C20.9048 27.2844 20.8049 27.0458 20.8049 26.797V25.8348H8.39841V26.797C8.39841 26.9202 8.37389 27.0422 8.32625 27.156C8.27861 27.2698 8.20878 27.3733 8.12075 27.4604C8.03272 27.5475 7.92822 27.6166 7.8132 27.6637C7.69818 27.7109 7.57491 27.7352 7.45042 27.7352H5.23844C4.98702 27.7352 4.74589 27.6363 4.56811 27.4604C4.39033 27.2844 4.29045 27.0458 4.29045 26.797V24.4107L4.2625 24.3891C3.83475 23.9925 3.49616 23.5112 3.26875 22.9765C3.04135 22.4419 2.93022 21.8659 2.9426 21.2859C2.9391 20.2744 3.30267 19.2953 3.96716 18.5268H3.24888C3.10365 18.5268 2.96286 18.4772 2.85019 18.3866C2.73752 18.2959 2.65986 18.1695 2.63025 18.0288L2.27901 16.3281C2.26007 16.2372 2.26182 16.1433 2.28412 16.0531C2.30642 15.963 2.34871 15.8789 2.40794 15.8069C2.46717 15.7349 2.54184 15.6769 2.62654 15.637C2.71124 15.5972 2.80384 15.5765 2.89763 15.5764H5.30407C5.71064 14.19 6.48245 12.9356 7.54036 11.9416C10.5764 9.97031 18.627 9.97031 21.663 11.9416C22.7224 12.9343 23.4945 14.1892 23.8993 15.5764H26.3094C26.4026 15.5772 26.4944 15.5983 26.5785 15.6382ZM20.6238 13.5076C18.2052 11.932 11.0054 11.932 8.58558 13.5076C7.81678 14.3894 7.25923 15.4317 6.95455 16.5567H22.2524C21.9485 15.4319 21.3918 14.3896 20.6238 13.5076ZM6.0618 20.5004C5.857 20.8037 5.74768 21.1604 5.74768 21.5253C5.74768 21.7677 5.79595 22.0077 5.88972 22.2316C5.98349 22.4556 6.12092 22.659 6.29418 22.8303C6.46743 23.0017 6.6731 23.1376 6.89944 23.2302C7.12578 23.3229 7.36834 23.3705 7.61328 23.3703C7.98197 23.3701 8.34231 23.2617 8.64874 23.0588C8.95518 22.8559 9.19395 22.5677 9.33488 22.2305C9.4758 21.8934 9.51255 21.5224 9.44047 21.1646C9.3684 20.8068 9.19074 20.4781 8.92995 20.2202C8.66916 19.9623 8.33696 19.7867 7.97534 19.7156C7.61372 19.6445 7.23892 19.6811 6.89832 19.8208C6.55771 19.9605 6.26661 20.197 6.0618 20.5004ZM20.5798 23.0594C20.8864 23.2621 21.2468 23.3703 21.6156 23.3703C22.11 23.3703 22.5843 23.1759 22.9339 22.8299C23.2835 22.4839 23.48 22.0146 23.48 21.5253C23.48 21.1604 23.3706 20.8036 23.1658 20.5002C22.9609 20.1968 22.6697 19.9603 22.3291 19.8207C21.9884 19.681 21.6135 19.6445 21.2519 19.7157C20.8902 19.7869 20.558 19.9626 20.2973 20.2206C20.0365 20.4787 19.859 20.8074 19.787 21.1653C19.7151 21.5232 19.752 21.8942 19.8931 22.2313C20.0342 22.5685 20.2732 22.8566 20.5798 23.0594Z" fill="url(#paint0_linear_1360_29976)"/>
<defs>
<linearGradient id="paint0_linear_1360_29976" x1="14.5189" y1="27.7352" x2="14.5189" y2="10.5814" gradientUnits="userSpaceOnUse">
<stop stop-color="#E62EB2"/>
<stop offset="1" stop-color="#FF93C7"/>
</linearGradient>
</defs>
</svg>
