<svg width="34" height="35" viewBox="0 0 34 35" fill="none" xmlns="http://www.w3.org/2000/svg">
<path d="M30.4703 4.01426C28.1902 1.73522 25.1596 0.479492 21.9351 0.479492C18.7112 0.479492 15.6799 1.73522 13.4005 4.01426C13.3886 4.02622 13.3767 4.03823 13.3648 4.05025L0.291803 17.1209C-0.0972676 17.5099 -0.0972676 18.1405 0.291803 18.5295C0.486338 18.724 0.741313 18.8213 0.996221 18.8213C1.25113 18.8213 1.50617 18.7241 1.70064 18.5295L10.1165 10.1151C9.7784 11.7698 9.78909 13.4822 10.1486 15.1333L6.66816 18.6131C6.27909 19.0021 6.27909 19.6328 6.66816 20.0218C6.8627 20.2163 7.11767 20.3136 7.37258 20.3136C7.62749 20.3136 7.88253 20.2164 8.077 20.0218L10.8277 17.2715C11.2915 18.3655 11.9238 19.4044 12.7247 20.3482L0.330657 32.7403C-0.0584137 33.1293 -0.0584137 33.7599 0.330657 34.1489C0.525192 34.3434 0.780167 34.4407 1.03507 34.4407C1.28998 34.4407 1.54502 34.3435 1.73949 34.1489L14.1334 21.7572C15.0453 22.5322 16.055 23.1595 17.1329 23.6268L16.6312 24.1285C16.2421 24.5175 16.2421 25.1482 16.6312 25.5372C16.8257 25.7317 17.0807 25.8289 17.3356 25.8289C17.5905 25.8289 17.8455 25.7317 18.04 25.5371L19.2576 24.3197C20.1262 24.5154 21.0229 24.6159 21.935 24.6159C22.7589 24.6159 23.57 24.534 24.3592 24.374L15.9527 32.779C15.5636 33.168 15.5636 33.7987 15.9527 34.1877C16.1473 34.3822 16.4022 34.4795 16.6571 34.4795C16.912 34.4795 17.1671 34.3823 17.3616 34.1877L30.4701 21.0814C30.4736 21.0779 30.477 21.0745 30.4804 21.0709C35.1766 16.3652 35.1732 8.71638 30.4703 4.01426ZM15.7583 18.7238C12.3525 15.3185 12.3525 9.7776 15.7583 6.37232C19.1642 2.96638 24.7067 2.96638 28.1125 6.37232C31.5184 9.7776 31.5184 15.3185 28.1125 18.7238C26.4621 20.3733 24.269 21.2817 21.9351 21.2817C19.6018 21.2817 17.4081 20.3733 15.7583 18.7238Z" fill="#FDFDFD"/>
<path d="M26.7032 7.78079C25.3888 6.46662 23.6619 5.80921 21.9351 5.80921C20.2089 5.80921 18.4821 6.46662 17.167 7.78079C14.5382 10.4091 14.5382 14.6863 17.167 17.3153C18.4409 18.5883 20.1345 19.2895 21.9351 19.2895C23.7363 19.2895 25.43 18.5883 26.7032 17.3153C29.3326 14.6863 29.3326 10.4091 26.7032 7.78079ZM16.3023 12.5474C16.3023 11.9975 16.7479 11.5513 17.2985 11.5513H18.4097C18.9596 11.5513 19.4059 11.9975 19.4059 12.5474C19.4059 13.0979 18.9596 13.5435 18.4097 13.5435H17.2985C16.7479 13.5435 16.3023 13.0979 16.3023 12.5474ZM20.1452 15.7475L19.3594 16.533C19.1648 16.7276 18.9098 16.8252 18.6548 16.8252C18.3997 16.8252 18.1447 16.7276 17.9501 16.533C17.5615 16.1439 17.5615 15.5137 17.9501 15.1246L18.7365 14.339C19.1257 13.9499 19.756 13.9499 20.1452 14.339C20.5344 14.7275 20.5344 15.3583 20.1452 15.7475ZM20.1484 10.7657C19.9538 10.9603 19.6988 11.0572 19.4437 11.0572C19.1887 11.0572 18.9336 10.9603 18.7397 10.7657L17.9533 9.97948C17.5641 9.59034 17.5641 8.96015 17.9533 8.57101C18.3425 8.18188 18.9735 8.18188 19.3627 8.57101L20.1484 9.35659C20.5377 9.74573 20.5377 10.3766 20.1484 10.7657ZM22.9313 17.1885C22.9313 17.7383 22.4857 18.1846 21.9351 18.1846C21.3852 18.1846 20.9388 17.7383 20.9388 17.1885V16.0775C20.9388 15.527 21.3852 15.0814 21.9351 15.0814C22.4857 15.0814 22.9313 15.527 22.9313 16.0775V17.1885ZM22.9313 9.02722C22.9313 9.57706 22.4857 10.0233 21.9351 10.0233C21.3852 10.0233 20.9388 9.57706 20.9388 9.02722V7.91559C20.9388 7.36575 21.3852 6.91951 21.9351 6.91951C22.4857 6.91951 22.9313 7.36575 22.9313 7.91559V9.02722ZM23.7224 9.35394L24.5081 8.56769C24.8973 8.17856 25.5283 8.17856 25.9175 8.56769C26.306 8.95683 26.306 9.58768 25.9175 9.97616L25.1311 10.7624C24.9365 10.957 24.6821 11.0539 24.4271 11.0539C24.172 11.0539 23.917 10.957 23.7224 10.7624C23.3332 10.3733 23.3332 9.74241 23.7224 9.35394ZM25.9201 16.5364C25.7255 16.7309 25.4711 16.8279 25.2161 16.8279C24.9611 16.8279 24.706 16.7309 24.5114 16.5364L23.7257 15.7508C23.3365 15.3617 23.3365 14.7308 23.7257 14.3417C24.1149 13.9532 24.7452 13.9532 25.1344 14.3417L25.9201 15.1279C26.3093 15.517 26.3093 16.1472 25.9201 16.5364ZM26.5723 13.5435H25.4612C24.9106 13.5435 24.4649 13.0979 24.4649 12.5474C24.4649 11.9975 24.9106 11.5513 25.4612 11.5513H26.5723C27.1229 11.5513 27.5686 11.9975 27.5686 12.5474C27.5686 13.0979 27.1229 13.5435 26.5723 13.5435Z" fill="#FF9500"/>
<path d="M4.58003 23.5184L5.99446 22.1042C6.38353 21.7152 6.38353 21.0846 5.99446 20.6956C5.60545 20.3066 4.97462 20.3065 4.58554 20.6956L3.17111 22.1097C2.78204 22.4987 2.78204 23.1294 3.17111 23.5184C3.36565 23.7129 3.62063 23.8101 3.87554 23.8101C4.13045 23.8101 4.38549 23.7129 4.58003 23.5184Z" fill="#FF9500"/>
<path d="M16.0108 26.1573C15.6218 25.7683 14.991 25.7683 14.6019 26.1573L9.38887 31.3695C8.9998 31.7585 8.9998 32.3891 9.38887 32.7781C9.5834 32.9726 9.83838 33.0699 10.0933 33.0699C10.3482 33.0699 10.6032 32.9727 10.7977 32.7781L16.0108 27.5659C16.3999 27.1769 16.3999 26.5463 16.0108 26.1573Z" fill="#FF9500"/>
</svg>
