<svg width="147" height="30" viewBox="0 0 147 30" fill="none" xmlns="http://www.w3.org/2000/svg">
<path d="M0.807578 16.33C2.01999 13.1394 6.56654 10.68 8.68826 9.84908C18.3876 5.86088 33.9974 3.86658 40.5141 4.86373C47.0308 5.86088 39.9079 7.85486 33.6943 9.849C27.4807 11.8431 32.0272 12.8402 37.6346 11.8431C43.242 10.8461 54.9115 9.849 64.9139 9.35046C74.9163 8.85193 64.7624 7.85486 54.9115 7.85486C45.0606 7.85486 45.2122 5.8608 48.6979 4.86373C52.1836 3.86666 60.0643 -0.121626 69.3089 0.37691C78.5536 0.875445 100.377 1.87252 109.773 5.36226C119.169 8.85201 138.568 18.3242 143.266 21.3154C147.964 24.3066 147.358 32.7817 139.023 27.7964C130.687 22.811 113.41 13.8374 75.5225 12.3418C37.6346 10.8462 8.8398 19.3213 5.80876 22.811C2.77773 26.3007 0.656004 26.3007 1.86842 23.3095C3.08083 20.3183 3.38396 19.8198 2.17154 20.8169C0.959129 21.8139 -0.707939 20.3183 0.807578 16.33Z" fill="#E5B32C"/>
</svg>
