<svg xmlns="http://www.w3.org/2000/svg" xmlns:xlink="http://www.w3.org/1999/xlink" width="20" height="20" viewBox="0 0 20 20">
  <defs>
    <clipPath id="clip-path">
      <path id="Icon_simple-remove" data-name="Icon/simple-remove" d="M10.72,11.78,6,7.061,1.281,11.78A.75.75,0,0,1,.22,10.72L4.939,6,.22,1.281A.75.75,0,0,1,1.281.22L6,4.939,10.72.22a.75.75,0,0,1,1.06,1.061L7.061,6l4.719,4.72a.75.75,0,1,1-1.06,1.06Z" transform="translate(4 4)"/>
    </clipPath>
  </defs>
  <g id="small-remove" opacity="0.439">
    <rect id="Box" width="20" height="20" fill="none"/>
    <g id="Group_9" data-name="Group 9">
      <path id="Icon_simple-remove-2" data-name="Icon/simple-remove" d="M10.72,11.78,6,7.061,1.281,11.78A.75.75,0,0,1,.22,10.72L4.939,6,.22,1.281A.75.75,0,0,1,1.281.22L6,4.939,10.72.22a.75.75,0,0,1,1.06,1.061L7.061,6l4.719,4.72a.75.75,0,1,1-1.06,1.06Z" transform="translate(4 4)"/>
    </g>
  </g>
</svg>
