<svg width="30" height="32" viewBox="0 0 30 32" fill="none" xmlns="http://www.w3.org/2000/svg">
<path fill-rule="evenodd" clip-rule="evenodd" d="M11.6754 6.30611C11.5897 5.79753 11.5251 5.29473 11.4834 4.79188C11.4206 4.03759 11.4594 3.27754 11.4372 2.52325C11.4274 2.20325 11.3891 1.36898 11.4046 1.24898C11.5446 0.203263 12.3886 0.043244 12.6354 0.0146726C12.7549 -0.00247027 13.9811 -0.139552 14.2457 1.22045C14.5703 2.88331 14.6743 4.55757 14.5594 6.19757C14.8274 7.59185 15.2857 8.98039 15.8909 10.2375C18.2989 15.2375 22.8874 15.7233 27.8589 15.6775C28.6234 15.6661 29.2583 16.2661 29.2983 17.0261C29.3383 17.7918 28.7692 18.4547 28.008 18.5233C25.2292 18.7918 20.2988 21.0204 18.5943 23.3404C18.2377 23.8261 18.0303 24.9976 17.756 26.1462C17.3731 27.7404 16.9177 29.3176 16.4074 29.9804C16.3309 30.0833 15.4 31.1347 15.1223 31.289C14.4548 31.6547 13.9206 31.4433 13.6172 31.249C13.3137 31.0547 12.9703 30.6718 12.8331 30.0375C12.6897 29.3747 12.8109 28.0147 12.7886 27.7232C12.7074 26.6661 12.496 24.5918 12.0646 22.809C11.832 21.849 11.584 20.9633 11.1737 20.5233C9.65486 18.8947 7.22629 19.1347 5.18115 19.4033C4.94629 19.4318 4.71144 19.4662 4.47715 19.4947C3.64458 19.7404 2.76056 19.9233 1.82627 20.0318C0.415417 20.1975 0.183433 18.9004 0.170861 18.8147C0.144575 18.6261 0.0468508 17.6547 1.11028 17.2661C1.22628 17.2261 2.08229 17.0375 2.412 16.9633C2.87143 16.8604 3.33599 16.7804 3.80228 16.7061C8.61885 15.209 11.2349 11.0032 11.6754 6.30611ZM13.3286 11.5004C15.1469 15.2604 17.9063 17.0776 21.1771 17.9004H21.1766C19.1343 18.969 17.2766 20.3062 16.292 21.649C15.9183 22.1576 15.5754 23.1804 15.2663 24.329C15.0989 23.2604 14.8726 22.1232 14.5737 21.1518C14.2337 20.0432 13.776 19.1233 13.2651 18.5747C12.2788 17.5176 11.0411 16.929 9.71027 16.6376C11.3034 15.2262 12.5114 13.4662 13.3286 11.5004Z" fill="#E5B32C"/>
</svg>
