<svg width="30" height="30" viewBox="0 0 30 30" fill="none" xmlns="http://www.w3.org/2000/svg">
<path d="M28.6324 11.3595C28.5665 11.2805 28.4836 11.2166 28.3897 11.1725C28.2957 11.1283 28.193 11.105 28.0888 11.1041H25.3937C24.941 9.56998 24.0777 8.18213 22.893 7.08425C19.498 4.90405 10.4955 4.90405 7.10047 7.08425C5.91747 8.18348 5.05441 9.57084 4.59976 11.1041H1.90878C1.8039 11.1042 1.70035 11.1271 1.60563 11.1712C1.51092 11.2153 1.42742 11.2794 1.36119 11.359C1.29496 11.4386 1.24766 11.5316 1.22272 11.6314C1.19778 11.7311 1.19583 11.835 1.21701 11.9355L1.60979 13.8164C1.64289 13.972 1.72974 14.1117 1.85573 14.212C1.98172 14.3123 2.13916 14.3671 2.30156 14.3671H3.10477C2.36171 15.2171 1.95515 16.2999 1.95907 17.4186C1.94523 18.06 2.06949 18.697 2.32379 19.2883C2.57808 19.8796 2.95671 20.4119 3.43503 20.8505L3.46629 20.8745V23.5136C3.46629 23.7888 3.57798 24.0527 3.77678 24.2472C3.97558 24.4418 4.24522 24.5511 4.52637 24.5511H6.9999C7.13911 24.5511 7.27696 24.5243 7.40558 24.4722C7.53419 24.42 7.65105 24.3436 7.74949 24.2472C7.84793 24.1509 7.92601 24.0365 7.97929 23.9106C8.03256 23.7847 8.05998 23.6498 8.05998 23.5136V22.4494H21.9335V23.5136C21.9335 23.7888 22.0452 24.0527 22.244 24.2472C22.4428 24.4418 22.7124 24.5511 22.9936 24.5511H25.4698C25.7508 24.5508 26.0203 24.4414 26.219 24.2468C26.4177 24.0523 26.5295 23.7886 26.5299 23.5136V20.9317C27.4363 20.0885 27.9747 18.935 28.0325 17.7123C28.0902 16.4897 27.6629 15.2925 26.8398 14.3711H27.6878C27.8516 14.3723 28.0107 14.3176 28.1378 14.2163C28.2648 14.1151 28.3517 13.9737 28.3837 13.8164L28.7819 11.9315C28.8012 11.8313 28.7979 11.7281 28.7721 11.6293C28.7462 11.5304 28.6986 11.4383 28.6324 11.3595ZM8.26928 8.81617C10.9752 7.07361 19.0264 7.07361 21.731 8.81617C22.5897 9.79162 23.2123 10.9443 23.5521 12.1882H6.44539C6.7861 10.9441 7.40958 9.79139 8.26928 8.81617ZM5.09583 17.6833C5.09583 17.2798 5.21807 16.8853 5.44709 16.5498C5.67611 16.2142 6.00164 15.9527 6.38251 15.7982C6.76339 15.6437 7.18251 15.6033 7.58689 15.6819C7.99127 15.7605 8.36275 15.9547 8.65437 16.24C8.946 16.5252 9.14466 16.8887 9.22526 17.2844C9.30586 17.6801 9.26476 18.0904 9.10718 18.4633C8.94959 18.8361 8.68258 19.1549 8.33991 19.3793C7.99725 19.6037 7.5943 19.7236 7.18202 19.7238C6.90812 19.724 6.63687 19.6714 6.38377 19.5689C6.13067 19.4664 5.90068 19.3161 5.70694 19.1266C5.5132 18.9371 5.35951 18.7121 5.25466 18.4645C5.1498 18.2168 5.09583 17.9514 5.09583 17.6833ZM22.84 19.7238C22.4276 19.7238 22.0246 19.6042 21.6817 19.3799C21.3389 19.1557 21.0716 18.837 20.9139 18.4642C20.7561 18.0913 20.7148 17.681 20.7952 17.2852C20.8757 16.8894 21.0742 16.5258 21.3658 16.2404C21.6574 15.9551 22.0288 15.7607 22.4333 15.682C22.8377 15.6032 23.2569 15.6437 23.6378 15.7981C24.0188 15.9525 24.3444 16.2141 24.5735 16.5496C24.8025 16.8852 24.9248 17.2797 24.9248 17.6833C24.9248 18.2245 24.7052 18.7435 24.3142 19.1262C23.9232 19.5088 23.3929 19.7238 22.84 19.7238Z" fill="url(#paint0_linear_1360_29890)"/>
<defs>
<linearGradient id="paint0_linear_1360_29890" x1="14.9984" y1="24.5511" x2="14.9984" y2="5.4491" gradientUnits="userSpaceOnUse">
<stop stop-color="#5558FF"/>
<stop offset="1" stop-color="#00C0FF"/>
</linearGradient>
</defs>
</svg>
