<svg width="40" height="41" viewBox="0 0 40 41" fill="none" xmlns="http://www.w3.org/2000/svg">
<path d="M14.738 18.1315L14.8133 18.1342L14.8813 18.1228C14.8839 18.1226 14.8902 18.122 14.9007 18.1215C14.9217 18.1203 14.9507 18.1195 14.9872 18.1195C15.0604 18.1195 15.1495 18.1228 15.2401 18.1298L15.2861 18.1333L15.3321 18.1312C19.0015 17.9627 21.879 14.9479 21.8976 11.2524H21.8977V11.2486C21.8977 7.45109 18.7952 4.34863 14.9977 4.34863C11.2001 4.34863 8.09766 7.45109 8.09766 11.2486C8.09766 14.9863 11.018 18.0006 14.738 18.1315ZM15.2643 19.132H15.264H15.2637H15.2634H15.2632H15.2629H15.2626H15.2623H15.262H15.2617H15.2614H15.2611H15.2608H15.2605H15.2603H15.26H15.2597H15.2594H15.2591H15.2588H15.2585H15.2583H15.258H15.2577H15.2574H15.2571H15.2568H15.2565H15.2563H15.256H15.2557H15.2554H15.2551H15.2549H15.2546H15.2543H15.254H15.2537H15.2535H15.2532H15.2529H15.2526H15.2523H15.2521H15.2518H15.2515H15.2512H15.2509H15.2507H15.2504H15.2501H15.2498H15.2496H15.2493H15.249H15.2487H15.2485H15.2482H15.2479H15.2477H15.2474H15.2471H15.2468H15.2466H15.2463H15.246H15.2457H15.2455H15.2452H15.2449H15.2447H15.2444H15.2441H15.2439H15.2436H15.2433H15.2431H15.2428H15.2425H15.2422H15.242H15.2417H15.2414H15.2412H15.2409H15.2406H15.2404H15.2401H15.2399H15.2396H15.2393H15.2391H15.2388H15.2385H15.2383H15.238H15.2377H15.2375H15.2372H15.2369H15.2367H15.2364H15.2362H15.2359H15.2356H15.2354H15.2351H15.2349H15.2346H15.2343H15.2341H15.2338H15.2336H15.2333H15.233H15.2328H15.2325H15.2323H15.232H15.2317H15.2315H15.2312H15.231H15.2307H15.2305H15.2302H15.2299H15.2297H15.2294H15.2292H15.2289H15.2287H15.2284H15.2281H15.2279H15.2276H15.2274H15.2271H15.2269H15.2266H15.2264H15.2261H15.2259H15.2256H15.2253H15.2251H15.2248H15.2246H15.2243H15.2241H15.2238H15.2236H15.2233H15.2231H15.2228H15.2226H15.2223H15.2221H15.2218H15.2216H15.2213H15.2211H15.2208H15.2206H15.2203H15.2201H15.2198H15.2196H15.2193H15.2191H15.2188H15.2186H15.2183H15.2181H15.2178H15.2176H15.2173H15.2171H15.2168H15.2166H15.2163H15.2161H15.2158H15.2156H15.2153H15.2151H15.2148H15.2146H15.2143H15.2141H15.2138H15.2136H15.2133H15.2131H15.2129H15.2126H15.2124H15.2121H15.2119H15.2116H15.2114H15.2111H15.2109H15.2106H15.2104H15.2101H15.2099H15.2096H15.2094H15.2092H15.2089H15.2087H15.2084H15.2082H15.2079H15.2077H15.2074H15.2072H15.2069H15.2067H15.2065H15.2062H15.206H15.2057H15.2055H15.2052H15.205H15.2047H15.2045H15.2043H15.204H15.2038H15.2035H15.2033H15.203H15.2028H15.2025H15.2023H15.2021H15.2018H15.2016H15.2013H15.2011H15.2008H15.2006H15.2003H15.2001H15.1999H15.1996H15.1994H15.1991H15.1989H15.1986H15.1984H15.1981H15.1979H15.1977H15.1974H15.1972H15.1969H15.1967H15.1964H15.1962H15.1959H15.1957H15.1955H15.1952H15.195H15.1947H15.1945H15.1942H15.194H15.1937H15.1935H15.1933H15.193H15.1928H15.1925H15.1923H15.192H15.1918H15.1915H15.1913H15.1911H15.1908H15.1906H15.1903H15.1901H15.1898H15.1896H15.1893H15.1891H15.1889C15.0569 19.1149 14.9189 19.1162 14.7937 19.1302C10.3911 18.9631 7.09766 15.5027 7.09766 11.2486C7.09766 6.89618 10.6452 3.34863 14.9977 3.34863C19.3496 3.34863 22.8968 6.89532 22.8977 11.2471C22.8819 15.5269 19.5377 18.9891 15.3019 19.132H15.3019H15.3018H15.3017H15.3016H15.3015H15.3014H15.3013H15.3012H15.3011H15.301H15.3009H15.3008H15.3007H15.3007H15.3006H15.3005H15.3004H15.3003H15.3002H15.3001H15.3H15.2999H15.2998H15.2997H15.2996H15.2995H15.2994H15.2993H15.2992H15.2991H15.299H15.2989H15.2988H15.2987H15.2986H15.2985H15.2984H15.2983H15.2982H15.2981H15.298H15.2979H15.2978H15.2977H15.2976H15.2975H15.2974H15.2973H15.2972H15.2971H15.297H15.2969H15.2968H15.2967H15.2966H15.2965H15.2965H15.2964H15.2963H15.2962H15.2961H15.296H15.2959H15.2958H15.2957H15.2956H15.2955H15.2954H15.2953H15.2952H15.2951H15.295H15.2949H15.2948H15.2947H15.2946H15.2945H15.2944H15.2943H15.2942H15.2941H15.294H15.2939H15.2938H15.2937H15.2936H15.2935H15.2934H15.2933H15.2932H15.2931H15.293H15.2929H15.2928H15.2927H15.2926H15.2925H15.2924H15.2923H15.2923H15.2922H15.2921H15.292H15.2919H15.2918H15.2917H15.2916H15.2915H15.2914H15.2913H15.2912H15.2911H15.291H15.2909H15.2908H15.2907H15.2906H15.2905H15.2904H15.2903H15.2902H15.2901H15.29H15.2899H15.2898H15.2897H15.2896H15.2895H15.2894H15.2893H15.2892H15.2891H15.289H15.2889H15.2888H15.2887H15.2886H15.2885H15.2884H15.2883H15.2882H15.2882H15.2881H15.288H15.2879H15.2878H15.2877H15.2876H15.2875H15.2874H15.2873H15.2872H15.2871H15.287H15.2869H15.2868H15.2867H15.2866H15.2865H15.2864H15.2863H15.2862H15.2861H15.286H15.2859H15.2858H15.2857H15.2856H15.2855H15.2854H15.2853H15.2852H15.2851H15.285H15.2849H15.2848H15.2847H15.2846H15.2845H15.2844H15.2843H15.2842H15.2841H15.284H15.284H15.2839H15.2838H15.2837H15.2836H15.2835H15.2834H15.2833H15.2832H15.2831H15.283H15.2829H15.2828H15.2827H15.2826H15.2825H15.2824H15.2823H15.2822H15.2821H15.282H15.2819H15.2818H15.2817H15.2816H15.2815H15.2814H15.2813H15.2812H15.2811H15.281H15.2809H15.2808H15.2807H15.2806H15.2805H15.2804H15.2803H15.2802H15.2801H15.28H15.2799H15.2799H15.2798H15.2797H15.2796H15.2795H15.2794H15.2793H15.2792H15.2791H15.279H15.2789H15.2788H15.2787H15.2786H15.2785H15.2784H15.2783H15.2782H15.2781H15.278H15.2779H15.2778H15.2777H15.2776H15.2775H15.2774H15.2773H15.2772H15.2771H15.277H15.2769H15.2768H15.2767H15.2766H15.2765H15.2764H15.2763H15.2762H15.2761H15.276H15.2759H15.2758H15.2757H15.2757H15.2756H15.2755H15.2754H15.2753H15.2752H15.2751H15.275H15.2749H15.2748H15.2747H15.2746H15.2745H15.2744H15.2743H15.2742H15.2741H15.274H15.2739H15.2738H15.2737H15.2736H15.2735H15.2734H15.2733H15.2732H15.2731H15.273H15.2729H15.2728H15.2727H15.2726H15.2725H15.2724H15.2723H15.2722H15.2721H15.272H15.2719H15.2718H15.2717H15.2716H15.2715H15.2715H15.2714H15.2713H15.2712H15.2711H15.271H15.2709H15.2708H15.2707H15.2706H15.2705H15.2704H15.2703H15.2702H15.2701H15.27H15.2699H15.2698H15.2697H15.2696H15.2695H15.2694H15.2693H15.2692H15.2691H15.269H15.2689H15.2688H15.2687H15.2686H15.2685H15.2684H15.2683H15.2682H15.2681H15.268H15.2679H15.2678H15.2677H15.2676H15.2675H15.2674H15.2674H15.2673H15.2672H15.2671H15.267H15.2669H15.2668H15.2667H15.2666H15.2665H15.2664H15.2663H15.2662H15.2661H15.266H15.2659H15.2658H15.2657H15.2656H15.2655H15.2654H15.2653H15.2652H15.2651H15.265H15.2649H15.2648H15.2647H15.2646H15.2645H15.2644H15.2643Z" fill="#2C5E79" stroke="#2C5E79" stroke-width="1.5"/>
<path d="M33.6846 13.016C33.6846 16.4399 31.012 19.2079 27.6028 19.3493H27.6028H27.6027H27.6026H27.6025H27.6024H27.6023H27.6022H27.6021H27.602H27.6019H27.6018H27.6017H27.6016H27.6015H27.6014H27.6013H27.6012H27.6011H27.601H27.6009H27.6008H27.6007H27.6006H27.6005H27.6004H27.6003H27.6002H27.6001H27.6H27.5999H27.5998H27.5997H27.5996H27.5995H27.5995H27.5994H27.5993H27.5992H27.5991H27.599H27.5989H27.5988H27.5987H27.5986H27.5985H27.5984H27.5983H27.5982H27.5981H27.598H27.5979H27.5978H27.5977H27.5976H27.5975H27.5974H27.5973H27.5972H27.5971H27.597H27.5969H27.5968H27.5967H27.5966H27.5965H27.5964H27.5963H27.5962H27.5961H27.596H27.5959H27.5958H27.5957H27.5956H27.5955H27.5954H27.5953H27.5953H27.5952H27.5951H27.595H27.5949H27.5948H27.5947H27.5946H27.5945H27.5944H27.5943H27.5942H27.5941H27.594H27.5939H27.5938H27.5937H27.5936H27.5935H27.5934H27.5933H27.5932H27.5931H27.593H27.5929H27.5928H27.5927H27.5926H27.5925H27.5924H27.5923H27.5922H27.5921H27.592H27.5919H27.5918H27.5917H27.5916H27.5915H27.5914H27.5913H27.5912H27.5911H27.5911H27.591H27.5909H27.5908H27.5907H27.5906H27.5905H27.5904H27.5903H27.5902H27.5901H27.59H27.5899H27.5898H27.5897H27.5896H27.5896L27.5038 19.3207L27.3451 19.3362C26.9969 19.3701 26.7337 19.1078 26.7144 18.9098C26.6811 18.5684 26.8718 18.3767 27.0806 18.3453C27.2399 18.333 27.4187 18.3326 27.6012 18.3326H27.6218L27.6423 18.3315C30.4732 18.1764 32.6846 15.8476 32.6846 12.9993C32.6846 10.0517 30.2988 7.66595 27.3512 7.66595H27.3421L27.333 7.66617C27.0817 7.6723 26.8512 7.45548 26.8512 7.18262C26.8512 6.9135 27.0821 6.68262 27.3512 6.68262C30.837 6.68262 33.6846 9.53016 33.6846 13.016Z" fill="#2C5E79" stroke="#2C5E79" stroke-width="1.5"/>
<path d="M6.66535 34.9765L6.66134 34.9739C4.50395 33.546 3.41406 31.6592 3.41406 29.6826C3.41406 27.7048 4.50533 25.801 6.66319 24.3568C9.01543 22.7969 12.1377 21.9951 15.2932 21.9951C18.4496 21.9951 21.5629 22.7973 23.8976 24.3563L23.898 24.3567C26.0431 25.7867 27.1474 27.675 27.1474 29.6493C27.1474 31.6273 26.0559 33.5313 23.8975 34.9756C21.5451 36.5437 18.4313 37.3493 15.2807 37.3493C12.1286 37.3493 8.99936 36.543 6.66535 34.9765ZM7.2147 25.2086C5.48252 26.3634 4.41406 27.9354 4.41406 29.6993C4.41406 31.4505 5.50358 33.0214 7.21461 34.1566C9.44145 35.6495 12.3836 36.3701 15.2807 36.3701C18.1782 36.3701 21.1207 35.6493 23.3476 34.1561C25.0793 33.0013 26.1474 31.4295 26.1474 29.6659C26.1474 27.9146 25.0576 26.3435 23.3462 25.2082C21.1195 23.7239 18.1775 23.0076 15.2807 23.0076C12.3837 23.0076 9.44148 23.7241 7.2147 25.2086Z" fill="#2C5E79" stroke="#2C5E79" stroke-width="1.5"/>
<path d="M30.565 35.099C29.9817 35.099 29.465 34.699 29.3483 34.099C29.215 33.4157 29.6483 32.7657 30.315 32.6157C31.365 32.399 32.3317 31.9823 33.0817 31.399C34.0317 30.6823 34.5483 29.7823 34.5483 28.8323C34.5483 27.8823 34.0317 26.9823 33.0983 26.2823C32.365 25.7157 31.4483 25.3157 30.365 25.0657C29.6983 24.9157 29.265 24.249 29.415 23.5657C29.565 22.899 30.2317 22.4657 30.915 22.6157C32.3483 22.9323 33.5983 23.499 34.615 24.2823C36.165 25.449 37.0483 27.099 37.0483 28.8323C37.0483 30.5657 36.1483 32.2157 34.5983 33.399C33.565 34.199 32.265 34.7823 30.8317 35.0657C30.7317 35.099 30.6483 35.099 30.565 35.099Z" fill="#2C5E79"/>
</svg>
