<svg width="30" height="30" viewBox="0 0 30 30" fill="none" xmlns="http://www.w3.org/2000/svg">
<path d="M22.0885 3.11487H7.99275C7.33979 3.11576 6.71386 3.35693 6.25215 3.78553C5.79044 4.21413 5.53062 4.79518 5.52966 5.40131V24.5998C5.53062 25.206 5.79044 25.787 6.25215 26.2156C6.71386 26.6442 7.33979 26.8854 7.99275 26.8863H22.0885C22.7407 26.8842 23.3654 26.6425 23.826 26.2141C24.2867 25.7856 24.5458 25.2052 24.5468 24.5998V5.40131C24.5458 4.79596 24.2867 4.21558 23.826 3.78711C23.3654 3.35864 22.7407 3.11694 22.0885 3.11487V3.11487ZM8.90585 7.06632C8.90585 6.88161 8.98489 6.70446 9.1256 6.57385C9.2663 6.44324 9.45713 6.36986 9.65611 6.36986H20.4252C20.6242 6.36986 20.815 6.44324 20.9557 6.57385C21.0964 6.70446 21.1754 6.88161 21.1754 7.06632V8.44133C21.1754 8.62604 21.0964 8.80318 20.9557 8.9338C20.815 9.06441 20.6242 9.13778 20.4252 9.13778H9.65611C9.45713 9.13778 9.2663 9.06441 9.1256 8.9338C8.98489 8.80318 8.90585 8.62604 8.90585 8.44133V7.06632ZM11.4317 22.7098C11.4317 22.8945 11.3526 23.0716 11.2119 23.2023C11.0712 23.3329 10.8804 23.4062 10.6814 23.4062H9.65611C9.45713 23.4062 9.2663 23.3329 9.1256 23.2023C8.98489 23.0716 8.90585 22.8945 8.90585 22.7098V22.0503C8.90585 21.8656 8.98489 21.6884 9.1256 21.5578C9.2663 21.4272 9.45713 21.3538 9.65611 21.3538H10.6814C10.8804 21.3538 11.0712 21.4272 11.2119 21.5578C11.3526 21.6884 11.4317 21.8656 11.4317 22.0503V22.7098ZM11.4317 18.5881C11.4317 18.7728 11.3526 18.95 11.2119 19.0806C11.0712 19.2112 10.8804 19.2846 10.6814 19.2846H9.65611C9.45713 19.2846 9.2663 19.2112 9.1256 19.0806C8.98489 18.95 8.90585 18.7728 8.90585 18.5881V17.9286C8.90585 17.7439 8.98489 17.5668 9.1256 17.4361C9.2663 17.3055 9.45713 17.2322 9.65611 17.2322H10.6814C10.8804 17.2322 11.0712 17.3055 11.2119 17.4361C11.3526 17.5668 11.4317 17.7439 11.4317 17.9286V18.5881ZM16.3651 22.7098C16.3651 22.8945 16.286 23.0716 16.1453 23.2023C16.0046 23.3329 15.8138 23.4062 15.6148 23.4062H14.5895C14.3905 23.4062 14.1997 23.3329 14.059 23.2023C13.9183 23.0716 13.8393 22.8945 13.8393 22.7098V22.0503C13.8393 21.8656 13.9183 21.6884 14.059 21.5578C14.1997 21.4272 14.3905 21.3538 14.5895 21.3538H15.6148C15.8138 21.3538 16.0046 21.4272 16.1453 21.5578C16.286 21.6884 16.3651 21.8656 16.3651 22.0503V22.7098ZM16.3651 18.5881C16.3651 18.7728 16.286 18.95 16.1453 19.0806C16.0046 19.2112 15.8138 19.2846 15.6148 19.2846H14.5895C14.3905 19.2846 14.1997 19.2112 14.059 19.0806C13.9183 18.95 13.8393 18.7728 13.8393 18.5881V17.9286C13.8393 17.7439 13.9183 17.5668 14.059 17.4361C14.1997 17.3055 14.3905 17.2322 14.5895 17.2322H15.6148C15.8138 17.2322 16.0046 17.3055 16.1453 17.4361C16.286 17.5668 16.3651 17.7439 16.3651 17.9286V18.5881ZM16.3651 14.4665C16.3651 14.6512 16.286 14.8283 16.1453 14.959C16.0046 15.0896 15.8138 15.1629 15.6148 15.1629H9.65611C9.45713 15.1629 9.2663 15.0896 9.1256 14.959C8.98489 14.8283 8.90585 14.6512 8.90585 14.4665V13.8014C8.90585 13.6167 8.98489 13.4395 9.1256 13.3089C9.2663 13.1783 9.45713 13.1049 9.65611 13.1049H15.6208C15.8198 13.1049 16.0107 13.1783 16.1514 13.3089C16.2921 13.4395 16.3711 13.6167 16.3711 13.8014L16.3651 14.4665ZM21.2985 22.7098C21.2985 22.8945 21.2194 23.0716 21.0787 23.2023C20.938 23.3329 20.7472 23.4062 20.5482 23.4062H19.5229C19.3239 23.4062 19.1331 23.3329 18.9924 23.2023C18.8517 23.0716 18.7727 22.8945 18.7727 22.7098V22.0503C18.7727 21.8656 18.8517 21.6884 18.9924 21.5578C19.1331 21.4272 19.3239 21.3538 19.5229 21.3538H20.5482C20.7472 21.3538 20.938 21.4272 21.0787 21.5578C21.2194 21.6884 21.2985 21.8656 21.2985 22.0503V22.7098ZM21.2985 18.5881C21.2985 18.7728 21.2194 18.95 21.0787 19.0806C20.938 19.2112 20.7472 19.2846 20.5482 19.2846H19.5229C19.3239 19.2846 19.1331 19.2112 18.9924 19.0806C18.8517 18.95 18.7727 18.7728 18.7727 18.5881V17.9286C18.7727 17.7439 18.8517 17.5668 18.9924 17.4361C19.1331 17.3055 19.3239 17.2322 19.5229 17.2322H20.5482C20.7472 17.2322 20.938 17.3055 21.0787 17.4361C21.2194 17.5668 21.2985 17.7439 21.2985 17.9286V18.5881ZM21.2985 14.4665C21.2985 14.6512 21.2194 14.8283 21.0787 14.959C20.938 15.0896 20.7472 15.1629 20.5482 15.1629H19.5229C19.3239 15.1629 19.1331 15.0896 18.9924 14.959C18.8517 14.8283 18.7727 14.6512 18.7727 14.4665V13.8014C18.7727 13.6167 18.8517 13.4395 18.9924 13.3089C19.1331 13.1783 19.3239 13.1049 19.5229 13.1049H20.5482C20.7472 13.1049 20.938 13.1783 21.0787 13.3089C21.2194 13.4395 21.2985 13.6167 21.2985 13.8014V14.4665Z" fill="url(#paint0_linear_1360_29966)"/>
<defs>
<linearGradient id="paint0_linear_1360_29966" x1="15.0382" y1="26.8863" x2="15.0382" y2="3.11487" gradientUnits="userSpaceOnUse">
<stop stop-color="#1A891E"/>
<stop offset="1" stop-color="#7DE13F"/>
</linearGradient>
</defs>
</svg>
