<svg width="58" height="59" viewBox="0 0 58 59" fill="none" xmlns="http://www.w3.org/2000/svg">
<path d="M58 26.0118C58 11.7406 46.3477 0.130005 32.0252 0.130005C21.3911 0.130005 12.2307 6.53133 8.21695 15.6692C8.06145 15.6522 7.90554 15.6406 7.74922 15.6406C5.43349 15.6406 3.66046 17.4981 2.09628 19.1369C1.82389 19.4222 1.56666 19.6918 1.31412 19.9434C-0.444565 21.6951 -0.437673 25.533 1.33273 30.2097C3.28289 35.3612 7.13441 40.9664 12.1781 45.9924C21.169 54.9504 29.7103 58.1295 34.2927 58.13C34.2932 58.13 34.2936 58.13 34.294 58.13C36.0659 58.13 37.4579 57.6763 38.3196 56.8178C38.5724 56.5658 38.8432 56.3092 39.1299 56.0375C40.8196 54.4362 42.7348 52.6213 42.635 50.2312C42.627 50.0408 42.6048 49.8513 42.5713 49.6622C51.6533 45.6253 58 36.5437 58 26.0118ZM39.8125 45.6056C39.7069 45.5165 39.5997 45.4272 39.488 45.3376C37.0416 43.3787 35.1375 42.4662 33.4956 42.4662C31.496 42.4662 30.1832 43.7938 28.7932 45.1993C28.646 45.3482 28.4963 45.4996 28.343 45.6522C28.1528 45.8419 27.9126 45.9303 27.5877 45.9303H27.5875C26.4222 45.9303 23.9234 44.8242 18.6369 39.5561C16.2456 37.1732 14.4959 35.1417 13.4362 33.5182C12.7645 32.489 11.7522 30.6483 12.5187 29.8843C12.6713 29.7322 12.8228 29.5836 12.9719 29.4372C15.5053 26.9505 17.6934 24.8028 12.833 18.7805C12.6779 18.588 12.5231 18.4078 12.3686 18.2334C15.4809 10.4517 23.1186 4.93746 32.0252 4.93746C43.6875 4.93746 53.1753 14.3914 53.1753 26.0118C53.1753 34.8935 47.6323 42.5091 39.8125 45.6056Z" fill="#23257D"/>
<path d="M27.7493 27.1763C28.8362 26.0026 29.6291 25.0367 30.1061 24.306C30.6093 23.5349 30.8644 22.6808 30.8644 21.7674C30.8644 20.4173 30.4076 19.3182 29.5063 18.5005C28.6146 17.6914 27.3839 17.2812 25.8482 17.2812C24.2861 17.2812 23.0215 17.7591 22.0895 18.7017C21.1562 19.6455 20.7006 20.813 20.7354 22.1722L20.7366 22.2235L20.8509 22.5647H24.1962V22.2213C24.1962 21.5682 24.3434 21.0456 24.634 20.6679C24.9068 20.3132 25.304 20.1408 25.8482 20.1408C26.3341 20.1408 26.6935 20.2859 26.9469 20.5842C27.2148 20.8997 27.3451 21.3024 27.3451 21.8157C27.3451 22.2007 27.2186 22.632 26.9689 23.0977C26.7047 23.5907 26.2467 24.2109 25.6157 24.9325L20.9581 29.9082V32.2314H31.281V29.3717H25.7257L27.7493 27.1763Z" fill="#23257D"/>
<path d="M41.7617 17.4837H38.3768L32.3617 27.0593L32.5197 29.1795H38.2521V32.2312H41.7616V29.1795H43.3608V26.3199H41.7616V17.4837H41.7617ZM35.9744 26.3199L38.2522 22.7156V26.3199H35.9744Z" fill="#23257D"/>
</svg>
