<svg width="57" height="58" viewBox="0 0 57 58" fill="none" xmlns="http://www.w3.org/2000/svg">
<path d="M56.9614 11.0634C56.9614 19.7232 53.1861 26.0146 53.0273 26.2771C52.7076 26.7997 52.1541 27.0864 51.5829 27.0864C51.283 27.0864 50.9809 27.007 50.7075 26.8416C49.9092 26.3564 49.6534 25.3178 50.1363 24.5195C50.1716 24.4622 53.5786 18.7353 53.5786 11.0634C53.5786 6.68827 50.7339 3.51278 46.8131 3.51278C43.0819 3.51278 40.0475 6.54714 40.0475 10.2805C40.0475 11.8705 40.8171 15.9104 41.1126 17.3328C41.3045 18.2479 40.7157 19.1432 39.8005 19.3351C38.8854 19.5225 37.9901 18.9382 37.8004 18.0252C37.6836 17.4673 36.6603 12.5078 36.6603 10.2805C36.6603 4.68374 41.2141 0.130005 46.8131 0.130005C52.5973 0.130005 56.9614 4.82929 56.9614 11.0634ZM47.0998 13.7251C47.7723 19.3461 48.747 30.2993 47.6268 31.4152L23.0476 55.9965C21.5371 57.5093 19.0827 57.5093 17.5699 55.9943L1.13458 39.5612C-0.378192 38.0506 -0.378192 35.5962 1.13458 34.0835L25.7159 9.50431C26.1063 9.11399 30.3579 9.09635 35.1388 9.34553C35.1123 9.66088 35.0439 9.95858 35.0439 10.2805C35.0439 11.5066 35.3152 13.4075 35.5996 15.0791C35.0991 15.8222 34.8058 16.7153 34.8058 17.679C34.8058 20.2458 36.8875 22.3275 39.4543 22.3275C42.0212 22.3275 44.1029 20.2458 44.1029 17.679C44.1029 16.0979 43.3112 14.7042 42.105 13.8662C41.858 12.3953 41.6595 10.9752 41.6595 10.2805C41.6595 10.1306 41.6904 9.99166 41.7036 9.84391C42.2924 9.90566 42.8724 9.96961 43.4215 10.038C46.6697 10.4371 46.7028 10.4305 47.0998 13.7251ZM33.9987 32.1208C33.6172 31.0601 32.9821 29.7877 31.6038 28.3235L33.4694 26.4557L31.3921 24.3806L29.3788 26.3961C26.684 24.5504 23.9055 24.7003 22.02 26.5858C19.9648 28.641 20.4499 31.2498 21.9583 34.2819C22.9947 36.3813 23.1844 37.5897 22.3795 38.3946C21.5525 39.2216 20.2184 38.8621 19.0077 37.6537C17.6317 36.2776 16.8246 34.5774 16.4232 33.1992L13.3051 35.0471C13.6667 36.2953 14.6414 38.0749 16.0175 39.5391L13.9843 41.5745L16.0594 43.6518L18.2447 41.4687C21.1269 43.5019 24.0334 43.2284 25.9188 41.343C27.8484 39.409 28.0182 37.2479 26.3643 33.8144C25.2176 31.3534 24.9419 30.145 25.6211 29.468C26.2165 28.8726 27.275 28.7028 28.6533 30.081C30.1815 31.6092 30.6887 33.0933 30.9643 33.8784L33.9987 32.1208Z" fill="#23257D"/>
</svg>
