<svg width="47" height="58" viewBox="0 0 47 58" fill="none" xmlns="http://www.w3.org/2000/svg">
<path d="M31.0144 21.6113C30.6465 21.2435 30.1337 21.0326 29.6074 21.0326C29.0737 21.0326 28.5743 21.238 28.2006 21.6113L21.2339 28.5778L18.8282 26.1717C18.4525 25.7971 17.9532 25.5908 17.4226 25.5908C16.8916 25.5908 16.392 25.7975 16.0158 26.1733C15.64 26.5493 15.4329 27.0492 15.4329 27.5806C15.4329 28.1125 15.6401 28.6124 16.0157 28.9877L19.8282 32.8006C20.2009 33.1725 20.7002 33.3772 21.2336 33.3772C21.7674 33.3772 22.2666 33.1723 22.6411 32.7992L31.0147 24.4257C31.7903 23.6501 31.7905 22.3878 31.0144 21.6113Z" fill="#23257D"/>
<path d="M46.7315 11.8771C46.7 11.5146 46.4805 11.1953 46.1533 11.0363L23.9526 0.234235C23.6669 0.0950987 23.3329 0.0950987 23.0471 0.234235L0.846552 11.0361C0.519406 11.1953 0.299716 11.5145 0.268355 11.877C0.240018 12.2027 -0.396603 19.9641 2.05596 29.4437C3.50065 35.0278 5.72525 40.0372 8.66781 44.3327C12.3584 49.7201 17.1883 53.9867 23.0236 57.0138C23.1729 57.0913 23.3365 57.13 23.5 57.13C23.6635 57.13 23.8272 57.0913 23.9765 57.0138C29.8116 53.9867 34.6418 49.7202 38.3324 44.3327C41.275 40.0372 43.4996 35.0278 44.9441 29.4437C47.3965 19.9641 46.7599 12.2029 46.7315 11.8771ZM23.4999 40.1996C16.2425 40.1996 10.3382 34.2953 10.3382 27.0379C10.3382 19.7805 16.2425 13.8763 23.4999 13.8763C30.7573 13.8763 36.6615 19.7805 36.6615 27.0379C36.6615 34.2953 30.7573 40.1996 23.4999 40.1996Z" fill="#23257D"/>
</svg>
