<svg width="57" height="58" viewBox="0 0 57 58" fill="none" xmlns="http://www.w3.org/2000/svg">
<path d="M56.6599 16.877C56.6567 16.8555 56.6525 16.8341 56.6476 16.8129C56.3286 15.1137 55.7989 13.4882 55.0868 11.964C55.0672 11.9058 55.0411 11.8497 55.0084 11.7963C54.3461 10.4115 53.5326 9.11218 52.5893 7.92008C52.5543 7.86141 52.5128 7.80574 52.4623 7.7552C52.4555 7.74841 52.448 7.74262 52.441 7.73605C51.5144 6.59216 50.4672 5.5499 49.3188 4.62855C49.3123 4.62165 49.3066 4.61441 49.2999 4.60762C49.248 4.55585 49.1907 4.5131 49.1302 4.47781C47.9333 3.54043 46.6293 2.73386 45.2406 2.07825C45.1878 2.04585 45.1321 2.02013 45.0746 2.00065C43.5417 1.29372 41.9074 0.770142 40.1995 0.459981C40.1782 0.455194 40.1568 0.451187 40.1353 0.448069C38.9651 0.239106 37.7607 0.130005 36.5313 0.130005C35.5858 0.130005 34.6557 0.195911 33.744 0.320487C33.7411 0.32071 33.7382 0.321378 33.7352 0.321712C25.0901 1.50802 18.1487 8.11234 16.4581 16.5886C14.2391 17.0307 12.1021 17.8375 10.1429 18.9844C9.74411 19.2179 9.61018 19.7303 9.84352 20.1291C10.077 20.5279 10.5895 20.6618 10.9881 20.4285C12.6091 19.4795 14.3632 18.7844 16.1857 18.3593C16.1053 19.095 16.0626 19.8419 16.0626 20.5987C16.0626 21.827 16.1716 23.0303 16.38 24.1995C16.3834 24.2224 16.3875 24.2452 16.3927 24.2678C16.7029 25.9752 17.2264 27.6089 17.9331 29.1413C17.9525 29.199 17.9785 29.2548 18.0109 29.3079C18.6666 30.6965 19.473 32.0004 20.4103 33.1972C20.4457 33.2577 20.4884 33.315 20.5403 33.3669C20.5468 33.3736 20.5541 33.3792 20.5609 33.3855C21.4823 34.534 22.5246 35.5813 23.6687 36.5081C23.6753 36.5152 23.6811 36.5225 23.6878 36.5293C23.7383 36.5797 23.7939 36.6214 23.8525 36.6562C25.0447 37.5996 26.344 38.4131 27.7288 39.0755C27.7823 39.1082 27.8385 39.1343 27.8965 39.1539C29.4209 39.8661 31.0466 40.3958 32.7462 40.7149C32.767 40.7197 32.7879 40.7237 32.809 40.7269C34.0164 40.9497 35.2604 41.0671 36.5313 41.0671C37.2884 41.0671 38.0355 41.0245 38.7714 40.944C36.8279 49.2511 29.3595 55.4565 20.4686 55.4565C10.1047 55.4565 1.67304 47.0249 1.67304 36.661C1.67304 31.435 3.76668 26.5805 7.5682 22.9913C7.90419 22.6742 7.91933 22.1447 7.60226 21.8087C7.28498 21.4727 6.7555 21.4576 6.41963 21.7746C4.41383 23.6683 2.83519 25.9032 1.72781 28.4174C0.581467 31.021 0 33.7945 0 36.6613C0 47.9479 9.18234 57.13 20.4688 57.13C30.383 57.13 38.6724 50.0446 40.5419 40.6718C49.0678 38.9712 55.7005 31.9586 56.8296 23.2429C56.8301 23.2378 56.8312 23.2328 56.8317 23.2278C56.9426 22.3668 57 21.4893 57 20.5987C57 19.328 56.8825 18.0842 56.6599 16.877ZM51.7788 9.62162C52.3372 10.3952 52.8391 11.2123 53.2765 12.0675L38.4518 26.8922C37.9943 26.0533 37.4794 25.2502 36.9132 24.4873L51.7788 9.62162ZM50.7337 8.30026L35.8557 23.1783C35.242 22.4788 34.5822 21.8208 33.8797 21.2105L48.7563 6.3341C49.4625 6.94017 50.1239 7.59723 50.7337 8.30026ZM47.4299 5.29396L32.5643 20.1597C31.798 19.5965 30.9915 19.0848 30.1495 18.6308L44.9719 3.8084C45.8309 4.24191 46.6525 4.73877 47.4299 5.29396ZM40.2894 2.18089C41.339 2.39486 42.357 2.6969 43.3356 3.07831L28.5548 17.859C27.6109 17.4515 26.631 17.1126 25.6206 16.8496L40.2894 2.18089ZM34.2144 1.9461C34.9738 1.85225 35.747 1.80316 36.5314 1.80316C37.1019 1.80316 37.6661 1.8301 38.2238 1.88008L23.6618 16.4421C22.6211 16.2785 21.5548 16.1926 20.4688 16.1926C20.2988 16.1926 20.129 16.1969 19.9594 16.2011L34.2144 1.9461ZM31.2275 2.56642L18.4991 15.295C20.2982 9.18844 25.1211 4.36548 31.2275 2.56642ZM17.8129 22.2912C17.7628 21.7333 17.7359 21.1691 17.7359 20.5987C17.7359 19.8143 17.785 19.0411 17.8789 18.2816L18.1495 18.011C18.9164 17.9159 19.6908 17.8658 20.4689 17.8658C21.0393 17.8658 21.6036 17.8927 22.1613 17.9427L17.8129 22.2912ZM18.1135 24.3567L24.2267 18.2435C25.2764 18.4574 26.2943 18.7594 27.2728 19.141L19.0108 27.4031C18.6295 26.4244 18.3274 25.4064 18.1135 24.3567ZM21.2267 31.4973C20.6714 30.7197 20.1745 29.8981 19.741 29.0392L28.9094 19.8709C29.7682 20.3046 30.5899 20.8013 31.3674 21.3566L21.2267 31.4973ZM22.2667 32.8236L32.6936 22.3967C33.3999 23.0029 34.0613 23.6599 34.671 24.3629L24.233 34.8009C23.5299 34.1913 22.8729 33.5299 22.2667 32.8236ZM25.5543 35.8461L35.7162 25.6843C36.2747 26.4579 36.7765 27.2748 37.2139 28.13L27.9999 37.344C27.1448 36.9064 26.3278 36.4045 25.5543 35.8461ZM32.6612 38.9926C31.6162 38.7731 30.6027 38.4671 29.629 38.0812L37.9513 29.759C38.3371 30.7327 38.6431 31.7462 38.8628 32.7912L32.6612 38.9926ZM39.139 38.8249L38.695 39.2689C37.9848 39.3507 37.2631 39.3942 36.5313 39.3942C35.9184 39.3942 35.3124 39.3637 34.7142 39.306L39.176 34.8442C39.2337 35.4423 39.2642 36.0482 39.2642 36.6613C39.2642 37.3931 39.2208 38.1147 39.139 38.8249ZM40.2515 31.4025C39.9836 30.3961 39.6408 29.4202 39.2296 28.4808L54.014 13.6966C54.3997 14.6702 54.7057 15.6838 54.9253 16.7287L40.2515 31.4025ZM41.6427 38.6876L54.6204 25.7099C52.8485 31.9722 47.9048 36.9157 41.6427 38.6876ZM55.2016 22.7622L40.9328 37.031C40.935 36.9079 40.9375 36.7849 40.9375 36.6612C40.9375 35.5346 40.8445 34.4294 40.6685 33.3518L55.2388 18.7816C55.2965 19.3796 55.327 19.9856 55.327 20.5987C55.3268 21.3304 55.2833 22.0522 55.2016 22.7622Z" fill="#23257D"/>
</svg>
