<svg width="57" height="58" viewBox="0 0 57 58" fill="none" xmlns="http://www.w3.org/2000/svg">
<path d="M20.3589 24.5088L27.7148 28.5016C27.9632 28.6364 28.2373 28.7039 28.5113 28.7039C28.786 28.7039 29.0606 28.6362 29.3093 28.5008L36.6468 24.5091C38.7589 23.3601 40.0709 21.1504 40.0709 18.7424V5.06792C40.0709 4.14568 39.3232 3.39801 38.401 3.39801C37.5635 3.39801 36.8811 2.71647 36.8738 1.87595L36.875 1.83464C36.8844 1.38577 36.7126 0.952155 36.3985 0.631422C36.0844 0.310689 35.6543 0.130005 35.2054 0.130005H22.0262C21.5773 0.130005 21.1473 0.3108 20.8331 0.631422C20.5191 0.952155 20.3473 1.38577 20.3566 1.83464L20.358 1.87539C20.351 2.71613 19.6685 3.39801 18.8307 3.39801C18.8018 3.39801 18.7654 3.39634 18.7195 3.39311C18.2576 3.35949 17.8012 3.52002 17.4616 3.83608C17.1219 4.15192 16.9291 4.59489 16.9291 5.05868V18.7391C16.9291 21.1498 18.2433 23.3606 20.3589 24.5088ZM20.2689 6.52062C21.7421 6.06329 22.9182 4.92241 23.4259 3.46982H33.8056C34.2864 4.84537 35.3668 5.9415 36.731 6.44225V18.7423C36.731 19.9258 36.0872 21.0114 35.0507 21.5753L28.5103 25.1334L21.9518 21.5736C20.9137 21.0101 20.2688 19.9241 20.2688 18.7392L20.2689 6.52062Z" fill="#23257D"/>
<path d="M23.7174 15.1498L26.0748 17.1772C26.3879 17.4464 26.7758 17.581 27.1636 17.581C27.5515 17.581 27.9395 17.4464 28.2525 17.1772L33.2827 12.8511C33.9818 12.2497 34.0612 11.1954 33.4599 10.4962C32.8586 9.79698 31.8042 9.7176 31.1049 10.319L27.1637 13.7087L25.8951 12.6177C25.1959 12.0164 24.1415 12.0957 23.5401 12.7949C22.9388 13.4941 23.0181 14.5484 23.7174 15.1498Z" fill="#23257D"/>
<path d="M55.4863 8.72256C54.5106 7.7716 53.2218 7.26729 51.8589 7.30247C49.1689 7.37183 46.9803 9.65225 46.9803 12.3861V22.8874C46.451 22.7008 45.8883 22.6031 45.3105 22.6031C43.9722 22.6031 42.7142 23.1243 41.7681 24.0707L29.2709 36.5686C28.9909 36.8487 28.7343 37.146 28.5 37.4572C28.2656 37.146 28.009 36.8487 27.7289 36.5685L15.2321 24.0706C14.2859 23.1243 13.0278 22.603 11.6897 22.603C11.1119 22.603 10.5492 22.7007 10.0199 22.8873V12.3107C10.0817 9.6557 7.66347 7.16988 4.87884 7.30236C2.18885 7.37172 0.000159502 9.65225 0.000159502 12.386V28.9374C-0.0105279 30.5739 0.516272 32.4236 1.45799 33.8441L11.8939 48.183V55.4593C11.8939 56.3817 12.6417 57.1292 13.5639 57.1292H43.436C44.3582 57.1292 45.106 56.3816 45.106 55.4593V48.183L55.542 33.8441C56.4368 32.5032 57.0108 30.6482 56.9998 28.9374V12.3107C56.9998 10.948 56.4623 9.67374 55.4863 8.72256ZM26.83 53.7894H15.2339V47.6396C15.2339 47.2865 15.1219 46.9425 14.9142 46.6569L4.19229 31.9252C3.63465 31.0273 3.34019 29.9954 3.34019 28.9374V12.386C3.34019 11.447 4.06905 10.6643 4.96479 10.6413C5.75922 10.6151 6.68034 11.294 6.67978 12.3109L6.68691 27.81C6.73433 29.0266 7.2205 30.229 8.14718 31.1557L14.2382 37.2473C14.8902 37.8996 15.9476 37.8996 16.5999 37.2474C17.2522 36.5953 17.2522 35.538 16.6 34.8857L10.509 28.7942C9.85784 28.1429 9.85783 27.0834 10.5091 26.4321C11.0562 25.8784 12.1663 25.7262 12.8703 26.4321L25.3671 38.9299C26.3105 39.8736 26.8301 41.1332 26.8301 42.4765L26.83 53.7894ZM53.6598 28.9374C53.6598 29.9953 53.3653 31.0272 52.8077 31.9251L42.0857 46.6569C41.8779 46.9424 41.7659 47.2865 41.7659 47.6396V53.7894H30.17V42.4765C30.17 41.1331 30.6896 39.8735 31.6328 38.93L44.1299 26.432C44.6769 25.8783 45.7871 25.7261 46.4911 26.4321C47.1423 27.0833 47.1423 28.1429 46.4907 28.7945L40.4001 34.8896C39.7482 35.542 39.7485 36.5994 40.401 37.2513C41.0536 37.9034 42.1107 37.9029 42.7628 37.2504L48.8529 31.1557C49.78 30.2286 50.2662 29.0255 50.3132 27.8085L50.3202 12.3861C50.3202 11.4471 51.0491 10.6644 51.9448 10.6414C52.7387 10.6152 53.6606 11.2941 53.6598 12.311V28.9374Z" fill="#23257D"/>
</svg>
