<svg width="57" height="58" viewBox="0 0 57 58" fill="none" xmlns="http://www.w3.org/2000/svg">
<path d="M28.499 0.130005C12.7838 0.130005 0 12.9155 0 28.631C0 44.3454 12.7838 57.13 28.4991 57.13C44.2137 57.13 57 44.3454 57 28.631C56.9999 12.9155 44.2135 0.130005 28.499 0.130005ZM28.499 53.2488C14.9246 53.2488 3.88074 42.2054 3.88074 28.631C3.88074 15.0555 14.9247 4.01128 28.499 4.01128C42.0745 4.01128 53.1186 15.0554 53.1186 28.631C53.1186 42.2054 42.0746 53.2488 28.499 53.2488Z" fill="#23257D"/>
<path d="M28.499 8.22589C17.2485 8.22589 8.09573 17.3798 8.09573 28.631C8.09573 39.8812 17.2485 49.0344 28.499 49.0344C30.3754 49.0344 31.8938 47.5129 31.8938 45.6387C31.8938 43.7632 30.3756 42.2428 28.499 42.2428C20.9933 42.2428 14.8875 36.136 14.8875 28.631C14.8875 21.124 20.9933 15.0173 28.499 15.0173C36.0043 15.0173 42.1121 21.1241 42.1121 28.631C42.1121 30.5063 43.633 32.0267 45.5086 32.0267C47.3851 32.0267 48.904 30.5062 48.904 28.631C48.904 17.3798 39.7516 8.22589 28.499 8.22589Z" fill="#23257D"/>
<path d="M32.4641 28.8014C32.466 28.7428 32.4808 28.6886 32.4808 28.6301C32.4808 26.4324 30.6995 24.6483 28.499 24.6483C26.2999 24.6483 24.5191 26.4324 24.5191 28.6301C24.5191 30.8295 26.2999 32.6118 28.499 32.6118C28.5715 32.6118 28.6368 32.594 28.7093 32.5902L40.1535 42.1784C40.681 42.6227 41.4708 42.634 42.0113 42.169C42.615 41.653 42.6857 40.7455 42.1696 40.1419L32.4641 28.8014Z" fill="#23257D"/>
</svg>
