<svg width="84" height="59" viewBox="0 0 84 59" fill="none" xmlns="http://www.w3.org/2000/svg">
<path d="M81.5059 10.0402C80.5576 6.4752 77.7635 3.66772 74.2158 2.71474C67.7853 0.983398 42 0.983398 42 0.983398C42 0.983398 16.2147 0.983398 9.78431 2.71474C6.23653 3.66756 3.44246 6.4752 2.4942 10.0402C0.771118 16.5018 0.771118 29.9834 0.771118 29.9834C0.771118 29.9834 0.771118 43.465 2.4942 49.9266C3.44246 53.4916 6.23653 56.2991 9.78431 57.2521C16.2147 58.9834 42 58.9834 42 58.9834C42 58.9834 67.7853 58.9834 74.2158 57.2521C77.7635 56.2991 80.5576 53.4916 81.5059 49.9266C83.229 43.465 83.229 29.9834 83.229 29.9834C83.229 29.9834 83.229 16.5018 81.5059 10.0402Z" fill="#FF0000"/>
<path d="M33.5668 42.2237L55.1182 29.9837L33.5668 17.7431V42.2237Z" fill="white"/>
</svg>
